<?xml version="1.0" encoding="utf-8"?>
<!-- Generator: Adobe Illustrator 28.0.0, SVG Export Plug-In . SVG Version: 6.00 Build 0)  -->
<svg version="1.1" id="Capa_1" xmlns="http://www.w3.org/2000/svg" xmlns:xlink="http://www.w3.org/1999/xlink" x="0px" y="0px"
	 viewBox="0 0 1448 1448" style="enable-background:new 0 0 1448 1448;" xml:space="preserve">
<style type="text/css">
	.st0{fill:none;stroke:#BDE7B3;stroke-width:2;}
	.st1{fill:none;stroke:#B0E195;stroke-width:2;}
	.st2{fill:none;stroke:#FFFBBB;stroke-width:2;}
	.st3{fill:none;stroke:#FFF43D;stroke-width:2;}
	.st4{fill:none;stroke:#E7EA54;stroke-width:2;}
	.st5{fill:none;stroke:#E6ED86;stroke-width:2;}
	.st6{fill:none;stroke:#BDAFD9;stroke-width:2;}
	.st7{fill:none;stroke:#9FA7D7;stroke-width:2;}
	.st8{fill:none;stroke:#CEE163;stroke-width:2;}
	.st9{fill:none;stroke:#E1BBDF;stroke-width:2;}
	.st10{fill:none;stroke:#D6B1BE;stroke-width:2;}
	.st11{fill:none;stroke:#FF9BCE;stroke-width:2;}
	.st12{fill:none;stroke:#B0C4CE;stroke-width:2;}
	.st13{fill:none;stroke:#FFD4B1;stroke-width:2;}
	.st14{fill:none;stroke:#D4CEAF;stroke-width:2;}
	.st15{fill:none;stroke:#D2C6E4;stroke-width:2;}
	.st16{fill:none;stroke:#BDEBF7;stroke-width:2;}
	.st17{fill:none;stroke:#BFE9D2;stroke-width:2;}
	.st18{fill:none;stroke:#BEC7AE;stroke-width:2;}
	.st19{fill:none;stroke:#E7EF98;stroke-width:2;}
	.st20{fill:none;stroke:#6ED2D1;stroke-width:2;}
	.st21{fill:none;stroke:#92A2B9;stroke-width:2;}
	.st22{fill:none;stroke:#B0E6D9;stroke-width:2;}
	.st23{fill:none;stroke:#FFF881;stroke-width:2;}
	.st24{fill:none;stroke:#E7E81A;stroke-width:2;}
	.st25{fill:none;stroke:#A6B747;stroke-width:2;}
	.st26{fill:none;stroke:#A7D86B;stroke-width:2;}
	.st27{fill:none;stroke:#E17FC1;stroke-width:2;}
	.st28{fill:none;stroke:#E157AE;stroke-width:2;}
	.st29{fill:none;stroke:#B86D9E;stroke-width:2;}
	.st30{fill:none;stroke:#BFE48E;stroke-width:2;}
	.st31{fill:none;stroke:#B482C4;stroke-width:2;}
	.st32{fill:none;stroke:#7EB181;stroke-width:2;}
	.st33{fill:none;stroke:#D4A361;stroke-width:2;}
	.st34{fill:none;stroke:#D64C8D;stroke-width:2;}
	.st35{fill:none;stroke:#FF6F80;stroke-width:2;}
	.st36{fill:none;stroke:#FF9793;stroke-width:2;}
	.st37{fill:none;stroke:#FFCF6D;stroke-width:2;}
	.st38{fill:none;stroke:#9280AE;stroke-width:2;}
	.st39{fill:none;stroke:#A79594;stroke-width:2;}
	.st40{fill:none;stroke:#D289C6;stroke-width:2;}
	.st41{fill:none;stroke:#90B2DC;stroke-width:2;}
	.st42{fill:none;stroke:#FF5EAF;stroke-width:2;}
	.st43{fill:none;stroke:#7DD5CA;stroke-width:2;}
	.st44{fill:none;stroke:#D49290;stroke-width:2;}
	.st45{fill:none;stroke:#49494B;stroke-width:2;stroke-opacity:0.6;}
	.st46{fill:none;stroke:#E7E7E7;stroke-width:2;}
	.st47{fill:none;stroke:#B8B9BA;stroke-width:2;}
	.st48{fill:none;stroke:#A0A1A2;stroke-width:2;}
	.st49{fill:#FFF677;}
	.st50{fill:#CCE494;}
	.st51{fill:#61CCB3;}
	.st52{fill:#7BD7EF;}
	.st53{fill:#FFF102;}
	.st54{fill:#FFFFFF;}
	.st55{fill:#CFDE31;}
	.st56{fill:#FF86C2;}
	.st57{fill:#C377BF;}
	.st58{fill:#7C8F5D;}
	.st59{fill:#AC627D;}
	.st60{fill:#FF369C;}
	.st61{fill:#7FD2A5;}
	.st62{fill:#707274;}
	.st63{fill:#CFCFCF;}
	.st64{fill:#A48CC9;}
	.st65{fill:#60889C;}
	.st66{fill:#A99D5E;}
	.st67{fill:#FFA863;}
	.st68{fill:#57575A;}
	.st69{fill-opacity:0.196;}
</style>
<g>
	<path vector-effect="non-scaling-stroke" class="st0" d="M888.2,73.9c0.2,0.2,0.3,0.3,0.2,0.5"/>
	<path vector-effect="non-scaling-stroke" class="st1" d="M888.5,74.4c-46.4-6.4-94.6-3.1-141.2,7.1c-9.7,2.1-17.1,4-22.1,5.6"/>
	<path vector-effect="non-scaling-stroke" class="st2" d="M725.1,87.1L685,88.3"/>
	<path vector-effect="non-scaling-stroke" class="st3" d="M685,88.3c0.2-0.1,0.2-0.3,0.2-0.4c-0.1-0.3-0.2-0.5-0.6-0.6
		c-2.6-0.3-6.5-0.9-11.6-1.9c-9.2-1.7-22.2-3.3-39-4.6c-30.7-2.5-61.3-1.3-91.8,3.7c-2.5,0.4-4.8,1.4-6.9,3.1
		c-18.1,14.1-34.6,29.3-49.4,45.9"/>
	<path vector-effect="non-scaling-stroke" class="st4" d="M486,133.5c-0.2,0.2-0.3,0.1-0.5-0.1c-0.1-0.1-0.1-0.2-0.2-0.4
		c-2-10.4-6-19.9-11.9-28.6c-0.2-0.2-0.5-0.3-1.1-0.4"/>
	<path vector-effect="non-scaling-stroke" class="st5" d="M472.3,104.1c0.2-0.1,0.4-0.4,0.6-0.9"/>
	<path vector-effect="non-scaling-stroke" class="st6" d="M1008,113.5c-0.1,0.1-0.2,0.3-0.2,0.4"/>
	<path vector-effect="non-scaling-stroke" class="st7" d="M1007.8,114c-1.1,0.6-2.3,1.3-3.7,2.1c-13.7,8-24.3,19.7-31.7,35"/>
	<path vector-effect="non-scaling-stroke" class="st8" d="M472.3,104.1c-20.4,8.2-39,18.4-56.1,30.4c-4.4,3.1-7.8,5.4-10.3,7
		c-1.5,0.9-2.5,2.2-3.9,3.3c-17.3,14-31.8,28.4-46.6,46.9c-2,2.5-3.9,5.1-5.6,7.8"/>
	<path vector-effect="non-scaling-stroke" class="st5" d="M349.9,199.5c-0.3,0.3-0.7,0.5-1.1,0.4"/>
	<path vector-effect="non-scaling-stroke" class="st9" d="M966.2,170.3l0.1,1.7"/>
	<path vector-effect="non-scaling-stroke" class="st10" d="M966.3,172c-0.8,7.4-1,13.2-0.6,17.3c2.2,24.1,13,43.2,32.2,57.5
		c7.9,5.8,15.7,9.9,23.6,12.1c7,2,12,3.1,15,3.4c4,0.4,9.8,0.3,17.5-0.3"/>
	<path vector-effect="non-scaling-stroke" class="st9" d="M1054,261.9c0.4,0.5,0.7,0.9,1,1.3c40.4,58.4,64.3,123,71.6,193.8
		c1.4,13.8,2.1,24.1,1.9,30.7c-0.3,11.1,0.2,22.5-0.5,33.4c-0.3,4.6-0.6,9.2-0.9,13.8"/>
	<path vector-effect="non-scaling-stroke" class="st11" d="M1127.2,535c-1,8.9-1.9,16.4-2.7,22.3c-8.3,56.7-27.9,109.3-57.6,158.2"
		/>
	<path vector-effect="non-scaling-stroke" class="st9" d="M1066.8,715.5c0.1,0.2-0.1,0.4-0.7,0.7"/>
	<path vector-effect="non-scaling-stroke" class="st12" d="M1066.2,716.2c-19.3-3.3-37.1-0.3-53.4,8.8
		c-32.6,18.3-47.2,56.9-35.9,92.3"/>
	<path vector-effect="non-scaling-stroke" class="st9" d="M976.8,817.3c-0.1,0.3-0.2,0.6-0.6,0.9"/>
	<path vector-effect="non-scaling-stroke" class="st11" d="M976.3,818.2c-0.2,0.1-0.3,0.1-0.4,0.2c-62.6,50.1-137.9,81.7-218.1,89
		c-2.8,0.2-6.8,1-10.2,1.1c-5.9,0.2-11.1,1-16.3,0.9c-11-0.2-19.9-0.2-26.8-0.1c-3.8,0.1-7.6-0.1-11.4-0.6c-2.9-0.4-6.1,0-8.5-0.3
		c-4.9-0.6-8.2-1.1-9.8-1.2c-66.5-7-127.7-28.7-183.5-65.2"/>
	<path vector-effect="non-scaling-stroke" class="st13" d="M491.3,842l-0.1-0.5"/>
	<path vector-effect="non-scaling-stroke" class="st14" d="M491.1,841.5c4-9.1,6.4-17.9,7.4-26.2c2.3-20-6-42.2-18.8-57.2
		c-13.6-16-30.9-25.2-52-27.5c-14.9-1.7-29.7,1.2-44.4,8.7"/>
	<path vector-effect="non-scaling-stroke" class="st15" d="M383.4,739.2c-3.9-5.6-7.5-10.9-10.7-15.9
		c-35.8-55.2-57.3-115.6-64.5-181.2c-0.5-5-1.1-9.9-1-15.2c0-2.8-0.4-5.7-1.2-8.7"/>
	<path vector-effect="non-scaling-stroke" class="st16" d="M306,518.3l0.2-6.8"/>
	<path vector-effect="non-scaling-stroke" class="st17" d="M306.2,511.5c0.1-9,0.1-18.1,0.1-27.1c0-5.6,0.9-12.2,0.7-18.5
		c0-2.1,0.8-4,0.8-6.3c0-2.3,0.2-4.6,0.7-6.8c0.3-1.5,0.2-3,0.3-4.3c7.1-57.4,25.4-111,54.8-160.7c11.8-19.9,25.9-39.6,42.3-58.8
		c1.2-1.4,2.4-2.1,3.7-2.3"/>
	<path vector-effect="non-scaling-stroke" class="st18" d="M409.7,226.7c2.6,0.2,4.9,0.2,6.8-0.1c36.8-6.2,62.5-29.8,69.6-67.1
		c0-0.2,0.1-0.5,0.3-0.7"/>
	<path vector-effect="non-scaling-stroke" class="st19" d="M486.3,158.8c0.4-0.4,0.6-0.8,0.6-1.1"/>
	<path vector-effect="non-scaling-stroke" class="st20" d="M888.5,74.4c0.1,0.2,0.3,0.3,0.6,0.3c31.3,21.4,59,46.9,83.3,76.5"/>
	<path vector-effect="non-scaling-stroke" class="st21" d="M972.3,151.1c-0.5,1.3-1.1,2.9-1.9,4.8c-1.8,4.7-3,9.5-4.2,14.4"/>
	<path vector-effect="non-scaling-stroke" class="st22" d="M966.2,170.3C905,124.4,836.2,97.3,760,89c-8.1-0.9-19.8-1.5-34.9-1.9"/>
	<path vector-effect="non-scaling-stroke" class="st23" d="M685,88.3c-72.1,6.1-138.1,29.2-198,69.4"/>
	<path vector-effect="non-scaling-stroke" class="st24" d="M486.9,157.7c-0.1,0-0.2,0-0.3-0.1c-0.1,0-0.2-0.1-0.1-0.2
		c1.1-7.5,0.8-14.9-0.9-22.3c-0.1-0.3,0-0.6,0.1-0.9l0.3-0.7"/>
	<path vector-effect="non-scaling-stroke" class="st25" d="M486.3,158.8c0-0.1-0.1-0.2-0.2-0.2c-0.2-0.1-0.3-0.2-0.5-0.1
		c-1.4,0.7-3.7,2.3-6.8,4.6c-11.2,8.1-19.7,14.7-25.6,19.6c-2.5,2.1-4.5,3.6-6.8,5.8c-1.8,1.8-4.1,3.1-5.7,4.7
		c-2.3,2.3-4.6,4.6-6.9,6.9c-1.1,1.1-2.6,1.9-3.6,2.8c-4.5,4.3-11.5,10.8-16.5,17c-1.6,2-3.2,3.9-4.9,5.7"/>
	<path vector-effect="non-scaling-stroke" class="st26" d="M408.8,225.7l-3.3,1.7"/>
	<path vector-effect="non-scaling-stroke" class="st4" d="M405.5,227.4c-21.8-2.6-40.1-9.8-55.2-26.1c-0.3-0.4-0.5-1-0.4-1.8"/>
	<path vector-effect="non-scaling-stroke" class="st27" d="M1113.5,220.7c0,0.2-0.1,0.2-0.5,0.1c-0.2-0.1-0.3-0.2-0.3-0.4
		c0-0.2-0.1-0.5-0.2-0.6c-6.8-12.2-14.5-23.9-23.2-34.8c-13.7-17.4-28.8-32.5-45.9-46.6c-11.2-9.2-23.1-17.3-35.6-24.4"/>
	<path vector-effect="non-scaling-stroke" class="st7" d="M1114,221.2c-0.3-0.1-0.5-0.1-0.8,0c-0.2,0.1-0.4,0.2-0.5,0.5
		c-8.1,14.4-19.5,25.2-34.2,32.7c-0.3,0.1-0.4,0.5-0.3,0.8c0,0.1,0.1,0.1,0.2,0.2c21.7,17.5,41.4,37.2,59.3,59
		c4,4.8,7.7,9.8,11.4,15"/>
	<path vector-effect="non-scaling-stroke" class="st27" d="M1149,329.3c0.4,0.6,0.9,1.4,1,2.2c8.6,56.2,3.5,114.8-11.1,169.5
		c-1.2,4.4-2.3,8.6-3.4,12.7"/>
	<path vector-effect="non-scaling-stroke" class="st28" d="M1135.6,513.7l-6.5,20c-0.1,0.3-0.3,0.5-0.5,0.6l-1.4,0.7"/>
	<path vector-effect="non-scaling-stroke" class="st28" d="M1054,261.9c7.8-1.7,15.2-3.3,22.4-6.7c0.4-0.2,0.6-0.7,0.4-1.1
		c-0.1-0.1-0.1-0.2-0.2-0.3c-15.9-12.7-32.5-24.3-49.8-34.7c-6.2-3.8-11-6.5-14.2-8.1"/>
	<path vector-effect="non-scaling-stroke" class="st29" d="M1012.6,211.1c-9.1-9.5-18.8-18.6-29.1-27.3c-5.9-5-11.2-9-16-12
		c-0.5-0.3-0.9-0.2-1.2,0.3"/>
	<path vector-effect="non-scaling-stroke" class="st30" d="M405.5,227.4c-42.6,27.7-80.5,62.7-110,104.1c-0.3,0.4-0.5,0.4-0.9,0.3"
		/>
	<path vector-effect="non-scaling-stroke" class="st31" d="M1104.5,735.6c-0.9,1.3-2.4,2.9-4.6,4.8c-18.4,16.9-37.4,31.6-56.8,44.2
		c-7.8,5.1-15.6,10.1-23.3,14.9c-0.6,0.4-1,0.8-1.3,1.4c-6.4,11-13,21.6-20,31.9c-2.4,3.5-4.8,7.1-7.2,10.8"/>
	<path vector-effect="non-scaling-stroke" class="st27" d="M991.3,843.6c0.2-0.6-0.1-0.8-0.8-0.7"/>
	<path vector-effect="non-scaling-stroke" class="st28" d="M990.5,842.9c-5.9-7.2-10.4-15.2-13.4-24c-0.1-0.2-0.3-0.4-0.8-0.7"/>
	<path vector-effect="non-scaling-stroke" class="st28" d="M1104.5,735.6c-9-9.9-23.8-16.6-36.6-19.2c-0.5-0.1-0.9-0.4-1.1-0.9"/>
	<path vector-effect="non-scaling-stroke" class="st32" d="M409.7,226.7c-0.6,0-0.9-0.3-0.9-1"/>
	<path vector-effect="non-scaling-stroke" class="st33" d="M491.1,841.5c-0.4,0.4-0.8,0.5-1.3,0.2c-11.7-7.8-23.1-16.1-34-25
		c-2.9-2.4-6.1-5.9-9-8c-0.3-0.2-0.9-0.3-1.6-0.3c-0.3,0-0.6-0.1-0.9-0.2c-3.4-2.2-6.9-4.3-10.4-6.3c-0.2-0.1-0.4-0.4-0.6-0.7
		c-0.2-0.3-0.4-0.5-0.8-0.5c-1.1-0.2-2-0.7-2.7-1.4c-0.2-0.2-0.5-0.4-0.8-0.4c-0.6-0.1-1.2-0.4-1.7-0.7
		c-21.4-12.5-41.7-26.6-60.9-42.3c-0.1-0.1-0.5-0.5-1.2-1.2c-0.5-0.6-1.1-0.8-1.7-0.7"/>
	<path vector-effect="non-scaling-stroke" class="st34" d="M1012.6,211.1c3.8,3.6,7.3,7.3,10.3,11.1c10.3,12.7,20.9,25.2,31,38.2
		c0.2,0.3,0.3,0.6,0.2,0.9l-0.1,0.7"/>
	<path vector-effect="non-scaling-stroke" class="st35" d="M491.3,842c-4.1,8.3-9.5,15.8-16.1,22.6"/>
	<path vector-effect="non-scaling-stroke" class="st36" d="M475.1,864.5c-12.1,11.7-26.9,19-44.4,21.9c-0.5,0.1-0.8,0.4-0.8,1.1"/>
	<path vector-effect="non-scaling-stroke" class="st37" d="M428.8,887.2c0.3-0.5,0.3-0.8,0-1c-8.6-5.4-16.8-11.2-24.6-17.6
		c-5.5-4.4-10.7-10.1-15.9-15.2c-1.9-1.8-4.4-3.1-6.4-5c-6.7-6.6-13.6-12.9-19.2-20.6c-6.7-9.3-13-17.5-20.3-28.6
		c-0.1-0.2-0.4-0.3-0.7-0.3"/>
	<path vector-effect="non-scaling-stroke" class="st38" d="M1066.2,716.2c0.3,0,0.5,0.2,0.5,0.5c0,0.1,0,0.3-0.2,0.5
		c-8.6,14.7-18,26.8-29.5,40.8c-1.9,2.3-4.1,4.6-5.8,7c-2.1,3-4.8,5.1-7,7.9c-1.8,2.3-3.3,3.9-4.3,5c-9.6,9.6-19,19.6-29.3,28.5
		c-2.6,2.2-5,4.6-7.4,7.1c-1.4,1.5-3.3,2.8-5,4.3c-0.4,0.4-0.9,0.2-1.3-0.4"/>
	<path vector-effect="non-scaling-stroke" class="st39" d="M383.4,739.2c-7,3.5-13.2,8-18.7,13.5c-0.2,0.2-0.5,0.3-0.8,0.3l-0.4,0"
		/>
	<path vector-effect="non-scaling-stroke" class="st40" d="M363.5,753.1c-0.3,0-0.6-0.2-0.9-0.4c-22.1-18.7-42-39.6-59.7-62.5
		c0-0.1-0.3-0.4-0.8-1.2c-0.8-1.2-1.6-1.7-2.4-1.5"/>
	<path vector-effect="non-scaling-stroke" class="st41" d="M306,518.3c-3.1,13.2-5.6,26.2-7.5,38.9c-6.5,42.9-6.2,85.7,1,128.5
		c0.1,0.4,0,0.7-0.3,0.8"/>
	<path vector-effect="non-scaling-stroke" class="st42" d="M990.5,842.9c0.6,0.4,0.6,1-0.1,1.8c-29.6,41-66.8,77.2-110,103.7
		c-1.3,0.8-3.8,1.7-5.4,1.8c-58.3,5-115.3-2.2-171.1-19.9c-5.4-1.7-9.8-3.3-15.4-2.2c-47.5,9.2-94.7,10.2-141.5,3.1
		c-1.7-0.3-3.6-1.2-5-2.2c-24.7-18.8-47-40.3-66.9-64.3"/>
	<path vector-effect="non-scaling-stroke" class="st43" d="M306.2,511.5c-0.3,0.1-0.5,0.1-0.7,0.1c-0.3,0-0.5-0.2-0.6-0.5
		c-15.3-57.7-19.7-117.8-10.3-176.9c0.1-0.7-0.1-0.9-0.7-0.8"/>
	<path vector-effect="non-scaling-stroke" class="st6" d="M1150.2,329.5c-0.3-0.2-0.7-0.2-1.2-0.2"/>
	<path vector-effect="non-scaling-stroke" class="st6" d="M1126.7,770.3c0,0.1-0.2,0.1-0.5,0"/>
	<path vector-effect="non-scaling-stroke" class="st40" d="M1126.2,770.2c-4.1-13.1-11.1-24.5-21-34.2c0,0-0.2-0.1-0.5-0.2
		c-0.1,0-0.2-0.1-0.2-0.3"/>
	<path vector-effect="non-scaling-stroke" class="st42" d="M1104.5,735.6c0.1,0.1,0.3,0.1,0.4,0.1c0.1,0,0.2-0.1,0.4-0.2
		c14.9-14.4,28.6-29.8,41.1-46.4c1.5-2,2.4-4.1,2.6-6.4c6.6-54.4,1.6-108.8-12.1-161.7c-0.2-0.8-0.4-2.1-0.7-3.7
		c-0.2-1.2-0.4-2.4-0.8-3.7"/>
	<path vector-effect="non-scaling-stroke" class="st41" d="M1126.2,770.2c-0.1,0.7-0.2,1.4-0.5,2c-11.2,25.1-24.3,48.2-41.4,69.8
		c-6.3,7.9-10.8,13.1-13.7,15.6c-5.2,4.5-10.3,9.2-15.3,14.2"/>
	<path vector-effect="non-scaling-stroke" class="st40" d="M1055.3,871.8c-3,0.3-5,0.4-6.1,0.2c-22.9-2.3-42.8-10.6-57.9-28.4"/>
	<path vector-effect="non-scaling-stroke" class="st44" d="M363.5,753.1c0.2,0,0.3,0.1,0.3,0.2c0.1,0.1,0.1,0.2,0,0.3
		c-0.1,0.2-0.1,0.3-0.2,0.3"/>
	<path vector-effect="non-scaling-stroke" class="st36" d="M363.5,753.9c-10.6,11.1-17.4,24.1-20.4,38.8c-0.4,2.1-0.8,3.6-1.1,4.5
		c-0.1,0.2-0.1,0.3-0.2,0.4c-0.2,0.2-0.4,0.3-0.5,0.1"/>
	<path vector-effect="non-scaling-stroke" class="st6" d="M1056.1,872.3l-0.8-0.5"/>
	<path vector-effect="non-scaling-stroke" class="st45" d="M727.6,1015.2l-30.5,28.3c-0.4,0.4-1.1,0.6-1.7,0.4l-20.5-5.7"/>
	<path vector-effect="non-scaling-stroke" class="st45" d="M706.3,1049c-7.7-0.2-13.4-0.2-17.3-0.1c-2.3,0.1-4.4,0.3-6.5,0.8"/>
	<path vector-effect="non-scaling-stroke" class="st45" d="M739.7,1113.7c-0.2,4.2,0.2,8.8-0.4,13c-0.8,6.3-7.7,12.6-12.3,16.6
		c-3.6,3.1-7.4,4.7-11.5,4.7c-7.9,0-15.7,0-23.6,0c-7.4,0-12.2-1-17.4-5.7c-5.6-5-11.3-11.1-11.4-18.5c0-6-0.1-12-0.2-18.1"/>
	<path vector-effect="non-scaling-stroke" class="st45" d="M176.4,1074.5c0.2,0.6,0,0.9-0.4,1c-6,1.8-12,3.6-18.1,5.1
		c-0.6,0.1-0.9-0.1-1.1-0.6c-1.2-3.2-6.1-12-10-11.9c-5.4,0.1-10.8,0-16.2,0c-1.8,0-3.3,0.2-4.4,0.8c-5.6,3.1-5.3,7.6-4.9,13.1"/>
	<path vector-effect="non-scaling-stroke" class="st45" d="M176.1,1114.5c-0.1,6.5,0.7,13.5-3.5,19c-4.3,5.7-12.5,14.4-20.4,14.5
		c-8,0-15.9,0-23.9,0c-4,0-7.1-0.4-9.3-1.2c-9.4-3.3-16.5-12.8-19.9-22"/>
	<path vector-effect="non-scaling-stroke" class="st45" d="M152.7,1126.2c4.2-3.2,3.1-7.1,3.1-11.7c0-0.9-0.6-1.6-1.4-1.8
		c-11.8-3.1-23.5-6.2-35.2-9.4c-5.6-1.5-9.4-3.1-11.4-4.7c-8.1-6.3-7.6-17.7-6.9-27.4"/>
	<path vector-effect="non-scaling-stroke" class="st45" d="M270,1118.3c-0.1,4.4-0.1,10.5-2.6,14c-4.5,6.2-13.1,15.7-21.6,15.7
		c-7.7,0-15.4,0-23.2,0c-4.6,0-7.9-0.3-10-1c-6.6-2.1-12.2-8.3-16.2-13.8c-2-2.8-3-5.9-3.1-9.4c-0.1-6.3-0.2-12.7-0.4-19.1"/>
	<path vector-effect="non-scaling-stroke" class="st45" d="M361.8,1074.2l0.1,0.7c0.1,0.3-0.1,0.6-0.4,0.7l-18.2,5.1
		c-0.5,0.1-1-0.1-1.2-0.6c-1.7-4.9-5.5-11.9-11.6-11.9c-4.1,0-14.3-1.1-17.5,1.1c-2.1,1.4-5.3,4.4-5.3,7.3
		c-0.2,14.2-0.2,28.5-0.1,42.9"/>
	<path vector-effect="non-scaling-stroke" class="st45" d="M360,1126.5c-4.2,9.2-13.3,21.4-24.8,21.5c-7.2,0.1-14.4,0-21.6,0
		c-3.8,0-7.8-0.8-10.7-2.6c-5.5-3.3-14.9-12.1-15.1-19.3c-0.3-15.8-0.4-34.5-0.2-56"/>
	<path vector-effect="non-scaling-stroke" class="st45" d="M597,1075.4l-19,5.3c-0.3,0.1-0.6-0.1-0.7-0.4
		c-2.1-5.2-5.6-12.2-12.2-12.2c-4.2,0-8.4,0-12.6,0c-4.1,0-6.7,1.8-8.6,5.1c-0.9,1.5-1.3,3.5-1.3,6.2c0.1,13.5,0,27.2-0.1,41"/>
	<path vector-effect="non-scaling-stroke" class="st45" d="M595.7,1124.7c-3.3,8.2-8.2,15.3-15.7,20c-3.5,2.2-6.6,3.3-9.5,3.3
		c-7.4,0-14.8,0-22.2-0.1c-9.8-0.1-16.4-6.3-22.3-13.9c-2.3-3-3.5-6.2-3.4-9.5c0.1-9.7,0-19.5-0.2-29.3"/>
	<path vector-effect="non-scaling-stroke" class="st45" d="M84.3,1133.1l0.2,13.6c0,0.3-0.2,0.5-0.5,0.5c-6.7,0.4-13.2,0.1-19.8,0
		c-1.1,0-1.6-0.6-1.5-1.7c0.7-5.5-0.1-10.8-2.3-15.9c-0.2-0.5-0.8-0.9-1.4-0.9H28.8c-0.2,0-0.5,0.1-0.6,0.4
		c-2.4,5.7-3.2,11.6-2.5,17.8c0,0.3-0.2,0.5-0.4,0.5c0,0,0,0,0,0c-6.5,0.6-13,0.5-19.5-0.3c-0.9-0.1-1.3-0.6-1.3-1.5l0.4-14.7"/>
	<path vector-effect="non-scaling-stroke" class="st45" d="M416.6,1058.9l-0.2,9.6c0,0.3-0.2,0.5-0.5,0.5l-11.2,0.2
		c-0.4,0-0.6,0.2-0.6,0.6l-0.1,13"/>
	<path vector-effect="non-scaling-stroke" class="st45" d="M416.5,1146.4c0,0.6-0.1,0.8-0.4,0.8c-0.1,0-0.2,0-0.2,0
		c-5.6,0.7-12.6,0-16.5,0c-9.5,0-18.7,0.3-28.2-0.4c-0.4,0-0.6-0.2-0.6-0.6l-0.2-2"/>
	<path vector-effect="non-scaling-stroke" class="st45" d="M382.9,1084.6l0.1-14.9c0-0.3-0.3-0.6-0.6-0.6c0,0,0,0,0,0l-11.2,0
		c-0.3,0-0.6-0.3-0.6-0.6l0,0l-0.1-14.3"/>
	<path vector-effect="non-scaling-stroke" class="st45" d="M506.5,1135.9v10.8c0,0.3-0.2,0.5-0.5,0.5l-20.7-0.1
		c-0.4,0-0.6-0.2-0.5-0.6c0-3.9,0.4-7.5-0.7-11.3c-0.5-1.7-1-3.4-1.5-5.1c-0.2-0.8-1-1.3-1.8-1.3H451c-0.4,0-0.7,0.2-0.9,0.6
		c-0.7,1.9-1.3,3.8-1.8,5.8c-0.9,3.6-0.5,7.7-0.8,11.6c0,0.4-0.2,0.6-0.6,0.6l-19.9-0.1c-0.9,0-1.3-0.4-1.3-1.3l0.1-10.6"/>
	<path vector-effect="non-scaling-stroke" class="st45" d="M651.3,1130.5l0,16.1c0,0.4-0.3,0.7-0.7,0.7c0,0,0,0,0,0
		c-12.2-0.3-24.3-0.3-36.4,0c-2.5,0.1-5.2-0.4-7.7-0.4c-0.5,0-1-0.5-1-1l0.1-14.8"/>
	<path vector-effect="non-scaling-stroke" class="st45" d="M618.2,1121.1l0-51.1c0-0.5-0.4-0.9-0.9-0.9l-10.5,0
		c-0.7,0-1.1-0.4-1.1-1.1l-0.1-13.4"/>
	<path vector-effect="non-scaling-stroke" class="st45" d="M829.8,1147.5l-19.9-0.6c-0.6,0-1.1-0.3-1.4-0.9l-29.9-54
		c-0.6-1-0.8-1-0.8,0.2l0.3,18.4"/>
	<path vector-effect="non-scaling-stroke" class="st45" d="M778,1130.2l0,16c0,0.7-0.4,1.1-1.1,1.1l-18.1-0.2
		c-0.5,0-0.8-0.4-0.8-0.8l0-93.3"/>
	<path vector-effect="non-scaling-stroke" class="st45" d="M944.8,1089.9c-0.3,11.3-0.5,22.5-0.7,33.8c-0.1,7.6-5.3,13.5-11,18.6
		c-4.1,3.7-8.7,5.6-13.9,5.7c-6.2,0.2-14,0.8-19.5-1.6c-9.1-4-16.2-13.5-19.4-22.4"/>
	<path vector-effect="non-scaling-stroke" class="st45" d="M921.7,1126c0.2,0,0.3-0.1,0.3-0.3"/>
	<path vector-effect="non-scaling-stroke" class="st45" d="M923,1124.6c0.8-0.8,1.3-1.8,1.3-2.8c-0.1-17.4-0.2-34.6-0.3-51.7
		c0-0.7-0.3-1-1-1l-24,0.1c-0.3,0-0.5-0.2-0.5-0.5l-0.1-1.9"/>
	<path vector-effect="non-scaling-stroke" class="st45" d="M983.3,1092.7l-0.2,23.2"/>
	<path vector-effect="non-scaling-stroke" class="st45" d="M983.1,1118.3c-0.3,1.1-0.2,2.4,0.1,3.8"/>
	<path vector-effect="non-scaling-stroke" class="st45" d="M1014.2,1123.1c0.3-0.5,0.5-1,0.5-1.4c0.3-8.1,0.3-16.3-0.1-24.5"/>
	<path vector-effect="non-scaling-stroke" class="st45" d="M1035.2,1063.2c0.1,20.4,0,40.8-0.3,61.2c-0.1,10-14,23.6-24.5,23.6
		c-7.6,0-15.2-0.1-22.7-0.2c-9.8-0.1-17.2-7.8-22.4-15.3c-3.2-4.6-3-12.9-2.9-18.3"/>
	<path vector-effect="non-scaling-stroke" class="st45" d="M1129.5,1055.1c0.1,7-0.6,12.5-2,16.7c-8.4,24.8-17,49.6-25.6,74.3
		c-0.2,0.6-0.8,1-1.5,1l-19.9-0.2c-0.5,0-0.9-0.3-1.2-0.7c-0.4-0.6-0.8-1.5-1.1-2.5c-8-23.1-16-46.2-24-69.2
		c-2.1-6-2.5-11.8-3.1-18.1"/>
	<path vector-effect="non-scaling-stroke" class="st45" d="M1211.3,1055l-0.2,13.2c0,0.4-0.3,0.7-0.7,0.7l-43-0.1
		c-0.3,0-0.4,0.1-0.4,0.4l0,16.6"/>
	<path vector-effect="non-scaling-stroke" class="st45" d="M1209.7,1105.8l-0.1,1.6c0,0.4-0.3,0.7-0.7,0.7l-41.4-0.1
		c-0.4,0-0.5,0.2-0.5,0.5l0,13.3"/>
	<path vector-effect="non-scaling-stroke" class="st45" d="M1211.3,1134v12.8c0,0.4-0.2,0.5-0.5,0.5l-63.5-0.3
		c-0.3,0-0.5-0.2-0.5-0.5c-0.4-3.2,0-7.1,0-9.4c0-14.5,0.1-29,0.4-43.4c0.2-13.1-0.2-26.1-0.4-39.2"/>
	<path vector-effect="non-scaling-stroke" class="st45" d="M1300.7,1074l0,36.8"/>
	<path vector-effect="non-scaling-stroke" class="st45" d="M1301.1,1146.9c-1.6,0.9-3.9,1.2-6.8,0.9c-4.2-0.5-8.4-0.8-12.6-0.8
		c-1,0-1.9-0.6-2.4-1.4l-29.7-53.8c-0.2-0.3-0.4-0.4-0.7-0.1c-0.1,0.2-0.1,0.5,0,0.9c0.9,4,0.1,8.7,0.2,11.6
		c0.1,10.7,0,21.4-0.2,32.1c-0.1,2.9,0.3,7,0.1,10.5c0,0.5-0.3,0.7-0.8,0.7l-19.1-0.2c-0.2,0-0.3-0.1-0.3-0.3c0-0.4-0.1-0.7-0.2-1"
		/>
	<path vector-effect="non-scaling-stroke" class="st45" d="M1228.4,1145.3l0.3-90.9"/>
	<path vector-effect="non-scaling-stroke" class="st45" d="M1358.6,1146.9c-0.1,0.4-0.3,0.7-0.6,0.7c-14.4,0.1-28.9,0.2-43.3,0.2"/>
	<path vector-effect="non-scaling-stroke" class="st45" d="M1324.6,1081.3l0.2-11.6c0-0.3-0.2-0.5-0.5-0.6l-11.8-0.2"/>
	<path vector-effect="non-scaling-stroke" class="st45" d="M1432.8,1147.9l-62.5-0.4c-0.3,0-0.5-0.2-0.6-0.5c0-0.2-0.1-0.4-0.2-0.6"
		/>
	<path vector-effect="non-scaling-stroke" class="st45" d="M1369.7,1143.2l0-67"/>
	<path vector-effect="non-scaling-stroke" class="st45" d="M828.1,1194.6c0.1,1.3-1.4,2.4-4.3,3.2c-4.8,1.3-9.5,2.6-14.1,3.9
		c-0.6,0.2-1.2-0.1-1.4-0.7c-1.7-4-3.9-8.6-7.6-10.8c-1.2-0.7-2.9-1.1-4.9-1c-3.9,0.1-7.8,0.1-11.8,0c-4-0.1-6.6,1.9-8.7,5
		c-0.8,1.2-1.2,2.6-1.2,4.4c0,13.5,0,26.9,0,40.4"/>
	<path vector-effect="non-scaling-stroke" class="st45" d="M827.7,1243.9c-2.6,5.8-4.4,10.2-9.1,15.7c-3.8,4.4-10.7,9.4-16.8,9.5
		c-6.6,0.1-13.2,0.1-19.8,0c-3.9,0-6.9-0.3-8.8-0.9c-6.4-2.1-11.8-7.7-15.8-12.8c-2.7-3.4-3.6-6.7-3.6-10.8c0-5.4-0.1-10.9-0.3-16.4
		"/>
	<path vector-effect="non-scaling-stroke" class="st45" d="M1190,1236.1c-0.1,6.8,0.7,12.9-3.7,18.7c-3.6,4.7-8.9,10.9-15.3,13.2
		c-2.1,0.7-5.5,1.1-10.1,1.2c-7.1,0-14.3,0-21.4-0.1c-3.6,0-7.8-0.7-10.5-2.6c-8.1-5.4-13.3-11.8-15.6-19.4"/>
	<path vector-effect="non-scaling-stroke" class="st45" d="M1282.4,1197.2l-16.2,4.5c-0.5,0.1-1-0.1-1.2-0.6
		c-1.3-3-6.3-12.2-10.2-12.1c-5.3,0.1-10.6,0.2-15.9,0.1c-2.1,0-3.7,0.3-5,1.1c-4.3,2.5-5.2,5.8-4.7,10.9"/>
	<path vector-effect="non-scaling-stroke" class="st45" d="M1229.1,1202c-0.2,0.3-0.1,0.7,0.2,1"/>
	<path vector-effect="non-scaling-stroke" class="st45" d="M1284.1,1231.9c0.1,5.8,0.8,15.9-2,20.6c-3.4,5.7-13.4,16.4-20.8,16.4
		c-9,0.1-17.9,0.1-26.9,0.1c-5.4,0-10.5-2-15.1-5.9c-7.2-6.1-9.4-11.7-13-19.3"/>
	<path vector-effect="non-scaling-stroke" class="st45" d="M1262.5,1245.6c0.8-0.6,1.2-1.4,1.2-2.3c0-2.7,0-5.2,0.1-7.4
		c0-1.1-0.5-1.8-1.6-2.1c-12.2-3.2-24.2-6.4-35.9-9.6c-4.6-1.2-7.8-2.5-9.7-3.8c-9.4-6.7-7.6-17.9-7.7-27.9"/>
	<path vector-effect="non-scaling-stroke" class="st45" d="M697.9,1194.4c0.5,1.3,0.4,2.1-0.4,2.3c-6.1,1.8-12.1,3.5-18.1,5
		c-0.3,0.1-0.6-0.1-0.7-0.4c-1.5-4.1-4.2-8.6-7.9-11.1c-1.2-0.8-2.8-1.2-4.9-1.2c-4.5,0.1-9,0.1-13.5,0.1c-3.7,0-6,1.4-8.1,4.2
		c-2.1,2.8-1.4,6.9-1.4,10.5"/>
	<path vector-effect="non-scaling-stroke" class="st45" d="M698,1240.8c-0.1,5.5-0.4,9.9-3.9,14.5c-4.9,6.3-12.2,13.5-20.6,13.8
		c-3.5,0.1-11.8,0.2-25,0.2c-10,0-18.7-7.4-23.8-15.8c-1.4-2.4-2.8-5.2-4.2-8.6"/>
	<path vector-effect="non-scaling-stroke" class="st45" d="M677.2,1244.4l0.3-9c0-0.7-0.5-1.4-1.2-1.6c-12.7-3.3-25.3-7.1-38-10.1
		c-9.6-2.3-14.8-8.7-15.7-19.1"/>
	<path vector-effect="non-scaling-stroke" class="st45" d="M225.8,1233c-0.3,2.6-0.2,4.7,0.3,6.3"/>
	<path vector-effect="non-scaling-stroke" class="st45" d="M225.6,1244.7c-0.9,6.7-3.4,10.6-8.1,15c-4.7,4.4-9.7,8.2-15.8,8.5
		c-10.3,0.6-25.2,0.8-44.7,0.8"/>
	<path vector-effect="non-scaling-stroke" class="st45" d="M153.5,1262.6c0.1,0,0.2-0.1,0.3-0.1c0.1,0,0.1-0.1,0.1-0.2l-0.2-69.9"/>
	<path vector-effect="non-scaling-stroke" class="st45" d="M308.5,1178.1l-0.3,11.1c0,0.4-0.2,0.6-0.6,0.6
		c-13.3,1-27.6,0.2-42.8,0.2c-0.7,0-1,0.3-1,1l0.1,15.2"/>
	<path vector-effect="non-scaling-stroke" class="st45" d="M306.8,1228.7c0,0.1,0,0.2-0.1,0.3c0,0.1-0.1,0.2-0.3,0.2l-42.1-0.3
		c-0.4,0-0.6,0.2-0.6,0.6l0.1,13.4"/>
	<path vector-effect="non-scaling-stroke" class="st45" d="M309,1268.2c-2.1,0.7-4.4,1-6.7,0.9c-17-0.4-34-0.4-51.1-0.1
		c-2.3,0-4.5-0.3-6.8-0.6c-0.4-0.1-0.7-0.3-0.7-0.8l-0.1-94.5"/>
	<path vector-effect="non-scaling-stroke" class="st45" d="M435.5,1190c-0.1,0.1-0.1,0.1-0.1,0.2c0,0.1-0.1,0.1-0.1,0.1l-25.7-0.2
		c-0.3,0-0.5,0.2-0.5,0.5l0,32.2"/>
	<path vector-effect="non-scaling-stroke" class="st45" d="M393.9,1269.4l-5.2-0.5c-0.4,0-0.6-0.3-0.6-0.7l0-77
		c0-0.7-0.6-1.3-1.3-1.3c0,0,0,0,0,0l-24.3,0.3c-0.3,0-0.5-0.2-0.5-0.5l0-12.8"/>
	<path vector-effect="non-scaling-stroke" class="st45" d="M522.1,1192.9c0,5.2,0,10.3-0.1,15.4c-0.2,8.6-6.6,16.4-13.8,20.4
		c-0.3,0.2-0.3,0.4-0.2,0.6l4,6.2"/>
	<path vector-effect="non-scaling-stroke" class="st45" d="M522.4,1267.9c0.2,0.5,0,0.7-0.5,0.7c-8.2,0.1-14.9,0-20.2-0.2
		c-0.3,0-0.5-0.2-0.5-0.5l0-10.3c0-0.9-0.2-1.7-0.7-2.5l-14.6-23.1c-0.4-0.7-1.1-1.1-1.9-1l-12.6,0.1c-0.8,0-1.1,0.4-1.1,1.2
		l0.1,33.9"/>
	<path vector-effect="non-scaling-stroke" class="st45" d="M604.6,1176.4l-0.1,12.9c0,0.3-0.2,0.5-0.5,0.5
		c-14.3,0.7-28.7,0.1-43.1,0.2c-0.2,0-0.4,0.1-0.3,0.3l0,13.5"/>
	<path vector-effect="non-scaling-stroke" class="st45" d="M603,1212.1l-0.1,16.1c0,0.5-0.4,0.8-0.8,0.8l-40.9-0.1
		c-0.4,0-0.7,0.3-0.7,0.7c0,0,0,0,0,0l0,12.7"/>
	<path vector-effect="non-scaling-stroke" class="st45" d="M604.5,1257.2l-0.1,10.9c0,0.3-0.2,0.5-0.5,0.5c-3.2,0.2-5.6,0.4-6.9,0.4
		c-17.3-0.1-34.7-0.2-52-0.3c-1.5,0-3,0-4.5,0c-0.3,0-0.5-0.2-0.5-0.5l0-3.9"/>
	<path vector-effect="non-scaling-stroke" class="st45" d="M540,1260.8l0-65.1"/>
	<path vector-effect="non-scaling-stroke" class="st45" d="M920.8,1267.7l0.1,0.5c0.1,0.5-0.1,0.7-0.6,0.7l-20.7-0.2
		c-0.3,0-0.6-0.3-0.6-0.6c0-2.2,0-4.5,0-6.7c0-3.7-1.3-6.8-2.2-10.3c-0.2-0.7-0.8-1.2-1.5-1.2h-30.1c-0.4,0-0.7,0.2-0.8,0.6
		l-2.3,8.1"/>
	<path vector-effect="non-scaling-stroke" class="st45" d="M861.8,1267.5c0.2,0.3,0.2,0.5,0.2,0.6c-0.1,0.4-0.5,0.7-0.8,0.7
		l-20.2-0.3c-0.5,0-0.8-0.3-0.8-0.8l-0.3-9.8"/>
	<path vector-effect="non-scaling-stroke" class="st45" d="M1009.5,1269.1l-19.9-0.8c-0.7,0-1.2-0.3-1.5-0.9l-30-54.5
		c-0.1-0.1-0.2-0.2-0.3-0.1c-0.1,0-0.1,0.1-0.1,0.2l-0.1,55.3c0,0.4-0.2,0.7-0.7,0.7l-19.3,0c-0.4,0-0.6-0.2-0.6-0.6l0.2-52.6"/>
	<path vector-effect="non-scaling-stroke" class="st45" d="M1098.5,1174.9l-0.1,14.3c0,0.3-0.2,0.5-0.5,0.5
		c-6.8,0.7-13.5,0.8-20.2,0.3c-0.9-0.1-2.5,0-4.8,0.3c-0.3,0-0.5,0.2-0.5,0.5c-0.5,4.4-0.5,8.9,0,13.5"/>
	<path vector-effect="non-scaling-stroke" class="st45" d="M1051,1203.3l0.1-11.7c0-1.1-0.5-1.6-1.6-1.6l-24.8,0.3"/>
	<path vector-effect="non-scaling-stroke" class="st46" d="M521.6,495.2c-1.3,2.5-1.3,4.9,0,7.3c0.2,0.3,0.4,0.5,0.8,0.6
		c3.5,0.5,6.8-0.1,10.6,0.8c3.1,0.7,5.3,1.1,6.6,1.2c2,0.1,4.1,0.1,6.1,0c5.7-0.3,11.1,0.2,16.8-0.2c3.5-0.2,6.6,1.4,10,0.1
		c1.3-0.5,3.6-1.6,7.1-3.5c0.3-0.2,0.5-0.4,0.6-0.7c0.7-1.7,0.6-3.5,1.1-5.5c0.2-0.8,0.3-1.5,0.3-2.2c0.2-5.2-0.6-12.1,1.1-16.8
		c0.7-1.8,1.4-3.6,2.2-5.4c0.1-0.3,0.2-0.5,0.1-0.8c-0.1-1.1,0.1-2.2,0.6-3.2c0.1-0.3,0.2-0.5,0.2-0.9c-0.6-4.8,4.1-6.4,8.1-6.2
		c3.4,0.2,6.8-0.2,10-1.3c1.4-0.5,2.9-0.5,4.3-1.1c1.5-0.7,2.5-1,3-1.1c1-0.1,2.3-0.1,4,0c1,0,2.5-0.5,3.7-0.6
		c3.7-0.1,7.5-0.3,11.2-0.4c1.3,0,2.6,0.6,4,0.3c1.6-0.3,2.5-0.4,2.8-0.4c3.5,0.2,7.1,1.7,10.1,2.1c4.3,0.6,8.7,0.9,13,1
		c0.2,0,0.4,0.1,0.5,0.2c0.8,0.6,1.6,1.1,2.5,1.4c0.3,0.1,0.5,0.4,0.6,0.7c0.3,1.2,0.7,2.4,1.2,3.4c0.5,1,0.8,2.1,1,3.3
		c0.6,3,2.6,5,2.5,8.2c0,0.1,0,0.2,0,0.2c0.1,0.1,0.1,0.2,0.2,0.2c0.2,0.1,0.2,0.2,0.3,0.4c0.1,1.6,0.5,3,1.1,4.5
		c0.6,1.5,1,2.8,1,3.9c0.2,3.8,1,7,0.7,10.4c0,0.4-0.2,0.7-0.4,0.9l-0.8,0.8c-0.3,0.3-0.4,0.6-0.4,1l0.5,4.7
		c0.1,0.9,0.8,1.6,1.7,1.6c0.7,0,1.4,0.2,1.9,0.6c0.3,0.2,0.5,0.2,0.8,0.3c6.9,0.3,11.6,0.2,13.9-0.3c2.4-0.5,4.4-0.3,6,0.5
		c0.3,0.1,0.6,0.2,0.9,0.2c3.3-0.2,6.5-0.3,9.8-0.5c0.8-0.1,1.5-0.3,2-0.6c0.1-0.1,0.3-0.1,0.4-0.1c0.1,0,0.2,0,0.3,0
		c0.1,0,0.2,0.1,0.1,0.2c-0.1,0.1-0.2,0.2-0.3,0.2c-0.7,0-0.7,0.1,0,0.2c0.2,0,0.4,0,0.6-0.1c0.2-0.1,0.4-0.2,0.6-0.2
		c4.8-0.7,9.6-0.8,14.4-0.3c1,0.1,3,1,4.3,0.2c0.3-0.2,0.5-0.5,0.6-0.8c0.5-2.5,0.2-4.9-0.9-7.1c-0.1-0.3-0.2-0.6-0.2-0.9
		c0.2-3.1,0.2-6.2,0-9.3c-0.1-1.2-0.6-2.4-0.7-3.5c-0.2-4.4-0.5-8.7-0.9-13.1"/>
	<path vector-effect="non-scaling-stroke" class="st47" d="M726.1,469.5c-0.2-1.4-0.4-2.8-0.4-4.2c-0.5-8.3-4.9-17.5-7.3-24.4
		c-21.4-62-42.8-124.1-64.2-186.1c-0.5-1.6-1.1-3.1-1.6-4.4c-0.1-0.4-0.4-0.6-0.8-0.6l-54.2,0.1c-0.6,0-1.1,0.4-1.3,0.9
		c-0.8,1.9-1.6,3.8-2.2,5.8c-21.2,61.2-42.3,122.3-63.5,183.5c-3,8.8-7.3,17.5-7.9,26.8c-0.6,8.2-0.9,17.7-0.9,28.5"/>
	<path vector-effect="non-scaling-stroke" class="st48" d="M726.1,469.5l0.1,26.6c0,0.5-0.4,1-0.9,1c-7.9,1-15.1,0-22.8-0.2
		c-10.1-0.3-19.9-0.4-29.6-0.5c-0.7,0-1-0.4-1-1c0.2-10.4,1.5-21.1-1.9-31c-1.7-4.9-3.4-9.7-5.1-14.4c-0.1-0.4-0.5-0.6-0.9-0.6
		c-18.3,0.1-35.9,1.6-54.6,0.5c-8.2-0.5-16.5-0.4-24.7-0.7c-0.6,0-1.1,0.3-1.3,0.9c-2.2,6.2-4.2,12.5-6,18.7c-0.7,2.2-1,4.6-1,7
		c0,6.7,0,13.3,0,19.9c0,0.4-0.3,0.7-0.7,0.7l-53.7,1c-0.3,0-0.5-0.1-0.5-0.4l-0.1-1.7"/>
	<path vector-effect="non-scaling-stroke" class="st46" d="M781.1,293.5c0.1,2.7-0.3,4.8-1,6.3c-1.2,2.5-1.7,6.3,1.9,6.4
		c4.4,0.1,8.8,0.4,13.2,0.9c2.5,0.3,6.2-0.2,9.3,0c10,0.6,19.9,0.6,29.9,0c2.6-0.2,5.2,0.1,7.5-0.7c1.3-0.5,2.8,0.2,3.3,1.6
		c0.1,0.2,0.1,0.4,0.1,0.6l0.4,4.9"/>
	<path vector-effect="non-scaling-stroke" class="st47" d="M845.8,313.5c-0.2,40.5-0.1,81,0.5,121.5c0.1,5.1-8.7,11.7-13,14.3
		c-1,0.7-2.6,1-4.7,1c-8.2,0.1-16.4,0.1-24.3,0c-0.8,0-1.5-0.3-2.1-0.9c-8.8-8.2-15.6-17.9-20.3-29c-0.3-0.7-1-1.1-1.8-0.9
		l-46.2,11.9c-0.7,0.2-1,0.8-0.9,1.5c0,0.1,0,0.1,0.1,0.2l0.8,1.8"/>
	<path vector-effect="non-scaling-stroke" class="st46" d="M734,434.9c-2.6,0.6-3.2,3.2-1.8,7.8c0.1,0.3,0.4,0.8,0.9,1.3
		c0.2,0.2,0.4,0.5,0.5,0.8c0.5,1.6,1.1,3.1,1.9,4.5c0.8,1.4,1.4,2.8,1.9,4.2c0.6,1.9,1.5,3.7,2.7,5.4c0.2,0.3,0.3,0.6,0.3,0.9
		c0.3,2.5,2,3.6,2.5,6c0.1,0.3,0.2,0.6,0.5,0.8c0.7,0.6,1.2,1.3,1.5,2.1c0.8,1.9,1.6,2.4,3.2,3.4c0.3,0.2,0.5,0.4,0.6,0.6
		c0.7,1.4,2.3,2.2,2.7,3.5c0.1,0.3,0.3,0.6,0.5,0.8c1.7,1.6,2.9,3.7,4.3,5.2c3.7,3.9,5.4,7.9,9.8,10.7c0.8,0.5,1.9,1.4,3.4,2.6
		c2.2,1.8,5.5,3.6,9.9,5.3"/>
	<path vector-effect="non-scaling-stroke" class="st47" d="M779.4,500.7c-8.9,2.5-16.1,6.1-21.5,10.6c-6.4,5.4-12.9,11.8-19.4,19.1
		c-7,7.9-11.1,14.8-11.9,24.7c-0.7,9.3-0.9,20-0.9,30.7c0.1,30.4,0.2,60.7,0.3,91.1c0,3.9,0.1,7.7,0.2,11.5"/>
	<path vector-effect="non-scaling-stroke" class="st46" d="M726.3,688.5c0.2,3.6-1.2,6.9-1.2,10c0.1,2.2,0.3,4.3,0.7,6.4
		c0,0,0,0.1,0.1,0.1c0,0,0.1,0.1,0.1,0.1c0.1,0.1,0.2,0.1,0.2,0.2c0.3,1.3,0.6,2.6,1.1,3.9c0.2,0.8,0,1.4,0.6,2.2
		c2.4,3.4,3.5,7.6,6.2,10.8c0.9,1,1.1,2.2,2.1,3.2c1,1,1.6,1.6,1.6,1.6c2,2.4,4.1,4.7,6.2,7.1c1.5,1.7,3.1,3.2,4.9,4.7
		c1.8,1.4,3.5,2.9,5.3,4.3c0.2,0.2,0.4,0.4,0.5,0.7c0.1,0.4,0.3,0.6,0.6,0.7c0.2,0.1,0.4,0.2,0.5,0.3c0.8,0.8,1.7,1.5,2.7,2.1
		c0.3,0.2,0.5,0.4,0.7,0.6c0.4,0.6,1,1,1.8,1.1c0.3,0.1,0.6,0.2,0.9,0.4c0.7,0.5,1.4,1,2.1,1.5c0.9,0.6,2.1,0.7,3,1.6
		c0.3,0.2,0.6,0.4,0.9,0.5c0.8,0.2,1.6,0.5,2.3,1c0.3,0.2,0.6,0.3,0.9,0.3c3,0,5.4,1.2,8.2,2.1c5.3,1.7,11.6,1.5,17.1,1.4
		c4.4-0.1,9.1-1.4,13.8-1.6c0.1,0,0.2,0,0.2-0.1l0.2-0.2c0.2-0.2,0.5-0.4,0.8-0.3c3.7,0,7.4,0,11.1,0c4,0,9.3,0.8,14.1,0.3
		c0.3,0,0.7-0.1,1.3-0.3c1.2-0.4,2.5,0.1,3.3,0c4.3-0.3,8.6,0.1,12.8-0.7c2.3-0.4,5.1-0.6,7.2-1.6c1.9-0.9,3.6-1.2,5.8-2.6
		c1.3-0.8,3-0.8,4-1.3c2.7-1.5,5.6-3.2,8.7-5.2c0.1-0.1,0.2-0.1,0.2,0.1c0,0.1-0.1,0.3-0.3,0.4c-1.5,1.2-3,1.6-4.5,2.6
		c-2.5,1.8-5,3.1-7.5,3.9c-1.7,0.5-3,1.1-4,1.7c-0.2,0.1-0.5,0.2-0.8,0.3c-0.9,0.1-1.7,0.3-2.4,0.8c-0.2,0.1-0.5,0.2-0.8,0.2
		c-0.5,0-0.7,0-1.1,0.1c-2.4,0.9-4.4,1.6-7.2,1.6c-2.7,0-5.4,0.2-8,0.6c-0.1,0-0.1,0.1-0.2,0.1c0,0.1-0.1,0.2-0.1,0.2
		c0,0,0,0.1-0.1,0.1h-7.2c-0.3,0-0.5-0.1-0.7-0.2c-0.4-0.2-0.8-0.3-1.3-0.3c-0.6,0.1-0.6,0.2-0.1,0.4l1,0.4c0.3,0.1,0.6,0.2,0.9,0.2
		c4.9,0.3,11.1,0.2,18.4-0.5c2.3-0.2,4-0.4,5.2-0.7c0.3-0.1,0.6-0.2,0.9-0.3l15.7-7.6c0.3-0.1,0.5-0.3,0.6-0.6
		c0.5-0.8,1.1-1.3,1.9-1.4c0.4,0,0.7-0.2,0.9-0.4c1.5-1.3,2.9-2.6,4.4-3.9c0.1-0.1,1.5-1.3,4.3-3.6c4.2-3.6,6.8-8.6,10.4-12.2
		c0.2-0.2,0.4-0.5,0.4-0.8c0.1-0.6,0.4-1.1,0.8-1.5c1.2-1.4,2.3-2.8,3.3-4.3c1-1.4,1.2-3,2.2-4.5c0.2-0.3,0.3-0.6,0.2-0.9
		c-0.1-0.7,0-1.3,0.5-1.8c0.2-0.2,0.4-0.5,0.5-0.8l1.1-2.6c0-0.1,0.1-0.2,0.2-0.2c0.8-0.3,1.2-0.9,1.3-1.8c0-0.3,0.2-0.5,0.4-0.6
		c0.3-0.2,0.5-0.4,0.4-0.8c-0.1-0.3,0-0.6,0.2-0.9c0.9-1.2,1.8-3.8,2.6-4.3c0.2-0.1,0.4-0.3,0.5-0.5c1.3-2.7,3.9-6.9,2.2-9.8
		c-0.2-0.3-0.4-0.4-0.7-0.5l-2.1-0.4"/>
	<path vector-effect="non-scaling-stroke" class="st47" d="M912.5,688.7l1.8-4.5c0.2-0.5,0-1.2-0.6-1.4c0,0-0.1,0-0.1,0l-46.9-12.3
		c-0.7-0.2-1.4,0.2-1.6,0.8c-4.6,11.7-11.8,21.5-21.4,29.6c-0.5,0.4-1.1,0.7-1.8,0.7c-15.1,0.1-30.4,0.2-45.9,0.3
		c-1.6,0-2.8-0.3-3.9-0.9c-4-2.4-14.5-10.7-14.5-16.1c0.2-20.3,0.3-46,0.1-77.2"/>
	<path vector-effect="non-scaling-stroke" class="st46" d="M777.8,607.5l0.7-9.6c0-0.1,0-0.1,0,0c-0.1,0.4-0.1,0.8,0,1.2
		c0.1,0.3,0.2,0.3,0.3,0c0.3-0.7,0.2-1.3-0.1-1.8c-0.2-0.2-0.3-0.5-0.2-0.8c0.6-4.5,0.6-8.9-0.1-13.3c-0.6-3.8-0.9-6.4-0.9-7.8
		c0-2.6,0.3-5.2,0.8-7.8c0-0.2,0.2-0.4,0.5-0.3c0,0,0,0,0,0c0.8,0.2,1.4-0.1,1.8-0.8c0.2-0.3,0.4-0.5,0.8-0.6
		c0.4-0.1,0.6-0.3,0.6-0.7c0-0.4,0.2-0.7,0.5-1l4.5-4.4c0.1-0.1,0.2-0.1,0.3-0.1c0.1,0,0.2,0,0.3,0c0.1,0,0.3-0.1,0.4-0.2
		c1.1-1,2.3-2.1,3.5-3.1c1-0.9,1.8-0.9,3.2-0.9c12.3-0.1,23.3,0,33,0.2c1.4,0,3.6-0.1,6.5-0.4c2.3-0.3,6.6-0.5,8.2,1.1
		c0.2,0.2,0.5,0.4,0.8,0.4c1.1,0.2,2,0.6,2.7,1.4c1.3,1.5,2.8,2.6,4.5,3.4c1.3,0.6,2.7,2.5,4.2,5.6c0.8,1.8,2.6,4.3,5.2,7.4
		c1,1.1,1.5,2.6,1.6,4.2c0,0.2,0.1,0.4,0.2,0.5c0.8,1.3,1.3,2.8,1.6,4.3c0.1,0.3,0.2,0.6,0.4,0.8c3.4,3.9,7.9,0.8,11.8,0
		c3.4-0.7,6.7-1.6,9.9-2.8c1.5-0.6,3.3-0.7,4.9-1.2c1.6-0.5,2.8-0.9,3.6-1.1c1.4-0.3,2.8-0.6,4.2-1.1c0.3-0.1,0.6-0.2,0.8-0.5
		c1.1-1,2.5-0.4,3.7-1c2.2-1.2,4.9-1.3,7.3-1.6c0.3,0,0.6-0.1,0.9-0.3c0.3-0.2,0.9-0.5,1.7-0.7c4.7-1.5,5.6-4.3,2.7-8.4"/>
	<path vector-effect="non-scaling-stroke" class="st47" d="M915,565.7c-10.6-26.6-28.7-55.5-57.6-64.7"/>
	<path vector-effect="non-scaling-stroke" class="st46" d="M857.4,501c0.9-1.5,1.9-1.3,3-1.9c0.9-0.5,1.7-1,2.6-1.5
		c0.3-0.2,0.5-0.4,0.7-0.7c0.2-0.3,0.4-0.5,0.7-0.5c0.4,0,0.7-0.1,0.9-0.4c0.4-0.5,1-1.1,1.7-1.6c2.7-1.8,5.3-4,7.7-6.8
		c1.2-1.3,2.7-2.4,4-3.7c4.1-4.5,7.7-9.3,11.7-13.9c0.2-0.2,0.4-0.5,0.6-0.8l3.3-5.3c0.1-0.2,0.2-0.3,0.4-0.4
		c0.1-0.1,0.2-0.2,0.3-0.3c0.9-2.4,2.4-4.4,3.1-6.8c0.5-1.6,1.2-3.4,1.2-5c-0.1-2.3-1-4-2.8-5.3"/>
	<path vector-effect="non-scaling-stroke" class="st47" d="M896.3,446.2c2-8.9,1.7-21.3,1.7-31.8c0-51.4-0.1-102.8-0.2-154.2
		c0-3.4-0.2-6.8-0.7-10.1c0-0.2-0.2-0.4-0.4-0.3l-113.8,0c-0.2,0-0.4,0.2-0.5,0.4c-0.8,3.2-1.3,6.6-1.3,10
		c-0.1,11.1-0.1,22.2-0.2,33.3"/>
	<path vector-effect="non-scaling-stroke" class="st48" d="M896.3,446.2c-3.4,14.4-14.7,26.4-25.3,36.2c-5.8,5.4-11.2,9.3-16.2,11.6
		c-6.5,3.1-13.3,4.7-20.4,4.9c-7.4,0.3-18.2,0.2-32.5-0.1c-13.3-0.3-24.3-6.4-34.6-14.3c-3.9-3-7.5-6.4-10.8-10.1
		c-0.1-0.2-0.2-0.3-0.2-0.6c0-0.1,0-0.3,0-0.4c0-0.2-0.2-0.4-0.3-0.5c-0.7-0.6-1.2-1.3-1.7-2.1c-0.2-0.3-0.4-0.5-0.7-0.6
		c-0.3-0.1-0.5-0.3-0.6-0.6c-0.1-0.2-0.2-0.5-0.4-0.7c-2.3-2.5-4.4-5.2-6.2-8.1c-0.1-0.2-0.3-0.4-0.6-0.4c-0.2,0-0.2-0.2-0.2-0.3
		c0.1-0.3,0.1-0.5-0.1-0.8c-4.4-7.8-8.2-16-11.5-24.6"/>
	<path vector-effect="non-scaling-stroke" class="st48" d="M845.8,313.5l0.5-13.1c0-0.8-0.6-1.4-1.3-1.5c0,0,0,0-0.1,0l-63,0.1
		c-0.4,0-0.5-0.2-0.6-0.5l-0.3-5.1"/>
	<path vector-effect="non-scaling-stroke" class="st48" d="M857.4,501c-4.9-1.2-8.4-1.7-10.4-1.6c-3.8,0.2-9.5,0.2-17.2-0.1
		c-9.4-0.4-24.3,0.4-38.9,0.2c-4.1-0.1-7.9,0.3-11.5,1.2"/>
	<path vector-effect="non-scaling-stroke" class="st48" d="M915,565.7l-48.4,13.6c-0.4,0.1-0.9-0.1-1.1-0.5c-1.3-3-2.6-6-4.1-9
		c0-0.1-0.2-0.2-0.4-0.3c-0.3-0.2-0.4-0.4-0.6-0.6c-1.8-3.8-4-7.4-6.5-10.8c-0.4-0.6-0.9-0.8-1.3-1.3c-3.2-4.2-8-9.1-13.9-9
		c-14,0.3-28,0.3-42,0c-2.1,0-4.1,0.2-5.6,1.4c-3.5,2.7-14.3,12.2-14.1,17.4c0.4,8.5,0.2,17.1,0.5,25.3c0.2,5.2,0.3,10.5,0.3,15.7"
		/>
	<path vector-effect="non-scaling-stroke" class="st48" d="M912.5,688.7c-4.5,9.9-7.6,16.4-9.3,19.5c-9.6,16.7-22.8,30.3-40.3,37.9
		c-5.6,2.4-10.4,3.6-14.4,3.6c-19,0.1-35.1,1-56.8,0.1c-6.3-0.3-11.2-0.9-14.7-1.9c-4.9-1.4-9.4-3.4-13.7-6.1
		c-3.2-2-7.6-5.8-13.1-11.2c-5.3-5.3-9.4-9.4-12.1-12.3c-7.9-8.6-10.8-18.2-11.9-29.8"/>
	<path vector-effect="non-scaling-stroke" class="st46" d="M534,552.7c0.3,0.8,0.2,1.5-0.3,2c-0.3,0.2-0.3,0.5-0.2,0.8
		c0.2,0.8,0.3,1.7,0.1,2.5c0,0.1,0,0.2,0,0.2l0.2,0.3c0.2,0.3,0.2,0.3-0.1,0c-0.2-0.2-0.3-0.5-0.4-0.9c-0.2-1.7,0-3.2,0.5-4.5
		c0.2-0.5,0.1-0.5-0.3-0.2c-0.4,0.4-0.6,0.9-0.7,1.5c-0.1,1.5-0.1,3,0,4.6c0,0.3,0.2,0.6,0.5,0.8c1.7,1.1,3.6,1.8,5.7,2.2
		c4.7,0.8,9.3,2,13.8,3.6c1.1,0.4,3,0.8,5.5,1.3c0.9,0.2,1.8,0.7,2.8,0.9c3.7,0.5,7.1,2,10.9,2.5c0.3,0,0.6,0.2,0.9,0.3
		c1.2,0.9,2.3,0.6,3.3,0.8c3.9,0.8,7.6,2,10.2-2c1.3-2,2-3,2.1-3.1c1.3-1.4,2.6-2.8,3.9-4.2c0.2-0.2,0.5-0.4,0.8-0.5
		c0.4-0.2,0.7-0.5,0.8-1c0.1-0.3,0.3-0.6,0.5-0.8c1.2-0.9,2.4-1.8,3.5-2.8c1.1-0.9,2.3-1.5,3.5-1.8c2.7-0.5,5.2-0.6,7.5-0.5
		c7.1,0.5,13.4,0.6,19,0.4c2.3-0.1,4.4,0.9,6.9,0.6c2-0.2,3.4-0.2,4.2-0.1c1.4,0.2,2.8,0.5,4.2,0.8c0,0,0,0,0,0c0,0,0,0,0,0
		c0,0,0-0.1,0-0.1c-13.2,0-26.3-0.1-39.5-0.4c-0.1,0-0.2,0-0.2,0.1c-0.1,0.1-0.1,0.1-0.2,0.2c0,0.2-0.2,0.3-0.4,0.3
		c-1.3,0.1-2.5,0-3.6,0.9c-1.9,1.5-3.6,2.9-5.2,4.3c-0.8,0.7-0.8,0.8,0.1,0.2c1.2-0.8,2.4-1.8,3.8-3.2c0,0,0.1-0.1,0.1-0.1
		c0.1,0,0.2,0,0.3,0c0.1,0,0.3-0.1,0.4-0.2c1.7-1.5,3.7-2.2,6.1-2c9.6,0.5,19.2,0.6,28.8,0.3c0.6,0,1.2,0,1.8,0.2
		c1,0.3,2.9,0.4,5.5,0.2c1-0.1,1.7,0.4,2.7,0.6c0.3,0.1,0.6,0.2,0.8,0.4c2.6,2.5,6.1,6.1,6.2,8.6c0.4,7,1.3,17.4-0.5,25
		c-0.1,0.3,0,0.6,0.1,0.9l1,1.6"/>
	<path vector-effect="non-scaling-stroke" class="st47" d="M651.6,594.4c-2.2,3-4.3,4.6-8.3,4.6c-17.6,0-35.1,0-52.6,0
		c-0.3,0-0.6,0.2-0.6,0.5c-0.6,3.5-0.9,7.1-0.9,10.7c0,11,0,22-0.1,33"/>
	<path vector-effect="non-scaling-stroke" class="st46" d="M589.1,643.3c-0.1,2.8-1.7,6.8,0.7,9c0.2,0.2,0.5,0.3,0.8,0.3
		c0.4,0,0.7-0.3,0.8-0.7c0.1-0.3,0.2-0.4,0.5-0.5c1.3-0.6,2.7-0.8,4.2-0.7c0.1,0,0.1,0,0.1,0.1c0,0.1,0,0.2,0,0.3
		c0,0.2,0.1,0.3,0.3,0.3c2.2,0,7,0.2,8.8-0.7c0.3-0.2,0.6-0.2,0.9-0.2c2.5,0,4.9,0,7.4,0c0.5,0,0.8,0.2,1,0.6
		c0.1,0.2,0.3,0.3,0.5,0.3c0.3,0,0.5,0.1,0.5,0.4c0.1,0.3,0.2,0.5,0.5,0.6c2.9,1.3,6.5,1.3,8.8,1.8c1.6,0.4,3.3,0.7,4.8,1.1
		c0.1,0,0.1,0.1,0.1,0.1c0,0.1-0.1,0.1-0.1,0.1l-2.3,0c-0.4,0-0.7-0.1-1-0.2c-1.2-0.5-2.4-0.6-3.6-0.5c-0.3,0-0.6,0-0.9-0.2
		c-2.7-1.4-7.4-0.9-10.4-0.8c0,0,0,0,0,0c0,0,0,0,0,0c0,0,0,0.1,0.1,0.1c1.9,0.1,3.7,0.2,5.6,0.2c1.6,0,3.4,0.3,5.3,0.8
		c2.9,0.8,5.8,1.2,8.9,1.2c3.4,0,6.7,0.9,10.8,0.7c4.2-0.2,5.8,2.4,8.1,5.2c0.4,0.5,0.7,1,1,1.5c0.2,0.5,0.4,1.1,0.3,1.7
		c-0.1,3.4,0,8.3,0.3,14.6c0.1,3.6-0.1,7.9-0.6,12.8c0,0.3,0,0.6,0.2,0.8c0.4,0.6,0.9,1.1,1.5,1.4"/>
	<path vector-effect="non-scaling-stroke" class="st47" d="M652.8,695.1c-1.7,2.1-5.7,6.4-8.5,6.4c-14.5,0.1-28.9,0.1-43.3,0
		c-0.5,0-1-0.1-1.5-0.4c-8-4.6-11.7-9.6-16.1-17.7c-0.2-0.3-0.5-0.5-0.8-0.4L534.8,696c-0.4,0.1-0.5,0.3-0.5,0.7
		c0.1,0.8,0.5,1.6,1.1,2.3"/>
	<path vector-effect="non-scaling-stroke" class="st46" d="M535.4,699c-0.4,0.8-0.9,1.3-1.6,1.6c-0.3,0.1-0.5,0.4-0.4,0.7
		c0.1,0.4-0.1,0.8-0.4,1.1c-0.2,0.2-0.3,0.5-0.3,0.9c0.7,3,2.1,5.7,4.1,8c1.7,1.9,2.1,4.8,3.7,7.1c1.3,1.9,2.3,4.1,3.7,5.8
		c1.2,1.4,2.4,2.9,3.6,4.2c0.1,0.1,0.2,0.2,0.2,0.4c0,0.1,0.1,0.3,0.1,0.4c0.1,0.3,0.2,0.6,0.5,0.8c1.5,1.2,2.9,2.6,4.1,4.2
		c0.2,0.3,0.5,0.6,0.9,0.7c0.9,0.5,1.6,1.2,2.1,2.1c0,0.1,0.1,0.1,0.1,0.1c0.1,0,0.2,0.1,0.3,0.1c0.2,0,0.3,0.1,0.4,0.2
		c1,1.2,2.1,2.1,3.5,2.8c0.3,0.2,0.5,0.4,0.6,0.7c0.2,0.3,0.4,0.6,0.7,0.8c1.6,0.9,2.3,1.6,3.5,2.8c0.2,0.2,0.4,0.3,0.7,0.4
		c0.6,0.2,1.1,0.4,1.5,0.8c0.4,0.4,0.8,0.7,0.8,0.7c0.9,0.4,2,1.2,3.2,2.2c1.2,1,2.8,1.8,5,2.6c0.6,0.2,1.4,0.6,2.5,1.3
		c2.4,1.5,5.8,2.2,8.4,2.9c0.2,0,0.3,0.2,0.4,0.3c0.1,0.1,0.2,0.2,0.3,0.2c1.7,0.2,3.4,0.7,5,0.8c5.1,0.2,10.2,0.3,15.3,0.2
		c0,0,0,0,0,0c0,0,0,0,0,0c0,0,0,0.1-0.1,0.1c-7.5,0.4-11.8,0-17.8-0.3c-2.6-0.1-4.7-0.8-7-1.5c-0.1,0-0.2,0-0.3,0.2l0,0
		c0,0.1,0,0.2,0.2,0.3c7,2.3,12.6,2.4,20.4,2.2c1.3,0,2.6-0.6,4-0.7c1.4-0.1,2.4-0.2,3-0.3c6.2-1.3,12.2-1.6,18-0.6
		c2.5,0.4,4.6,0.7,6.3,0.9c0.8,0.1,2.7,0.4,5.7,0.8c1,0.2,5.9,0.1,6.1,0.3c0.1,0.1,0.2,0.2,0.2,0.4c0,0.2,0.2,0.4,0.4,0.4l8.9-0.1
		c0.3,0,0.5-0.1,0.6-0.4c0.3-0.5,0.6-0.6,1.1-0.5c0.3,0,0.5,0,0.8,0c0.9-0.2,1.9-0.5,2.8-0.7c1.6-0.4,3.2-1.4,5.2-1.3
		c0.3,0,0.6-0.1,0.8-0.2c2.7-2,5.8-3.1,8.4-5c1.4-1.1,2.9-2.1,4.4-3.1c0.9-0.6,1.2-1.5,2.3-2c0.3-0.1,0.6-0.3,0.8-0.6
		c0.8-0.9,2-1.9,3.8-3.1c1.5-1,3.2-2.9,5.4-5.5c0.2-0.3,0.7-0.7,1.2-1.1c1-0.7,1.9-2.4,2.4-3c1.8-2.2,3.9-4.6,5.2-7.1
		c0.3-0.6,0.7-1.2,1.2-1.7c1-1.1,1.8-2.3,2.6-3.6c1.6-2.7,2.7-5.5,3.1-8.6c1-7,2.1-13.6,1.8-20.8c0-0.4-0.2-0.6-0.6-0.7
		c-1.4-0.4-1.9-0.9-1.9-2.5c-0.1-5.3-0.2-10.7-0.4-16"/>
	<path vector-effect="non-scaling-stroke" class="st47" d="M707.3,671.5c0.2-7-0.1-13.9-0.9-20.8c-1-8.2-4.5-14.5-9.2-21.3"/>
	<path vector-effect="non-scaling-stroke" class="st46" d="M697.1,629.5c-0.1-0.9,0.3-1.6,1.2-1.9c0.4-0.1,0.5-0.4,0.5-0.8l0-0.6
		c0-0.4,0.1-0.7,0.3-1c2.1-2.9,4-5.9,5.9-9c2.3-3.8,2.8-7.8,3.7-12c0-0.2,0-0.3-0.2-0.3l-0.3-0.1c-0.1,0-0.1,0-0.1,0.1c0,0,0,0,0,0
		c-0.8,4.4-1.4,7.2-1.7,8.4c-0.4,1.2-1.1,2.5-2,3.9c-1,1.3-1.8,2.6-2.3,3.6c-1.5,2.8-3.6,3.9-4.9,5.9c-0.1,0.1-0.1,0.1-0.2,0h0
		c0,0,0-0.1,0.1-0.2l1.7-3c0.2-0.3,0.4-0.5,0.6-0.8c0.9-0.7,1.4-1.7,1.6-2.8c0.1-0.3,0.2-0.6,0.4-0.8c1-1.2,1.8-2.5,2.8-3.7
		c0.2-0.2,0.2-0.4,0.2-0.7c0,0,0.1-0.3,0.3-0.8c0.2-0.7,0.7-1.2,1.3-1.5c0.4-0.2,0.6-0.5,0.6-0.9c0.3-2-0.4-3.9-2.3-5.6"/>
	<path vector-effect="non-scaling-stroke" class="st47" d="M704.3,604.8c1.8-5.5,2.8-11,2.9-16.3c0.2-10.6,0-21.2-0.5-31.8
		c-1-20.3-12.6-32.2-27.8-45.4c-5.9-5.1-12.8-8.6-20.8-10.4c-4-0.9-10.6-1.4-19.9-1.4c-11.8,0-23.6,0-35.5,0
		c-6.1,0-10.6,0.3-13.5,0.8c-15.5,2.9-30.5,15.4-40.6,27.8c-6.6,8.1-11.5,16.3-14.6,24.6"/>
	<path vector-effect="non-scaling-stroke" class="st48" d="M704.3,604.8c-2.7,6.5-6.6,12.4-11.5,17.7c-0.3,0.4-0.3,0.7,0,1.1
		l4.4,5.8"/>
	<path vector-effect="non-scaling-stroke" class="st48" d="M707.3,671.5l-0.8,25.6"/>
	<path vector-effect="non-scaling-stroke" class="st47" d="M706.4,697.1l-1.5,7.2"/>
	<path vector-effect="non-scaling-stroke" class="st48" d="M704.9,704.3c-3.4,11.2-9.4,17.9-18,26.6c-8.2,8.3-16.7,14.7-28.1,17.4
		c-3.4,0.8-8.8,1.3-16.3,1.4c-13.9,0.3-24.2,0.7-41.7,0.1c-5.7-0.2-9.9-0.6-12.5-1.2c-9.4-2.2-18.7-8-25.9-13.7
		c-0.2-0.2-0.3-0.3-0.3-0.6c0-0.2,0-0.3-0.1-0.4c-1.5-1.5-3.6-3.3-6.3-5.4c-0.5-0.4-1.2-1.2-2.2-2.3c-0.5-0.7-1.3-1.4-2.2-2.4
		c-6.7-6.6-12-14.9-16-24.9"/>
	<path vector-effect="non-scaling-stroke" class="st48" d="M652.8,695.1c2.1-2,3.1-4,3.1-6c0.1-8.7,0.2-17.4,0.4-26.1
		c0.1-6.1-2.6-10.5-7.4-13.9c-3.7-2.6-8.6-1.8-13.2-1.7c-7.4,0.2-14.8,0.5-22.2,0.7c-2.9,0.1-6,0.8-9,0.7c-4.9-0.2-9.6-0.6-14.5,0
		c-0.4,0.1-0.8-0.2-0.8-0.6c0,0,0-0.1,0-0.1l0-4.9"/>
	<path vector-effect="non-scaling-stroke" class="st48" d="M651.6,594.4c2.7-2.3,4.1-4.7,4.3-7.4c0.2-3.2,0.4-10.8,0.4-22.9
		c0-5.8-2.2-8.9-6.4-12.9c-2.3-2.2-4.7-3.3-7.2-3.3c-13.4-0.1-26.8-0.2-40.3-0.4c-6.4-0.1-16.4,12.7-19.3,17.6
		c-0.2,0.4-0.6,0.5-1,0.4L534,552.7"/>
	<path vector-effect="non-scaling-stroke" class="st46" d="M704.9,704.3c-0.1,0.5,0.4,0.7,1.3,0.5c0.3,0,0.6,0.1,0.8,0.4
		c0.5,0.8,0.6,1.6,0.1,2.4c-0.1,0.3-0.2,0.6-0.2,0.9c0.2,4.9-2,8.4-4.8,12.4c-0.2,0.3-0.3,0.5-0.2,0.8c0.1,1.6-1.9,2.7-2.5,4.1
		c-0.1,0.3-0.3,0.5-0.6,0.6c-0.5,0.2-0.8,0.6-0.9,1.2c0,0.4-0.2,0.7-0.5,0.9c-1.3,1.3-2.5,2.8-3.7,4.2c-0.6,0.8-1.5,1.3-2.1,2.1
		c-0.5,0.7-1,1.3-1.5,1.6c-1.9,1.5-4.3,3.8-7.2,7c-2.2,2.4-5.6,4.7-10.2,6.9c-1.3,0.6-2.7,1.3-4,2c-1.3,0.7-2.6,1.2-4.1,1.7
		c-2.8,0.9-5.5,2.2-8.3,2.5c-5.9,0.6-11.9,0.7-17.8,0.2c-0.1,0-0.2-0.1-0.2-0.2v0c0-0.1,0.1-0.2,0.2-0.2c6.6,0.1,13.2-0.3,19.8-1.3
		c1.1-0.1,2-0.6,2.8-1.4c0.2-0.1,0.1-0.2-0.1-0.2c-2.1,0.3-4.2,0.6-6.3,1c-4.2,0.8-8.9,0.4-13.4,1.6c-1,0.3-3.1,0.1-6.4-0.5
		c-0.4-0.1-0.5,0.1-0.4,0.4c0.1,0.3,0.3,0.5,0.6,0.5c1,0.1,1.7,0.3,2.7,0.2c0.1,0,0.1,0,0.1,0.1c0,0.1,0,0.2,0,0.3
		c0,0.1,0.1,0.2,0.2,0.2c3-0.1,5.9,0,8.8,0.5c1.5,0.2,4.9,0.2,10-0.2c2-0.1,5.7-1.3,11.1-3.4c2.2-0.9,4.1-1.9,5.8-3
		c1.9-1.3,3.7-2.7,5.2-4c2.2-2,4.2-3.6,5.9-4.9c0.4-0.3,1.1-1.1,2-2.6c0.2-0.3,0.4-0.5,0.8-0.5c0.5-0.1,0.9-0.4,1.3-0.8
		c2.3-2.3,4.6-4.2,6.6-6.8c0.4-0.5,1-1.2,1.9-1.9c0.8-0.7,1.5-1.6,2-2.7c0.1-0.3,0.3-0.6,0.6-0.8c0.5-0.5,0.9-1,1.2-1.7
		c0.1-0.3,0.3-0.6,0.5-0.8c0.5-0.4,0.9-0.8,1.2-1.3c0.9-1.5,1.8-3,2.6-4.5c1.8-3.1,2.1-5.9,2.4-9.3c0.1-1.1,0.4-2.6,0.9-4.4
		c0.6-2.1,0.7-4.3,0.4-6.5c-0.1-0.4-0.3-0.5-0.6-0.5c-1.1,0.1-1.9,0.1-2.2-0.2"/>
	<path vector-effect="non-scaling-stroke" class="st47" d="M644.7,400.9c0.2,0.1,0.5,0.1,1,0"/>
	<path vector-effect="non-scaling-stroke" class="st48" d="M645.7,400.9l4.7-0.1c0.6,0,1.1-0.5,1-1.1c0-0.1,0-0.2-0.1-0.3
		l-13.1-37.8c-0.1-0.3-0.2-0.6-0.2-0.9c-0.1-0.9-0.9-1.7-1.1-2.5c-1.6-5.5-3.5-11-5.7-16.4c-2.5-6.2-4.7-12.1-6.5-17.6
		c-0.5-1.4-0.9-1.4-1.4,0l-25.9,75c-0.4,1.1,0,1.7,1.2,1.7l45.9-0.1"/>
	<path vector-effect="non-scaling-stroke" class="st46" d="M645.7,400.9c0.4-2.7,0-5.5-1-8.2c-0.9-2.2-1.8-4.4-2.7-6.5
		c-0.4-1-0.7-1.9-0.9-2.9c-0.1-0.7-0.5-1.6-1-2.9c-0.4-0.9-0.7-2-0.9-3.4c-0.5-3.2-1.9-6.9-4-11c-0.7-1.4-2-3.7-2.3-5.2
		c-0.2-0.8-0.4-1.5-0.6-2.2c-0.5-1.2-0.9-2.9-1.3-4.9c-0.4-2.5-1.8-6-4-10.6c-0.5-1.1-1-1.8-1.5-2.2c-1-0.9-2-0.8-3.1,0.3
		c-1.7,1.8-2.5,6.1-3.2,7.9c-1.1,2.9-2.2,5.8-3.2,8.7c-0.6,1.6-0.7,3.9-1.2,5.3c-0.4,1.1-0.8,2.1-1,2.8c-0.9,2.9-2.4,5.3-3.3,8.2
		c-0.9,3-2.3,5.8-2.9,8.9c-0.6,3.1-2,6.2-2.9,9.3c-0.3,1.1-0.8,2.2-1.4,3.2c-0.8,1.3-0.8,2.4-0.8,3.8c0,0.4,0.2,0.6,0.5,0.6
		c2.5,0.4,4.9,0.8,7.5,0.8c11.4,0,22.7,0,34.1,0"/>
	<path vector-effect="non-scaling-stroke" class="st46" d="M772.9,497c0.2,0.2,0.4,0.4,0.6,0.5c0.1,0.1,0.2,0.1,0.3,0.1
		c0.1,0,0.1,0,0-0.1c-0.7-0.8-1.5-1.4-2.4-1.8c-1.5-0.8-2-2.1-3.6-3c-1.1-0.6-2.2-1.4-3.2-2.3c-0.1-0.1-0.2-0.1-0.4-0.1
		c-0.2,0-0.2,0-0.1,0.1c2.6,2.2,5.3,4.2,8.1,6C772.5,496.6,772.7,496.7,772.9,497"/>
	<path vector-effect="non-scaling-stroke" class="st46" d="M583.2,466.8c0,0,0.1,0,0.1,0c0.1,0,0.2-0.2,0.2-0.4l1-3.5
		c0.1-0.4,0.3-0.7,0.6-0.9c0.3-0.2,0.5-0.5,0.5-0.9c0-0.3,0.1-0.5,0.3-0.7c2.5-2.9,6-1.6,9.2-2c1.6-0.2,3-0.3,4.3-0.2
		c1.5,0.1,4.2,0.1,5.4-0.9c0.2-0.2,0.2-0.3-0.1-0.4c-1.6-0.2-2.6,0.4-3.9,0.5c-3.6,0.1-7.2,0.2-10.9,0.4c-1.8,0.1-4,1.2-4.8,2.6
		c-1.6,3.1-2.9,7.3-4,12.7c0,0.1,0,0.2,0.1,0.2c0,0,0.1,0,0.1,0c0.1,0,0.2-0.1,0.2-0.2c0.1-0.7,0.2-1.3,0.5-2c0.7-1.5,0.8-2.6,1-4.2
		C583.1,466.9,583.1,466.8,583.2,466.8"/>
	<path vector-effect="non-scaling-stroke" class="st45" d="M249.4,1083c0.1-3.3,0.8-7.5-1-10.3c-2-3.1-4.4-4.6-8.3-4.6
		c-6.3,0-12.5,0.1-18.8,0.1c-0.9,0-2.1,0.5-3.6,1.6c-3.2,2.4-4.5,5.4-3.8,9"/>
	<path vector-effect="non-scaling-stroke" class="st45" d="M719.2,1085.1c0.3-6.1,1.6-11.9-4.5-15.8c-1.1-0.7-2.7-1.1-4.7-1.1
		c-5.5,0-10.9,0-16.4-0.1c-2.2,0-3.9,0.4-5.3,1.2c-3.7,2.2-5.2,5.3-4.6,9.8"/>
	<path vector-effect="non-scaling-stroke" class="st45" d="M48.7,1109l5.5,0c0.4,0,0.5-0.2,0.4-0.6l-9.9-27.9
		c-0.4-1.3-0.9-1.2-1.3,0c-0.2,0.8-0.3,1.9-0.7,2.9c-2.8,7.7-5.7,16-8.7,24.9c-0.1,0.3,0,0.5,0.3,0.6c0.1,0,0.1,0,0.2,0l6.4,0"/>
	<path vector-effect="non-scaling-stroke" class="st45" d="M470.8,1109l5.1,0c0.4,0,0.8-0.3,0.8-0.8c0-0.2-0.1-0.3-0.2-0.5
		c-0.4-0.5-0.7-1.2-1-2c-2.8-8.3-5.9-16.9-9.3-25.9c-0.3-0.8-0.5-0.7-0.7,0.1c-0.2,0.9-0.5,2-1,3.3c-2.9,8.4-5.7,16.8-8.6,25.2
		c-0.1,0.4,0,0.6,0.4,0.6l4.7,0"/>
	<path vector-effect="non-scaling-stroke" class="st45" d="M1169.4,1200.9c1.1-7-3-11.8-10-11.7c-5.9,0.1-11.8,0.1-17.7,0.1
		c-2.7,0-5.2,2.6-6.8,4.6c-1.5,2-1.4,4.1-1.2,6.5"/>
	<path vector-effect="non-scaling-stroke" class="st45" d="M205.1,1208.3c0.3-5.7,1.7-13.3-3.8-17c-1.4-0.9-3.5-1.4-6.3-1.4
		c-6.9-0.1-13.7,0-20.5,0.1c-0.3,0-0.5,0.2-0.5,0.5l0,32.2"/>
	<path vector-effect="non-scaling-stroke" class="st45" d="M501.6,1207.3c0.3-6.9,0.4-11.3,0.1-13.2c-0.4-2.6-3.7-4.1-6.4-4.1
		c-8.2,0-16.3-0.1-24.5-0.1c-0.2,0-0.4,0.1-0.4,0.4l0.1,19.4"/>
	<path vector-effect="non-scaling-stroke" class="st45" d="M885.8,1229.9l4.5,0c0.3,0,0.5-0.2,0.5-0.5c0-0.1,0-0.1,0-0.2l-9.9-27.8
		c-0.5-1.3-0.9-1.3-1.2,0.1c-0.2,0.8-0.3,1.7-0.6,2.5c-3,8.4-5.7,16.9-8.9,25.2c-0.1,0.3,0,0.5,0.3,0.6c0.1,0,0.1,0,0.2,0l3.8,0"/>
</g>
<path class="st49" d="M888.2,73.9c0.2,0.2,0.3,0.3,0.2,0.5c-46.4-6.4-94.6-3.1-141.2,7.1c-9.7,2.1-17.1,4-22.1,5.6L685,88.3
	c0.2-0.1,0.2-0.3,0.2-0.4c-0.1-0.3-0.2-0.5-0.6-0.6c-2.6-0.3-6.5-0.9-11.6-1.9c-9.2-1.7-22.2-3.3-39-4.6
	c-30.7-2.5-61.3-1.3-91.8,3.7c-2.5,0.4-4.8,1.4-6.9,3.1c-18.1,14.1-34.6,29.3-49.4,45.9c-0.2,0.2-0.3,0.1-0.5-0.1
	c-0.1-0.1-0.1-0.2-0.2-0.4c-2-10.4-6-19.9-11.9-28.6c-0.2-0.2-0.5-0.3-1.1-0.4c0.2-0.1,0.4-0.4,0.6-0.9c12.8-4.9,24-8.7,33.4-11.4
	c8.2-2.3,18.4-4.7,30.6-7c1-0.2,2.5-0.8,3.3-1.3c4.7-3.5,9.6-6.8,14.4-10.1c22.2-14.8,46-26.8,71.2-35.7c4.1-1.5,8.3-2.9,12.5-4.1
	c21.4-6.6,43.4-10.4,65.8-11.6c5.6-0.3,11.1-0.4,16.7-0.4c6.3,0,12.5,0.1,18.8,0.1c2.7,0,5.9,0.7,9.2,1c20.3,1.9,41.7,6.4,61.5,13.1
	C838,45,864,57.7,888.2,73.9z"/>
<path class="st50" d="M472.9,103.2c-0.2,0.4-0.4,0.7-0.6,0.9c-20.4,8.2-39,18.4-56.1,30.4c-4.4,3.1-7.8,5.4-10.3,7
	c-1.5,0.9-2.5,2.2-3.9,3.3c-17.3,14-31.8,28.4-46.6,46.9c-2,2.5-3.9,5.1-5.6,7.8c-0.3,0.3-0.7,0.5-1.1,0.4
	c-28-32.9-25.1-82.1,7.5-110.7C391.9,58.1,445.2,64.9,472.9,103.2z"/>
<path class="st51" d="M888.5,74.4c0.1,0.2,0.3,0.3,0.6,0.3c31.3,21.4,59,46.9,83.3,76.5c-0.5,1.3-1.1,2.9-1.9,4.8
	c-1.8,4.7-3,9.5-4.2,14.4C905,124.4,836.2,97.3,760,89c-8.1-0.9-19.8-1.5-34.9-1.9c5.1-1.6,12.4-3.4,22.1-5.6
	C793.8,71.3,842,68,888.5,74.4z"/>
<path class="st52" d="M888.2,73.9c35.3,4.5,68.9,14.3,100.8,29.3c2.7,1.3,9,4.7,19,10.3c-0.1,0.1-0.2,0.3-0.2,0.4
	c-1.1,0.6-2.3,1.3-3.7,2.1c-13.7,8-24.3,19.7-31.7,35C948,121.5,920.3,96,889,74.7c-0.3,0-0.5-0.1-0.6-0.3
	C888.5,74.2,888.4,74,888.2,73.9z"/>
<path class="st53" d="M685,88.3c-72.1,6.1-138.1,29.2-198,69.4c-0.1,0-0.2,0-0.3-0.1c-0.1,0-0.2-0.1-0.1-0.2
	c1.1-7.5,0.8-14.9-0.9-22.3c-0.1-0.3,0-0.6,0.1-0.9l0.3-0.7c14.8-16.5,31.2-31.8,49.4-45.9c2.2-1.7,4.5-2.7,6.9-3.1
	c30.4-5,61-6.2,91.8-3.7c16.8,1.4,29.8,2.9,39,4.6c5.1,1,9,1.6,11.6,1.9c0.3,0,0.5,0.2,0.6,0.6C685.2,88,685.1,88.2,685,88.3z"/>
<path class="st54" d="M725.1,87.1c15.1,0.4,26.7,1,34.9,1.9c76.2,8.4,145,35.5,206.2,81.3l0.1,1.7c-0.8,7.4-1,13.2-0.6,17.3
	c2.2,24.1,13,43.2,32.2,57.5c7.9,5.8,15.7,9.9,23.6,12.1c7,2,12,3.1,15,3.4c4,0.4,9.8,0.3,17.5-0.3c0.4,0.5,0.7,0.9,1,1.3
	c40.4,58.4,64.3,123,71.6,193.8c1.4,13.8,2.1,24.1,1.9,30.7c-0.3,11.1,0.2,22.5-0.5,33.4c-0.3,4.6-0.6,9.2-0.9,13.8
	c-1,8.9-1.9,16.4-2.7,22.3c-8.3,56.7-27.9,109.3-57.6,158.2c0.1,0.2-0.1,0.4-0.7,0.7c-19.3-3.3-37.1-0.3-53.4,8.8
	c-32.6,18.3-47.2,56.9-35.9,92.3c-0.1,0.3-0.2,0.6-0.6,0.9c-0.2,0.1-0.3,0.1-0.4,0.2c-62.6,50.1-137.9,81.7-218.1,89
	c-2.8,0.2-6.8,1-10.2,1.1c-5.9,0.2-11.1,1-16.3,0.9c-11-0.2-19.9-0.2-26.8-0.1c-3.8,0.1-7.6-0.1-11.4-0.6c-2.9-0.4-6.1,0-8.5-0.3
	c-4.9-0.6-8.2-1.1-9.8-1.2c-66.5-7-127.7-28.7-183.5-65.2l-0.1-0.5c4-9.1,6.4-17.9,7.4-26.2c2.3-20-6-42.2-18.8-57.2
	c-13.6-16-30.9-25.2-52-27.5c-14.9-1.7-29.7,1.2-44.4,8.7c-3.9-5.6-7.5-10.9-10.7-15.9c-35.8-55.2-57.3-115.6-64.5-181.2
	c-0.5-5-1.1-9.9-1-15.2c0-2.8-0.4-5.7-1.2-8.7l0.2-6.8c0.1-9,0.1-18.1,0.1-27.1c0-5.6,0.9-12.2,0.7-18.5c0-2.1,0.8-4,0.8-6.3
	c0-2.3,0.2-4.6,0.7-6.8c0.3-1.5,0.2-3,0.3-4.3c7.1-57.4,25.4-111,54.8-160.7c11.8-19.9,25.9-39.6,42.3-58.8c1.2-1.4,2.4-2.1,3.7-2.3
	c2.6,0.2,4.9,0.2,6.8-0.1c36.8-6.2,62.5-29.8,69.6-67.1c0-0.2,0.1-0.5,0.3-0.7c0.4-0.4,0.6-0.8,0.6-1.1c60-40.2,126-63.3,198-69.4
	L725.1,87.1z"/>
<path class="st55" d="M472.3,104.1c0.6,0,0.9,0.1,1.1,0.4c5.9,8.7,9.9,18.3,11.9,28.6c0,0.2,0.1,0.3,0.2,0.4
	c0.2,0.2,0.3,0.2,0.5,0.1l-0.3,0.7c-0.1,0.3-0.2,0.6-0.1,0.9c1.7,7.4,2,14.8,0.9,22.3c0,0.1,0,0.2,0.1,0.2c0.1,0,0.2,0.1,0.3,0.1
	c0,0.3-0.2,0.7-0.6,1.1c0-0.1-0.1-0.2-0.2-0.2c-0.2-0.1-0.3-0.2-0.5-0.1c-1.4,0.7-3.7,2.3-6.8,4.6c-11.2,8.1-19.7,14.7-25.6,19.6
	c-2.5,2.1-4.5,3.6-6.8,5.8c-1.8,1.8-4.1,3.1-5.7,4.7c-2.3,2.3-4.6,4.6-6.9,6.9c-1.1,1.1-2.6,1.9-3.6,2.8c-4.5,4.3-11.5,10.8-16.5,17
	c-1.6,2-3.2,3.9-4.9,5.7l-3.3,1.7c-21.8-2.6-40.1-9.8-55.2-26.1c-0.3-0.4-0.5-1-0.4-1.8c1.7-2.7,3.5-5.3,5.6-7.8
	c14.9-18.5,29.4-32.9,46.6-46.9c1.4-1.2,2.4-2.4,3.9-3.3c2.5-1.5,5.9-3.9,10.3-7C433.2,122.4,451.9,112.3,472.3,104.1z"/>
<path class="st56" d="M1113.5,220.7c0,0.2-0.1,0.2-0.5,0.1c-0.2-0.1-0.3-0.2-0.3-0.4c0-0.2-0.1-0.5-0.2-0.6
	c-6.8-12.2-14.5-23.9-23.2-34.8c-13.7-17.4-28.8-32.5-45.9-46.6c-11.2-9.2-23.1-17.3-35.6-24.4c0.1-0.1,0.2-0.3,0.2-0.4
	c3.4-1.3,7.1-3.2,10.3-4.2c42.9-13.5,86.4,8,100.6,50.8c2.5,7.5,4.3,17,3.9,26.8C1122.3,198.9,1118.5,210,1113.5,220.7z"/>
<path class="st57" d="M1007.8,114c12.5,7.1,24.4,15.2,35.6,24.4c17.1,14.1,32.2,29.2,45.9,46.6c8.7,11,16.4,22.6,23.2,34.8
	c0.1,0.2,0.2,0.4,0.2,0.6c0,0.2,0.2,0.3,0.3,0.4c0.3,0.1,0.5,0.1,0.5-0.1c0.2,0.1,0.3,0.3,0.4,0.5c-0.3-0.1-0.5-0.1-0.8,0
	c-0.2,0.1-0.4,0.2-0.5,0.5c-8.1,14.4-19.5,25.2-34.2,32.7c-0.3,0.1-0.4,0.5-0.3,0.8c0,0.1,0.1,0.1,0.2,0.2
	c21.7,17.5,41.4,37.2,59.3,59c4,4.8,7.7,9.8,11.4,15c0.4,0.6,0.9,1.4,1,2.2c8.6,56.2,3.5,114.8-11.1,169.5
	c-1.2,4.4-2.3,8.6-3.4,12.7l-6.5,20c-0.1,0.3-0.3,0.5-0.5,0.6l-1.4,0.7c0.3-4.6,0.6-9.2,0.9-13.8c0.7-10.9,0.2-22.3,0.5-33.4
	c0.2-6.6-0.5-16.9-1.9-30.7c-7.4-70.8-31.2-135.4-71.6-193.8c-0.3-0.4-0.6-0.8-1-1.3c7.8-1.7,15.2-3.3,22.4-6.7
	c0.4-0.2,0.6-0.7,0.4-1.1c-0.1-0.1-0.1-0.2-0.2-0.3c-15.9-12.7-32.5-24.3-49.8-34.7c-6.2-3.8-11-6.5-14.2-8.1
	c-9.1-9.5-18.8-18.6-29.1-27.3c-5.9-5-11.2-9-16-12c-0.5-0.3-0.9-0.2-1.2,0.3l-0.1-1.7c1.2-4.9,2.4-9.7,4.2-14.4
	c0.7-1.9,1.4-3.5,1.9-4.8c7.4-15.3,18-27,31.7-35C1005.5,115.3,1006.7,114.6,1007.8,114z"/>
<path class="st58" d="M486.3,158.8c-0.1,0.2-0.2,0.5-0.3,0.7c-7.1,37.3-32.7,60.9-69.6,67.1c-1.9,0.3-4.2,0.4-6.8,0.1
	c-0.6,0-0.9-0.3-0.9-1c1.7-1.8,3.3-3.7,4.9-5.7c5-6.2,12-12.8,16.5-17c1-0.9,2.5-1.7,3.6-2.8c2.3-2.3,4.6-4.6,6.9-6.9
	c1.7-1.7,3.9-3,5.7-4.7c2.3-2.2,4.3-3.8,6.8-5.8c5.9-5,14.5-11.5,25.6-19.6c3.2-2.3,5.4-3.8,6.8-4.6c0.2-0.1,0.4-0.1,0.5,0.1
	C486.2,158.6,486.3,158.7,486.3,158.8z"/>
<path class="st59" d="M1012.6,211.1c3.8,3.6,7.3,7.3,10.3,11.1c10.3,12.7,20.9,25.2,31,38.2c0.2,0.3,0.3,0.6,0.2,0.9l-0.1,0.7
	c-7.7,0.6-13.5,0.7-17.5,0.3c-3-0.3-8-1.5-15-3.4c-7.8-2.2-15.7-6.2-23.6-12.1c-19.2-14.3-30-33.4-32.2-57.5
	c-0.4-4.1-0.2-9.9,0.6-17.3c0.3-0.5,0.7-0.6,1.2-0.3c4.8,3,10.1,7.1,16,12C993.8,192.5,1003.5,201.6,1012.6,211.1z"/>
<path class="st49" d="M349.9,199.5c-0.1,0.8,0,1.4,0.4,1.8c15.1,16.3,33.5,23.5,55.2,26.1c-42.6,27.7-80.5,62.7-110,104.1
	c-0.3,0.4-0.5,0.4-0.9,0.3c6.1-35.5,17.7-69.2,34.5-101.1c3.1-5.9,9.7-16.2,19.7-30.7C349.2,199.9,349.5,199.8,349.9,199.5z"/>
<path class="st60" d="M1012.6,211.1c3.3,1.6,8,4.3,14.2,8.1c17.2,10.5,33.8,22,49.8,34.7c0.4,0.3,0.4,0.8,0.1,1.1
	c-0.1,0.1-0.2,0.2-0.3,0.2c-7.2,3.3-14.7,5-22.4,6.7l0.1-0.7c0.1-0.3,0-0.6-0.2-0.9c-10-13-20.6-25.4-31-38.2
	C1019.9,218.4,1016.4,214.7,1012.6,211.1z"/>
<path class="st52" d="M1114,221.2c15.2,27.9,25.2,55.6,32.2,86.1c0.8,3.6,2.2,11,4,22.3c-0.3-0.2-0.7-0.2-1.2-0.2
	c-3.6-5.1-7.4-10.1-11.4-15c-17.8-21.8-37.6-41.5-59.3-59c-0.3-0.2-0.3-0.6-0.1-0.8c0.1-0.1,0.1-0.1,0.2-0.2
	c14.7-7.4,26.1-18.3,34.2-32.7c0.1-0.3,0.3-0.4,0.5-0.5C1113.4,221.1,1113.7,221.1,1114,221.2z"/>
<path class="st61" d="M408.8,225.7c0.1,0.7,0.4,1,0.9,1c-1.3,0.2-2.6,0.9-3.7,2.3c-16.4,19.3-30.5,38.9-42.3,58.8
	c-29.5,49.7-47.7,103.2-54.8,160.7c-0.2,1.3,0,2.8-0.3,4.3c-0.5,2.3-0.7,4.5-0.7,6.8c0,2.3-0.9,4.1-0.8,6.3
	c0.1,6.2-0.8,12.9-0.7,18.5c0,9.1,0,18.1-0.1,27.1c-0.3,0.1-0.5,0.1-0.7,0.1c-0.3,0-0.5-0.2-0.6-0.5
	c-15.3-57.7-19.7-117.8-10.3-176.9c0.1-0.7-0.1-0.9-0.7-0.8c0.1-0.6,0.4-1.2,0.8-1.7c0.3,0.2,0.6,0.1,0.9-0.3
	c29.5-41.3,67.4-76.3,110-104.1L408.8,225.7z"/>
<path class="st62" d="M726.1,469.5l0.1,26.6c0,0.5-0.4,1-0.9,1c-7.9,1-15.1,0-22.8-0.2c-10.1-0.3-19.9-0.4-29.6-0.5
	c-0.7,0-1-0.4-1-1c0.2-10.4,1.5-21.1-1.9-31c-1.7-4.9-3.4-9.7-5.1-14.4c-0.1-0.4-0.5-0.6-0.9-0.6c-18.3,0.1-35.9,1.6-54.6,0.5
	c-8.2-0.5-16.5-0.4-24.7-0.7c-0.6,0-1.1,0.3-1.3,0.9c-2.2,6.2-4.2,12.5-6,18.7c-0.7,2.2-1,4.6-1,7c0,6.7,0,13.3,0,19.9
	c0,0.4-0.3,0.7-0.7,0.7l-53.7,1c-0.3,0-0.5-0.1-0.5-0.4l-0.1-1.7c0-10.8,0.3-20.3,0.9-28.5c0.7-9.2,4.9-17.9,7.9-26.8
	c21.2-61.2,42.4-122.3,63.5-183.5c0.7-1.9,1.4-3.9,2.2-5.8c0.2-0.5,0.8-0.9,1.3-0.9l54.2-0.1c0.4,0,0.7,0.2,0.8,0.6
	c0.5,1.4,1.1,2.8,1.6,4.4c21.4,62,42.8,124.1,64.2,186.1c2.4,6.9,6.8,16.1,7.3,24.4C725.7,466.8,725.9,468.1,726.1,469.5z
	 M644.7,400.9c0.2,0.1,0.5,0.1,1,0l4.7-0.1c0.6,0,1.1-0.5,1-1.1c0-0.1,0-0.2-0.1-0.3l-13.1-37.8c-0.1-0.3-0.2-0.6-0.2-0.9
	c-0.1-0.9-0.9-1.7-1.1-2.5c-1.6-5.5-3.5-11-5.7-16.4c-2.5-6.2-4.7-12.1-6.5-17.6c-0.5-1.4-0.9-1.4-1.4,0l-25.9,75
	c-0.4,1.1,0,1.7,1.2,1.7L644.7,400.9z"/>
<path class="st62" d="M896.3,446.2c-3.4,14.4-14.7,26.4-25.3,36.2c-5.8,5.4-11.2,9.3-16.2,11.6c-6.5,3.1-13.3,4.7-20.4,4.9
	c-7.4,0.3-18.2,0.2-32.5-0.1c-13.3-0.3-24.3-6.4-34.6-14.3c-3.9-3-7.5-6.4-10.8-10.1c-0.1-0.2-0.2-0.3-0.2-0.6c0-0.1,0-0.3,0-0.4
	c0-0.2-0.2-0.4-0.3-0.5c-0.7-0.6-1.2-1.3-1.7-2.1c-0.2-0.3-0.4-0.5-0.7-0.6c-0.3-0.1-0.5-0.3-0.6-0.6c-0.1-0.2-0.2-0.5-0.4-0.7
	c-2.3-2.5-4.4-5.2-6.2-8.1c-0.1-0.2-0.3-0.4-0.6-0.4c-0.2,0-0.2-0.2-0.2-0.3c0.1-0.3,0.1-0.5-0.1-0.8c-4.4-7.8-8.2-16-11.5-24.6
	l-0.8-1.8c-0.3-0.6,0-1.3,0.6-1.6c0.1,0,0.1,0,0.2-0.1l46.2-11.9c0.7-0.2,1.5,0.2,1.8,0.9c4.7,11.1,11.5,20.8,20.3,29
	c0.6,0.6,1.3,0.8,2.1,0.9c8,0.1,16.1,0.1,24.3,0c2.1,0,3.6-0.3,4.7-1c4.2-2.6,13-9.3,13-14.3c-0.6-40.5-0.8-81-0.5-121.5l0.5-13.1
	c0-0.8-0.6-1.4-1.3-1.5c0,0,0,0-0.1,0l-63,0.1c-0.4,0-0.5-0.2-0.6-0.5l-0.3-5.1c0-11.1,0.1-22.2,0.2-33.3c0-3.4,0.4-6.7,1.3-10
	c0.1-0.2,0.3-0.4,0.5-0.4l113.8,0c0.2,0,0.4,0.1,0.4,0.3c0.5,3.3,0.7,6.6,0.7,10.1c0.1,51.4,0.1,102.8,0.2,154.2
	C898.1,424.9,898.3,437.3,896.3,446.2z"/>
<path class="st56" d="M1149,329.3c0.5,0,0.9,0.1,1.2,0.2c4.3,7,8.8,14,13.2,21.2c18.3,29.3,31.5,60.7,39.4,94.4
	c1.2,5.2,3,15.7,5.2,31.5c0.9,6.3,0.5,13.9,0.6,20.9c0.2,14.5,1.1,29-0.6,42.4c-1.3,10.6-3.9,23.7-7.9,39.3
	c-4.7,18.5-11.1,36.1-19.1,52.8c-2.9,6.1-6.6,13.3-11.1,21.8c-4,7.6-10.7,17.8-20,30.8c-0.7,1-1.2,2.7-1.4,4.1
	c-3.9,28.2-11.2,55.4-21.9,81.7c0,0.1-0.2,0.1-0.5,0c-4.1-13.1-11.1-24.5-21-34.2c0,0-0.2-0.1-0.5-0.2c-0.1,0-0.2-0.1-0.2-0.3
	c0.1,0.1,0.3,0.1,0.4,0.1c0.1,0,0.2-0.1,0.4-0.2c14.9-14.4,28.6-29.8,41.1-46.4c1.5-2,2.4-4.1,2.6-6.4
	c6.6-54.4,1.6-108.8-12.1-161.7c-0.2-0.8-0.4-2.1-0.7-3.7c-0.2-1.2-0.4-2.4-0.8-3.7c1.1-4.1,2.2-8.3,3.4-12.7
	c14.6-54.7,19.7-113.4,11.1-169.5C1149.9,330.7,1149.4,329.9,1149,329.3z"/>
<path class="st52" d="M293.8,333.4c0.6-0.1,0.8,0.2,0.7,0.8c-9.4,59.1-5,119.1,10.3,176.9c0.1,0.3,0.3,0.5,0.6,0.5
	c0.2,0,0.5,0,0.7-0.1l-0.2,6.8c-3.1,13.2-5.6,26.2-7.5,38.9c-6.5,42.9-6.2,85.7,1,128.5c0.1,0.4,0,0.7-0.3,0.8
	c-0.2-0.2-0.3-0.5-0.3-0.7c-0.1-0.3-0.2-0.5-0.3-0.7c-4.2-5.9-8.2-11.9-12.1-18c-14.4-22.6-25.9-46.6-34.3-72
	c-1.6-4.8-3-9.6-4.4-14.4c-5.9-21-8.2-39.5-9.7-58.7c-0.6-7.9-0.3-15.4-0.3-23.1c0-4.4,0.5-11.4,1.4-21.2c0.9-9.2,1.6-15.4,2.2-18.8
	C249.1,413.4,267.5,371.1,293.8,333.4z"/>
<path class="st63" d="M772.9,497c0.2,0.2,0.4,0.4,0.6,0.5c0.1,0.1,0.2,0.1,0.3,0.1c0.1,0,0.1,0,0-0.1c-0.7-0.8-1.5-1.4-2.4-1.8
	c-1.5-0.8-2-2.1-3.6-3c-1.1-0.6-2.2-1.4-3.2-2.3c-0.1-0.1-0.2-0.1-0.4-0.1c-0.2,0-0.2,0-0.1,0.1c2.6,2.2,5.3,4.2,8.1,6
	C772.5,496.6,772.7,496.7,772.9,497z"/>
<path class="st54" d="M772.3,496.4c-2.9-1.8-5.6-3.8-8.1-6c-0.1-0.1-0.1-0.1,0.1-0.1c0.2,0,0.3,0.1,0.4,0.1c1,0.9,2.1,1.6,3.2,2.3
	c1.6,0.9,2.2,2.3,3.6,3c0.9,0.5,1.6,1.1,2.4,1.8c0.1,0.1,0.1,0.1,0,0.1c-0.1,0-0.2-0.1-0.3-0.1c-0.2-0.1-0.4-0.3-0.6-0.5
	C772.7,496.7,772.5,496.6,772.3,496.4z"/>
<path class="st62" d="M857.4,501c28.9,9.2,47,38,57.6,64.7l-48.4,13.6c-0.4,0.1-0.9-0.1-1.1-0.5c-1.3-3-2.6-6-4.1-9
	c0-0.1-0.2-0.2-0.4-0.3c-0.3-0.2-0.4-0.4-0.6-0.6c-1.8-3.8-4-7.4-6.5-10.8c-0.4-0.6-0.9-0.8-1.3-1.3c-3.2-4.2-8-9.1-13.9-9
	c-14,0.3-28,0.3-42,0c-2.1,0-4.1,0.2-5.6,1.4c-3.5,2.7-14.3,12.2-14.1,17.4c0.4,8.5,0.2,17.1,0.5,25.3c0.2,5.2,0.3,10.5,0.3,15.7
	c0.1,31.2,0.1,56.9-0.1,77.2c-0.1,5.4,10.5,13.7,14.5,16.1c1,0.6,2.3,0.9,3.9,0.9c15.4-0.1,30.7-0.2,45.9-0.3c0.7,0,1.3-0.2,1.8-0.7
	c9.6-8.1,16.8-18,21.4-29.6c0.3-0.6,1-1,1.6-0.8l46.9,12.3c0.6,0.2,0.9,0.7,0.8,1.3c0,0,0,0.1,0,0.1l-1.8,4.5
	c-4.5,9.9-7.6,16.4-9.3,19.5c-9.6,16.7-22.8,30.3-40.3,37.9c-5.6,2.4-10.4,3.6-14.4,3.6c-19,0.1-35.1,1-56.8,0.1
	c-6.3-0.3-11.2-0.9-14.7-1.9c-4.9-1.4-9.4-3.4-13.7-6.1c-3.2-2-7.6-5.8-13.1-11.2c-5.3-5.3-9.4-9.4-12.1-12.3
	c-7.9-8.6-10.8-18.2-11.9-29.8c-0.1-3.8-0.2-7.7-0.2-11.5c-0.1-30.4-0.2-60.7-0.3-91.1c0-10.7,0.2-21.3,0.9-30.7
	c0.8-9.9,4.9-16.8,11.9-24.7c6.5-7.4,12.9-13.7,19.4-19.1c5.4-4.6,12.6-8.1,21.5-10.6c3.5-0.9,7.3-1.3,11.5-1.2
	c14.5,0.2,29.5-0.5,38.9-0.2c7.7,0.3,13.5,0.3,17.2,0.1C849,499.3,852.5,499.9,857.4,501z"/>
<path class="st62" d="M704.3,604.8c-2.7,6.5-6.6,12.4-11.5,17.7c-0.3,0.4-0.3,0.7,0,1.1l4.4,5.8c4.7,6.8,8.3,13.1,9.2,21.3
	c0.8,6.9,1.1,13.8,0.9,20.8l-0.8,25.6l-1.5,7.2c-3.4,11.2-9.4,17.9-18,26.6c-8.2,8.3-16.7,14.7-28.1,17.4c-3.4,0.8-8.8,1.3-16.3,1.4
	c-13.9,0.3-24.2,0.7-41.7,0.1c-5.7-0.2-9.9-0.6-12.5-1.2c-9.4-2.2-18.7-8-25.9-13.7c-0.2-0.2-0.3-0.3-0.3-0.6c0-0.2,0-0.3-0.1-0.4
	c-1.5-1.5-3.6-3.3-6.3-5.4c-0.5-0.4-1.2-1.2-2.2-2.3c-0.5-0.7-1.3-1.4-2.2-2.4c-6.7-6.6-12-14.9-16-24.9c-0.6-0.7-1-1.5-1.1-2.3
	c-0.1-0.4,0.1-0.6,0.5-0.7l47.8-12.9c0.4-0.1,0.7,0,0.8,0.4c4.5,8.1,8.2,13.1,16.1,17.7c0.4,0.3,1,0.4,1.5,0.4
	c14.3,0.1,28.8,0.1,43.3,0c2.8,0,6.9-4.4,8.5-6.4c2.1-2,3.1-4,3.1-6c0.1-8.7,0.2-17.4,0.4-26.1c0.1-6.1-2.6-10.5-7.4-13.9
	c-3.7-2.6-8.6-1.8-13.2-1.7c-7.4,0.2-14.8,0.5-22.2,0.7c-2.9,0.1-6,0.8-9,0.7c-4.9-0.2-9.6-0.6-14.5,0c-0.4,0.1-0.8-0.2-0.8-0.6
	c0,0,0-0.1,0-0.1l0-4.9c0-11,0.1-22,0.1-33c0-3.6,0.3-7.2,0.9-10.7c0.1-0.3,0.3-0.5,0.6-0.5c17.5,0,35,0,52.6,0c4,0,6.1-1.7,8.3-4.6
	c2.7-2.3,4.1-4.7,4.3-7.4c0.2-3.2,0.4-10.8,0.4-22.9c0-5.8-2.2-8.9-6.4-12.9c-2.3-2.2-4.7-3.3-7.2-3.3c-13.4-0.1-26.8-0.2-40.3-0.4
	c-6.4-0.1-16.4,12.7-19.3,17.6c-0.2,0.4-0.6,0.5-1,0.4L534,552.7c3.1-8.3,8-16.5,14.6-24.6c10.1-12.4,25.1-24.9,40.6-27.8
	c2.9-0.5,7.5-0.8,13.5-0.8c11.8,0,23.6,0,35.5,0c9.2,0,15.9,0.5,19.9,1.4c8,1.8,14.9,5.3,20.8,10.4c15.2,13.2,26.8,25.1,27.8,45.4
	c0.5,10.6,0.7,21.2,0.5,31.8C707.1,593.9,706.1,599.3,704.3,604.8z"/>
<path class="st60" d="M1135.6,513.7c0.3,1.3,0.6,2.5,0.8,3.7c0.2,1.6,0.5,2.9,0.7,3.7c13.7,52.9,18.6,107.3,12.1,161.7
	c-0.3,2.3-1.1,4.4-2.6,6.4c-12.5,16.5-26.2,32-41.1,46.4c-0.1,0.1-0.3,0.2-0.4,0.2c-0.2,0-0.3,0-0.4-0.1c-9-9.9-23.8-16.6-36.6-19.2
	c-0.5-0.1-0.9-0.4-1.1-0.9c29.8-48.9,49.3-101.5,57.6-158.2c0.9-5.9,1.8-13.4,2.7-22.3l1.4-0.7c0.3-0.1,0.5-0.4,0.5-0.6
	L1135.6,513.7z"/>
<path class="st64" d="M306,518.3c0.8,3,1.2,5.9,1.2,8.7c0,5.2,0.5,10.2,1,15.2c7.2,65.5,28.7,125.9,64.5,181.2
	c3.2,5,6.8,10.3,10.7,15.9c-7,3.5-13.2,8-18.7,13.5c-0.2,0.2-0.5,0.3-0.8,0.3l-0.4,0c-0.3,0-0.6-0.2-0.9-0.4
	c-22.1-18.7-42-39.6-59.7-62.5c0-0.1-0.3-0.4-0.8-1.2c-0.8-1.2-1.6-1.7-2.4-1.5c-0.2-0.2-0.3-0.5-0.4-1c0.3-0.1,0.4-0.3,0.3-0.8
	c-7.1-42.8-7.5-85.6-1-128.5C300.4,544.5,302.9,531.5,306,518.3z"/>
<path class="st56" d="M363.5,753.1c0.2,0,0.3,0.1,0.3,0.2c0.1,0.1,0.1,0.2,0,0.3c-0.1,0.2-0.1,0.3-0.2,0.3
	c-10.6,11.1-17.4,24.1-20.4,38.8c-0.4,2.1-0.8,3.6-1.1,4.5c-0.1,0.2-0.1,0.3-0.2,0.4c-0.2,0.2-0.4,0.3-0.5,0.1
	c-0.8-1.1-2.5-3.9-5-8.3c-9.7-17.3-17.3-33.9-22.9-49.7c-1.5-4.1-3.7-10.8-6.6-20c-2.1-6.4-4.5-17.1-7.2-32.2
	c0.8-0.2,1.6,0.3,2.4,1.5c0.5,0.7,0.8,1.1,0.8,1.2c17.7,22.9,37.6,43.8,59.7,62.5C362.8,753,363.1,753.1,363.5,753.1z"/>
<path class="st65" d="M1066.2,716.2c0.3,0,0.5,0.2,0.5,0.5c0,0.1,0,0.3-0.2,0.5c-8.6,14.7-18,26.8-29.5,40.8c-1.9,2.3-4.1,4.6-5.8,7
	c-2.1,3-4.8,5.1-7,7.9c-1.8,2.3-3.3,3.9-4.3,5c-9.6,9.6-19,19.6-29.3,28.5c-2.6,2.2-5,4.6-7.4,7.1c-1.4,1.5-3.3,2.8-5,4.3
	c-0.4,0.4-0.9,0.2-1.3-0.4c-11.3-35.4,3.3-74,35.9-92.3C1029,715.8,1046.8,712.9,1066.2,716.2z"/>
<path class="st57" d="M1066.8,715.5c0.2,0.5,0.5,0.8,1.1,0.9c12.7,2.6,27.5,9.3,36.6,19.2c-0.9,1.3-2.4,2.9-4.6,4.8
	c-18.4,16.9-37.4,31.6-56.8,44.2c-7.8,5.1-15.6,10.1-23.3,14.9c-0.6,0.4-1,0.8-1.3,1.4c-6.4,11-13,21.6-20,31.9
	c-2.4,3.5-4.8,7.1-7.2,10.8c0.2-0.6-0.1-0.8-0.8-0.7c-5.9-7.2-10.4-15.2-13.4-24c-0.1-0.2-0.3-0.4-0.8-0.7c0.3-0.3,0.5-0.6,0.6-0.9
	c0.4,0.7,0.9,0.8,1.3,0.4c1.7-1.5,3.6-2.8,5-4.3c2.4-2.5,4.8-4.8,7.4-7.1c10.2-8.9,19.7-18.9,29.3-28.5c1-1,2.5-2.7,4.3-5
	c2.2-2.8,4.9-4.9,7-7.9c1.6-2.3,3.9-4.7,5.8-7c11.5-14,21-26.1,29.5-40.8c0.1-0.2,0.2-0.4,0.2-0.5c0-0.3-0.2-0.4-0.5-0.5
	C1066.8,715.8,1067,715.6,1066.8,715.5z"/>
<path class="st66" d="M491.1,841.5c-0.4,0.4-0.8,0.5-1.3,0.2c-11.7-7.8-23.1-16.1-34-25c-2.9-2.4-6.1-5.9-9-8
	c-0.3-0.2-0.9-0.3-1.6-0.3c-0.3,0-0.6-0.1-0.9-0.2c-3.4-2.2-6.9-4.3-10.4-6.3c-0.2-0.1-0.4-0.4-0.6-0.7c-0.2-0.3-0.4-0.5-0.8-0.5
	c-1.1-0.2-2-0.7-2.7-1.4c-0.2-0.2-0.5-0.4-0.8-0.4c-0.6-0.1-1.2-0.4-1.7-0.7c-21.4-12.5-41.7-26.6-60.9-42.3
	c-0.1-0.1-0.5-0.5-1.2-1.2c-0.5-0.6-1.1-0.8-1.7-0.7c0.1,0,0.2-0.1,0.2-0.3c0.1-0.1,0-0.2,0-0.3c-0.1-0.1-0.2-0.2-0.3-0.2l0.4,0
	c0.3,0,0.5-0.1,0.8-0.3c5.5-5.5,11.7-10,18.7-13.5c14.7-7.5,29.5-10.4,44.4-8.7c21,2.3,38.3,11.5,52,27.5
	c12.7,15,21.1,37.2,18.8,57.2C497.5,823.6,495.1,832.4,491.1,841.5z"/>
<path class="st64" d="M1104.5,735.6c0.1,0.2,0.1,0.3,0.2,0.3c0.3,0.1,0.5,0.2,0.5,0.2c9.9,9.6,16.9,21,21,34.2
	c-0.1,0.7-0.2,1.4-0.5,2c-11.2,25.1-24.3,48.2-41.4,69.8c-6.3,7.9-10.8,13.1-13.7,15.6c-5.2,4.5-10.3,9.2-15.3,14.2
	c-3,0.3-5,0.4-6.1,0.2c-22.9-2.3-42.8-10.6-57.9-28.4c2.4-3.7,4.8-7.3,7.2-10.8c7-10.3,13.7-21,20-31.9c0.3-0.6,0.8-1,1.3-1.4
	c7.7-4.8,15.4-9.8,23.3-14.9c19.4-12.6,38.3-27.3,56.8-44.2C1102,738.5,1103.6,736.9,1104.5,735.6z"/>
<path class="st67" d="M363.5,753.9c0.6-0.1,1.2,0.1,1.7,0.7c0.7,0.7,1.1,1.1,1.2,1.2c19.2,15.7,39.5,29.8,60.9,42.3
	c0.5,0.3,1.1,0.5,1.7,0.7c0.3,0.1,0.6,0.2,0.8,0.4c0.8,0.7,1.7,1.2,2.7,1.4c0.3,0.1,0.6,0.2,0.8,0.5c0.2,0.3,0.4,0.6,0.6,0.7
	c3.5,2,7,4.1,10.4,6.3c0.3,0.2,0.6,0.2,0.9,0.2c0.7,0,1.3,0.1,1.6,0.3c2.9,2.1,6.1,5.7,9,8c10.9,8.9,22.2,17.2,34,25
	c0.5,0.3,0.9,0.3,1.3-0.2l0.1,0.5c-4.1,8.3-9.5,15.8-16.1,22.6c-12.1,11.7-26.9,19-44.4,21.9c-0.5,0.1-0.8,0.4-0.8,1.1l-1.2-0.3
	c0.3-0.5,0.3-0.8,0-1c-8.6-5.4-16.8-11.2-24.6-17.6c-5.5-4.4-10.7-10.1-15.9-15.2c-1.9-1.8-4.4-3.1-6.4-5
	c-6.7-6.6-13.6-12.9-19.2-20.6c-6.7-9.3-13-17.5-20.3-28.6c-0.1-0.2-0.4-0.3-0.7-0.3c-0.3-0.3-0.4-0.7-0.4-1.1
	c0.1,0.2,0.3,0.2,0.5-0.1c0.1-0.1,0.2-0.2,0.2-0.4c0.3-0.9,0.7-2.4,1.1-4.5C346.1,778,352.9,765.1,363.5,753.9z"/>
<path class="st52" d="M1126.2,770.2c0.4,0.2,0.5,0.2,0.5,0c1.2,5.6,2.9,11.2,3.2,16.8c2.6,38.8-23.1,73.3-60.8,82.6
	c-2.6,0.6-6.9,1.5-13.1,2.6l-0.8-0.5c5-4.9,10.1-9.6,15.3-14.2c2.9-2.5,7.4-7.7,13.7-15.6c17.1-21.6,30.2-44.7,41.4-69.8
	C1125.9,771.6,1126.1,771,1126.2,770.2z"/>
<path class="st49" d="M341.7,798.8c0.3,0,0.6,0.1,0.7,0.3c7.3,11.1,13.6,19.4,20.3,28.6c5.6,7.7,12.5,14.1,19.2,20.6
	c2,2,4.5,3.2,6.4,5c5.3,5.1,10.5,10.8,15.9,15.2c7.8,6.4,16,12.2,24.6,17.6c0.3,0.2,0.3,0.5,0,1c-13.3,0.9-22.9-0.4-35.5-4.7
	c-12.6-4.3-23.6-12-33.1-23.3c-12-14.2-18.1-30.7-18.4-49.4C341.7,806.1,341.7,802.4,341.7,798.8z"/>
<path class="st60" d="M976.3,818.2c0.5,0.3,0.8,0.5,0.8,0.7c3,8.8,7.5,16.8,13.4,24c0.6,0.4,0.6,1-0.1,1.8
	c-29.6,41-66.8,77.2-110,103.7c-1.3,0.8-3.8,1.7-5.4,1.8c-58.3,5-115.3-2.2-171.1-19.9c-5.4-1.7-9.8-3.3-15.4-2.2
	c-47.5,9.2-94.7,10.2-141.5,3.1c-1.7-0.3-3.6-1.2-5-2.2c-24.7-18.8-47-40.3-66.9-64.3c6.6-6.8,12-14.3,16.1-22.6
	c55.8,36.5,117,58.2,183.5,65.2c1.7,0.2,5,0.6,9.8,1.2c2.4,0.3,5.6,0,8.5,0.3c3.8,0.5,7.6,0.7,11.4,0.6c6.8-0.1,15.8-0.1,26.8,0.1
	c5.2,0.1,10.5-0.7,16.3-0.9c3.5-0.1,7.4-0.8,10.2-1.1c80.2-7.3,155.5-39,218.1-89C976,818.3,976.1,818.2,976.3,818.2z"/>
<path class="st56" d="M990.5,842.9c0.8-0.1,1,0.2,0.8,0.7c15.1,17.8,35,26.1,57.9,28.4c1.1,0.1,3.1,0,6.1-0.2l0.8,0.5
	c-5.2,4.8-10.4,9.5-15.7,14.1c-7.2,6.3-16.1,11.8-24.4,17c-10.6,6.6-17.4,10.7-20.6,12.2c-11.4,5.5-18.5,8.9-21.5,10.1
	c-15.5,6.6-31.5,12-47.8,16c-0.1,0-1.8,0.5-5.1,1.5c-2.3,0.7-5,1-7,1.4c-11.9,2.6-23.7,4.2-35.4,5.8c-0.9,0.1-1.8,0.4-2.7,0.9
	c-26.2,14.9-53.5,26.8-81.9,33.8c-2.8,0.7-9.3,2-19.2,4c-10.7,2.1-18.9,3.1-24.6,3.1c-9.4,0-15.3,0-17.9,0c-0.6,0-1.3,0.6-2,0.6
	c-5.9,0-11.8,0-17.6,0c-6.3,0-12.2-0.4-17.6-1c-12.4-1.6-24.8-3.8-37-6.6c-3.3-0.7-10.7-2.9-22.3-6.5c-17.6-5.4-36.1-14.2-53-23.2
	c-11.2-6-23.5-13.9-36.9-23.5c-0.8-0.6-1.5-0.8-2.4-0.9c-8.2-1.8-16.3-3.7-24.4-5.7c-17.4-4.4-34.3-10.2-50.7-17.5
	c-6.7-3-13.2-6.1-19.7-9.5c-6.4-3.3-12.6-7-18.7-10.9c0-0.6,0.3-1,0.8-1.1c17.5-2.9,32.2-10.2,44.4-21.9
	c19.9,24.1,42.2,45.5,66.9,64.3c1.3,1,3.3,2,5,2.2c46.8,7.2,93.9,6.1,141.5-3.1c5.6-1.1,10,0.5,15.4,2.2
	c55.8,17.7,112.8,25,171.1,19.9c1.5-0.1,4-1,5.4-1.8c43.2-26.5,80.4-62.6,110-103.7C991.1,843.9,991.1,843.2,990.5,842.9z"/>
<path class="st68" d="M727.6,1015.2l-30.5,28.3c-0.4,0.4-1.1,0.6-1.7,0.4l-20.5-5.7l24-22.5c0.5-0.4,1.1-0.7,1.7-0.7L727.6,1015.2z"
	/>
<path class="st68" d="M176.4,1074.5c0.2,0.6,0,0.9-0.4,1c-6,1.8-12,3.6-18.1,5.1c-0.6,0.1-0.9-0.1-1.1-0.6c-1.2-3.2-6.1-12-10-11.9
	c-5.4,0.1-10.8,0-16.2,0c-1.8,0-3.3,0.2-4.4,0.8c-5.6,3.1-5.3,7.6-4.9,13.1c0,0.5,0.3,0.9,1,1.1c11.5,3.3,23,6.4,34.6,9.5
	c5.7,1.5,9.6,3.1,11.8,4.6c5.2,3.8,7.8,9.6,7.5,17.2c-0.1,6.5,0.7,13.5-3.5,19c-4.3,5.7-12.5,14.4-20.4,14.5c-8,0-15.9,0-23.9,0
	c-4,0-7.1-0.4-9.3-1.2c-9.4-3.3-16.5-12.8-19.9-22c-0.6-1-1-1.9-1.2-2.7c-0.1-0.4,0.1-0.6,0.4-0.7l17.3-5.6c0.6-0.2,1.3,0.1,1.6,0.7
	c1.6,4,5.7,12.2,10.8,12.2c6.7,0,13.4,0,20.1,0c2.1,0,3.3-0.8,4.6-2.4c4.2-3.2,3.1-7.1,3.1-11.7c0-0.9-0.6-1.6-1.4-1.8
	c-11.8-3.1-23.5-6.2-35.2-9.4c-5.6-1.5-9.4-3.1-11.4-4.7c-8.1-6.3-7.6-17.7-6.9-27.4c0.4-7.4,7.4-13.7,12.9-17.8
	c3.7-2.8,7.9-4.2,12.5-4.3c7.5-0.1,15.1-0.2,22.6-0.1C162.7,1049,171.9,1063.6,176.4,1074.5z"/>
<path class="st68" d="M270,1118.3c-0.1,4.4-0.1,10.5-2.6,14c-4.5,6.2-13.1,15.7-21.6,15.7c-7.7,0-15.4,0-23.2,0c-4.6,0-7.9-0.3-10-1
	c-6.6-2.1-12.2-8.3-16.2-13.8c-2-2.8-3-5.9-3.1-9.4c-0.1-6.3-0.2-12.7-0.4-19.1c0.1-10.5,0.2-21.1,0.2-31.7c0-5.9,3.6-10.8,8-15.1
	c5.7-5.5,10.2-9.1,18.4-9.1c7.4,0,14.8,0,22.1,0.1c11.8,0.1,15.8,4.1,23.5,12.7c4,4.4,4.8,7.8,4.8,14.1
	C270,1089.9,270,1104.1,270,1118.3z M213.8,1078.9c0,13.7,0,27.3-0.1,40.8c0,1.8,0.4,3.3,1.2,4.4c1.7,2.6,3.7,4.6,7.1,4.5
	c6.6,0,13.2-0.1,19.7-0.1c1.4,0,2.7-0.6,3.9-1.9c2.5-2.4,3.8-3.9,3.8-7.6c-0.1-12-0.1-24-0.1-36c0.1-3.3,0.8-7.5-1-10.3
	c-2-3.1-4.4-4.6-8.3-4.6c-6.3,0-12.5,0.1-18.8,0.1c-0.9,0-2.1,0.5-3.6,1.6C214.4,1072.3,213.2,1075.3,213.8,1078.9z"/>
<path class="st68" d="M361.8,1074.2l0.1,0.7c0.1,0.3-0.1,0.6-0.4,0.7l-18.2,5.1c-0.5,0.1-1-0.1-1.2-0.6c-1.7-4.9-5.5-11.9-11.6-11.9
	c-4.1,0-14.3-1.1-17.5,1.1c-2.1,1.4-5.3,4.4-5.3,7.3c-0.2,14.2-0.2,28.5-0.1,42.9c0,3.4,1.6,6.1,4.7,8.1c1.2,0.8,2.8,1.2,4.7,1.2
	c5,0,10,0,15,0c3.8,0,8.6-8.3,9.9-11.4c0.2-0.6,0.9-0.9,1.5-0.7l18,4.7c0.3,0.1,0.5,0.4,0.4,0.7c0,0,0,0,0,0.1l-1.8,4.5
	c-4.2,9.2-13.3,21.4-24.8,21.5c-7.2,0.1-14.4,0-21.6,0c-3.8,0-7.8-0.8-10.7-2.6c-5.5-3.3-14.9-12.1-15.1-19.3
	c-0.3-15.8-0.4-34.5-0.2-56c0.9-6.5,8.1-13,12.6-16.5c3.7-2.8,7.9-4.3,12.6-4.4c7.5-0.2,14.9-0.2,22.4-0.2c8.7,0,17.3,8.6,21.6,15.5
	C357.9,1066.2,359.6,1069.4,361.8,1074.2z"/>
<path class="st68" d="M597,1075.4l-19,5.3c-0.3,0.1-0.6-0.1-0.7-0.4c-2.1-5.2-5.6-12.2-12.2-12.2c-4.2,0-8.4,0-12.6,0
	c-4.1,0-6.7,1.8-8.6,5.1c-0.9,1.5-1.3,3.5-1.3,6.2c0.1,13.5,0,27.2-0.1,41c0.6,4.2,4.2,8,8.8,8.1c5.6,0.1,11.1,0.1,16.6,0
	c0.4,0,0.7-0.1,0.9-0.3c3.6-2.8,6.6-7.7,8.5-11.6c0.1-0.3,0.3-0.4,0.6-0.3l18.2,4.8c0.4,0.1,0.7,0.5,0.6,1c0,0,0,0.1,0,0.1l-1.1,2.5
	c-3.3,8.2-8.2,15.3-15.7,20c-3.5,2.2-6.6,3.3-9.5,3.3c-7.4,0-14.8,0-22.2-0.1c-9.8-0.1-16.4-6.3-22.3-13.9c-2.3-3-3.5-6.2-3.4-9.5
	c0.1-9.7,0-19.5-0.2-29.3c0-8,0-16.1,0-24.2c0-5.4,5.6-11.2,10.3-15.5c6.6-5.9,11.5-6.6,21-6.6c5.3,0,10.5,0,15.8,0
	C582.6,1048.8,593.2,1064.1,597,1075.4z"/>
<path class="st68" d="M706.3,1049c8.7-0.2,15.4-0.5,22,5.7c5.7,5.3,11.3,10.2,11.4,17.8c0.1,13.7,0.1,27.5,0,41.2
	c-0.2,4.2,0.2,8.8-0.4,13c-0.8,6.3-7.7,12.6-12.3,16.6c-3.6,3.1-7.4,4.7-11.5,4.7c-7.9,0-15.7,0-23.6,0c-7.4,0-12.2-1-17.4-5.7
	c-5.6-5-11.3-11.1-11.4-18.5c0-6-0.1-12-0.2-18.1c0-16.5,0-27.4,0.1-32.7c0.2-9.7,11.2-19.6,19.4-23.3c2.1-0.5,4.3-0.8,6.5-0.8
	C692.9,1048.8,698.7,1048.8,706.3,1049z M683.8,1079c0,13.7,0,27.3,0,41c0,3.7,2.4,6.4,5.3,8.2c0.4,0.3,0.9,0.4,1.4,0.4
	c6.6,0,13.3,0,20,0c1.7,0,3.2-0.4,4.2-1.2c3.3-2.4,4.9-5.9,4.7-10.7c-0.2-4.8-0.3-15.3-0.2-31.7c0.3-6.1,1.6-11.9-4.5-15.8
	c-1.1-0.7-2.7-1.1-4.7-1.1c-5.5,0-10.9,0-16.4-0.1c-2.2,0-3.9,0.4-5.3,1.2C684.6,1071.4,683.2,1074.5,683.8,1079z"/>
<path class="st68" d="M84.3,1133.1l0.2,13.6c0,0.3-0.2,0.5-0.5,0.5c-6.7,0.4-13.2,0.1-19.8,0c-1.1,0-1.6-0.6-1.5-1.7
	c0.7-5.5-0.1-10.8-2.3-15.9c-0.2-0.5-0.8-0.9-1.4-0.9H28.8c-0.2,0-0.5,0.1-0.6,0.4c-2.4,5.7-3.2,11.6-2.5,17.8
	c0,0.3-0.2,0.5-0.4,0.5c0,0,0,0,0,0c-6.5,0.6-13,0.5-19.5-0.3c-0.9-0.1-1.3-0.6-1.3-1.5l0.4-14.7l28.3-80.9c0.1-0.3,0.4-0.6,0.8-0.6
	l20.1,0c0.9,0,1.7,0.6,2,1.4L84.3,1133.1z M44.7,1080.5c-0.4-1.3-0.9-1.2-1.3,0c-0.2,0.8-0.3,1.9-0.7,2.9c-2.8,7.7-5.7,16-8.7,24.9
	c-0.1,0.3,0,0.5,0.3,0.6c0.1,0,0.1,0,0.2,0l6.4,0l7.8,0l5.5,0c0.4,0,0.5-0.2,0.4-0.6"/>
<path class="st68" d="M416.6,1058.9l-0.2,9.6c0,0.3-0.2,0.5-0.5,0.5l-11.2,0.2c-0.4,0-0.6,0.2-0.6,0.6l-0.1,13l-0.1,44
	c0,0.3,0.3,0.6,0.6,0.6l10.6,0.2c0.7,0,1,0.3,1,1l0.2,17.8c0,0.6-0.1,0.8-0.4,0.8c-0.1,0-0.2,0-0.2,0c-5.6,0.7-12.6,0-16.5,0
	c-9.5,0-18.7,0.3-28.2-0.4c-0.4,0-0.6-0.2-0.6-0.6l-0.2-2l0.4-15.5c0-0.7,0.6-1.2,1.2-1.2l10.6-0.1c0.3,0,0.5-0.2,0.5-0.5l-0.1-42.4
	l0.1-14.9c0-0.3-0.3-0.6-0.6-0.6c0,0,0,0,0,0l-11.2,0c-0.3,0-0.6-0.3-0.6-0.6l0,0l-0.1-14.3l0-3.6c0-0.6,0.5-1,1-1l43.7,0
	c0.7,0,1.1,0.4,1.1,1.1L416.6,1058.9z"/>
<path class="st68" d="M506.5,1135.9v10.8c0,0.3-0.2,0.5-0.5,0.5l-20.7-0.1c-0.4,0-0.6-0.2-0.5-0.6c0-3.9,0.4-7.5-0.7-11.3
	c-0.5-1.7-1-3.4-1.5-5.1c-0.2-0.8-1-1.3-1.8-1.3H451c-0.4,0-0.7,0.2-0.9,0.6c-0.7,1.9-1.3,3.8-1.8,5.8c-0.9,3.6-0.5,7.7-0.8,11.6
	c0,0.4-0.2,0.6-0.6,0.6l-19.9-0.1c-0.9,0-1.3-0.4-1.3-1.3l0.1-10.6c0-1.4,0.2-2.9,0.7-4.2c9.4-26.9,18.7-53.9,28.1-80.8
	c0.2-0.5,0.7-0.9,1.2-0.9l20.5,0c0.5,0,0.9,0.3,1,0.7c0.7,1.7,1.4,3.5,2,5.3c8.5,24.9,17.1,49.8,25.7,74.6
	C505.9,1132.1,506.1,1133.9,506.5,1135.9z M461.1,1108.9l9.7,0l5.1,0c0.4,0,0.8-0.3,0.8-0.8c0-0.2-0.1-0.3-0.2-0.5
	c-0.4-0.5-0.7-1.2-1-2c-2.8-8.3-5.9-16.9-9.3-25.9c-0.3-0.8-0.5-0.7-0.7,0.1c-0.2,0.9-0.5,2-1,3.3c-2.9,8.4-5.7,16.8-8.6,25.2
	c-0.1,0.4,0,0.6,0.4,0.6L461.1,1108.9z"/>
<path class="st68" d="M651.3,1130.5l0,16.1c0,0.4-0.3,0.7-0.7,0.7c0,0,0,0,0,0c-12.2-0.3-24.3-0.3-36.4,0c-2.5,0.1-5.2-0.4-7.7-0.4
	c-0.5,0-1-0.5-1-1l0.1-14.8l0.1-3c0-0.3,0.3-0.6,0.6-0.6l11.3-0.1c0.4,0,0.7-0.3,0.7-0.7c0,0,0,0,0,0l-0.1-5.7l0-51.1
	c0-0.5-0.4-0.9-0.9-0.9l-10.5,0c-0.7,0-1.1-0.4-1.1-1.1l-0.1-13.4l0.1-4.3c0-0.4,0.3-0.7,0.7-0.7h44.5c0.3,0,0.5,0.2,0.5,0.5l0,18.5
	c0,0.3-0.3,0.6-0.6,0.6l0,0h-11.3c-0.4,0-0.7,0.3-0.7,0.7l-0.1,57.2c0,0.2,0.2,0.4,0.4,0.4l11.4,0.2c0.4,0,0.8,0.3,0.8,0.8
	L651.3,1130.5z"/>
<path class="st68" d="M829.8,1147.5l-19.9-0.6c-0.6,0-1.1-0.3-1.4-0.9l-29.9-54c-0.6-1-0.8-1-0.8,0.2l0.3,18.4l-0.1,19.6l0,16
	c0,0.7-0.4,1.1-1.1,1.1l-18.1-0.2c-0.5,0-0.8-0.4-0.8-0.8l0-93.3l0-2.9c0-0.3,0.2-0.5,0.5-0.5l18.8,0c0.7,0,1.4,0.4,1.8,1.1
	l29.5,54.9c0.2,0.5,0.4,0.4,0.4-0.1l0-55.2c0-0.3,0.2-0.6,0.6-0.6c0,0,0,0,0,0l19,0c0.5,0,1,0.4,1,1L829.8,1147.5z"/>
<path class="st68" d="M944.8,1089.9c-0.3,11.3-0.5,22.5-0.7,33.8c-0.1,7.6-5.3,13.5-11,18.6c-4.1,3.7-8.7,5.6-13.9,5.7
	c-6.2,0.2-14,0.8-19.5-1.6c-9.1-4-16.2-13.5-19.4-22.4c-0.5-0.7-0.7-1.4-0.8-2.3c0-0.3,0.1-0.6,0.5-0.7l17.8-4.6
	c0.6-0.1,1.1,0.1,1.4,0.7c1.7,3.7,3.9,7.1,6.8,10.1c1.9,2,8.2,1.2,10.9,1.2c2.3,0,3.5-1,4.9-2.6c0.2,0,0.3-0.1,0.3-0.3
	c0.5-0.4,0.8-0.7,1-1.2c0.8-0.8,1.3-1.8,1.3-2.8c-0.1-17.4-0.2-34.6-0.3-51.7c0-0.7-0.3-1-1-1l-24,0.1c-0.3,0-0.5-0.2-0.5-0.5
	l-0.1-1.9l0.5-16.3c0-0.5,0.5-1,1-1l43.9-0.1c0.6,0,0.8,0.3,0.9,0.8C945.2,1063.5,944.8,1076.7,944.8,1089.9z"/>
<path class="st68" d="M1014.6,1097.2c-0.1-13.7-0.2-27.4,0-41.2c0-1.9,0.1-3.9,0.4-5.8c0.1-0.4,0.3-0.7,0.8-0.7l18.7,0
	c0.4,0,0.6,0.2,0.6,0.6l0.2,13c0.1,20.4,0,40.8-0.3,61.2c-0.1,10-14,23.6-24.5,23.6c-7.6,0-15.2-0.1-22.7-0.2
	c-9.8-0.1-17.2-7.8-22.4-15.3c-3.2-4.6-3-12.9-2.9-18.3l0.2-63.6c0-0.8,0.4-1.2,1.2-1.2l18.5,0.1c0.4,0,0.7,0.3,0.7,0.7l0.3,42.4
	l-0.2,23.2c-0.1,0.8-0.1,1.6,0,2.4c-0.3,1.1-0.2,2.4,0.1,3.8c0.9,2.1,4.2,6.4,7.3,6.4c6,0.1,12,0.1,18,0.1c0.7,0,1.4-0.3,2-0.9
	c1.5-1.5,2.8-3,3.8-4.6c0.3-0.5,0.5-1,0.5-1.4"/>
<path class="st68" d="M1129.5,1055.1c0.1,7-0.6,12.5-2,16.7c-8.4,24.8-17,49.6-25.6,74.3c-0.2,0.6-0.8,1-1.5,1l-19.9-0.2
	c-0.5,0-0.9-0.3-1.2-0.7c-0.4-0.6-0.8-1.5-1.1-2.5c-8-23.1-16-46.2-24-69.2c-2.1-6-2.5-11.8-3.1-18.1l0.2-6.1c0-0.5,0.4-0.8,0.9-0.8
	l19,0c0.4,0,0.8,0.4,0.8,0.8c0.1,4.4-0.3,8.9,0.6,13.1c0.7,3.2,1.4,6,2.2,8.4c5,15.4,10.2,30.6,15.7,45.7c0.2,0.5,0.3,0.5,0.5,0
	c0.2-1,0.2-2.2,0.6-3.2c5.1-14.4,9.9-28.8,14.6-43.3c2.3-7.2,2.9-13.3,2.4-20.5c0-0.5,0.3-0.9,0.8-0.9c0,0,0,0,0.1,0h19.2
	c0.4,0,0.7,0.3,0.7,0.7L1129.5,1055.1z"/>
<path class="st68" d="M1211.3,1055l-0.2,13.2c0,0.4-0.3,0.7-0.7,0.7l-43-0.1c-0.3,0-0.4,0.1-0.4,0.4l0,16.6l-0.1,1.5
	c-0.1,0.7,0.3,1.1,1,1.1l40.4,0c0.8,0,1.2,0.4,1.2,1.2l0.1,16.1l-0.1,1.6c0,0.4-0.3,0.7-0.7,0.7l-41.4-0.1c-0.4,0-0.5,0.2-0.5,0.5
	l0,13.3l0,5.5c0,0.4,0.2,0.6,0.6,0.6l42.7,0c0.4,0,0.7,0.2,0.7,0.7l0.3,5.5v12.8c0,0.4-0.2,0.5-0.5,0.5l-63.5-0.3
	c-0.3,0-0.5-0.2-0.5-0.5c-0.4-3.2,0-7.1,0-9.4c0-14.5,0.1-29,0.4-43.4c0.2-13.1-0.2-26.1-0.4-39.2l0.1-4.3c0-0.4,0.3-0.7,0.7-0.7
	l62.9,0c0.3,0,0.6,0.2,0.6,0.6L1211.3,1055z"/>
<path class="st68" d="M1281.7,1147c-1,0-1.9-0.6-2.4-1.4l-29.7-53.8c-0.2-0.3-0.4-0.4-0.7-0.1c-0.1,0.2-0.1,0.5,0,0.9
	c0.9,4,0.1,8.7,0.2,11.6c0.1,10.7,0,21.4-0.2,32.1c-0.1,2.9,0.3,7,0.1,10.5c0,0.5-0.3,0.7-0.8,0.7l-19.1-0.2c-0.2,0-0.3-0.1-0.3-0.3
	c0-0.4-0.1-0.7-0.2-1c0.1-0.3,0.1-0.5,0-0.6l0.3-90.9l0.1-4.3c0-0.4,0.3-0.7,0.7-0.7l19,0c0.7,0,1.3,0.4,1.6,1l29.6,55
	c0.1,0.2,0.4,0.3,0.6,0.2c0.2-0.1,0.3-0.3,0.2-0.5c-0.2-1.5-0.5-3-0.5-4.6c0.2-15.7,0.2-31.4,0.2-47.1c0-1.2,0-2.2,0.1-3.2
	c0-0.5,0.3-0.8,0.8-0.8l18.9,0.1c0.4,0,0.8,0.4,0.8,0.8l0,23.6l0,36.8l0.3,36.1"/>
<path class="st68" d="M1314.7,1147.8l-1.6,0c-1.1,0-1.6-0.6-1.5-1.7l0.9-17.5c0-0.6,0.5-1.1,1.1-1.1l10-0.1c0.6,0,1.2-0.5,1.2-1.2
	l-0.2-44.9l0.2-11.6c0-0.3-0.2-0.5-0.5-0.6l-11.8-0.2l0.1-18.9c0-0.3,0.2-0.5,0.5-0.5h43.9c0.6,0,1.1,0.5,1.1,1.1l0.2,18.1
	c0,0.3-0.1,0.4-0.4,0.4l-11.5,0.1c-0.4,0-0.5,0.2-0.5,0.5l-0.1,57c0,0.5,0.2,0.7,0.7,0.7l10.4,0.2c0.6,0,1.1,0.5,1.1,1.1l0.6,18.2
	c-0.1,0.4-0.3,0.7-0.6,0.7"/>
<path class="st68" d="M1432.8,1147.9l-62.5-0.4c-0.3,0-0.5-0.2-0.6-0.5c0-0.2-0.1-0.4-0.2-0.6c-0.1-1.2-0.1-2.3,0.1-3.3l0-67
	l0.1-25.9c0-0.5,0.3-0.8,0.8-0.8l18.5,0c0.7,0,1.2,0.5,1.2,1.2c0,0,0,0,0,0.1c-0.1,2,0.3,4.2,0.3,6.1c0,23.4-0.1,46.7-0.3,69.9
	c0,0.4,0.3,0.8,0.8,0.8c0,0,0,0,0,0l40.8,0.2c0.3,0,0.5,0.2,0.5,0.5L1432.8,1147.9z"/>
<path class="st69" d="M983.3,1092.7c0.4,6.7,0.4,13.4,0.2,20.1c0,1.1-0.2,2.1-0.5,3.1L983.3,1092.7z"/>
<path class="st68" d="M828.1,1194.6c0.1,1.3-1.4,2.4-4.3,3.2c-4.8,1.3-9.5,2.6-14.1,3.9c-0.6,0.2-1.2-0.1-1.4-0.7
	c-1.7-4-3.9-8.6-7.6-10.8c-1.2-0.7-2.9-1.1-4.9-1c-3.9,0.1-7.8,0.1-11.8,0c-4-0.1-6.6,1.9-8.7,5c-0.8,1.2-1.2,2.6-1.2,4.4
	c0,13.5,0,26.9,0,40.4c-0.6,3.5,0.4,6.2,3,8.2c1.3,1,2,2.3,4.2,2.3c5.7,0.1,11.3,0.1,17,0.1c3.7,0,8.6-8.5,10-11.5
	c0.3-0.6,0.8-0.9,1.5-0.7l17.9,4.8c0.3,0.1,0.5,0.3,0.4,0.6c0,0.4-0.2,0.7-0.4,1c-2.6,5.8-4.4,10.2-9.1,15.7
	c-3.8,4.4-10.7,9.4-16.8,9.5c-6.6,0.1-13.2,0.1-19.8,0c-3.9,0-6.9-0.3-8.8-0.9c-6.4-2.1-11.8-7.7-15.8-12.8
	c-2.7-3.4-3.6-6.7-3.6-10.8c0-5.4-0.1-10.9-0.3-16.4c0-11.5,0-23,0.2-34.7c0.1-7.9,6.6-13.7,12.2-18.4c4-3.4,8.5-5,13.8-5.1
	c7,0,14.1-0.1,21.1,0c9.7,0,18.1,8.4,22.5,16.2C824.8,1189,826.4,1191.8,828.1,1194.6z"/>
<path class="st68" d="M1190,1236.1c-0.1,6.8,0.7,12.9-3.7,18.7c-3.6,4.7-8.9,10.9-15.3,13.2c-2.1,0.7-5.5,1.1-10.1,1.2
	c-7.1,0-14.3,0-21.4-0.1c-3.6,0-7.8-0.7-10.5-2.6c-8.1-5.4-13.3-11.8-15.6-19.4c-0.3-26.5-0.2-44.8,0-55.1
	c0.2-8.3,14.1-20.2,21.2-21.6c1.4-0.3,3.3-0.4,5.7-0.5c12-0.2,20.4-0.2,25.1,0c7.6,0.4,12,4.6,17.4,9.9c5,5,7.2,8.7,7.2,15.8
	C1190,1209.3,1190,1222.7,1190,1236.1z M1133.8,1200.3c0,13.5,0,27,0,40.5c0,1.6,0.4,2.9,1.1,4c1.3,2,3.6,4.9,6.2,4.9
	c7.2,0,14.4,0,21.6-0.2c2.8-0.1,6.9-5,6.9-7.7c-0.1-13.5-0.1-27.1-0.1-40.9c1.1-7-3-11.8-10-11.7c-5.9,0.1-11.8,0.1-17.7,0.1
	c-2.7,0-5.2,2.6-6.8,4.6C1133.5,1195.8,1133.6,1197.9,1133.8,1200.3z"/>
<path class="st68" d="M1282.4,1197.2l-16.2,4.5c-0.5,0.1-1-0.1-1.2-0.6c-1.3-3-6.3-12.2-10.2-12.1c-5.3,0.1-10.6,0.2-15.9,0.1
	c-2.1,0-3.7,0.3-5,1.1c-4.3,2.5-5.2,5.8-4.7,10.9c-0.1,0.1-0.1,0.4,0,0.8c-0.2,0.3-0.1,0.7,0.2,1c0,0.7,0.5,1.2,1.3,1.4
	c11,3,22,6,33,8.9c10.9,2.9,19.1,6,20.5,18.6c0.1,5.8,0.8,15.9-2,20.6c-3.4,5.7-13.4,16.4-20.8,16.4c-9,0.1-17.9,0.1-26.9,0.1
	c-5.4,0-10.5-2-15.1-5.9c-7.2-6.1-9.4-11.7-13-19.3c-0.2-0.3-0.3-0.6-0.4-0.8c-0.1-0.3,0.1-0.6,0.4-0.7l17.8-5.7
	c0.5-0.1,0.9,0.1,1.1,0.5c1.4,3.6,5.9,12.4,10.5,12.4c6.7,0,13.3,0,20,0c3.4,0,5-1.6,6.8-4.1c0.8-0.6,1.2-1.4,1.2-2.3
	c0-2.7,0-5.2,0.1-7.4c0-1.1-0.5-1.8-1.6-2.1c-12.2-3.2-24.2-6.4-35.9-9.6c-4.6-1.2-7.8-2.5-9.7-3.8c-9.4-6.7-7.6-17.9-7.7-27.9
	c0.6-6.9,5.7-11.8,11.1-16.6c5.8-5.1,11.1-5.8,19.4-5.8c6.1,0,12.2,0,18.4,0c7.6,0,15.2,6.8,19.7,12.5c2.9,3.7,5,8.6,7.1,13.1
	c0.2,0.4,0,0.8-0.4,1c0,0,0,0,0,0L1282.4,1197.2z"/>
<path class="st68" d="M697.9,1194.4c0.5,1.3,0.4,2.1-0.4,2.3c-6.1,1.8-12.1,3.5-18.1,5c-0.3,0.1-0.6-0.1-0.7-0.4
	c-1.5-4.1-4.2-8.6-7.9-11.1c-1.2-0.8-2.8-1.2-4.9-1.2c-4.5,0.1-9,0.1-13.5,0.1c-3.7,0-6,1.4-8.1,4.2c-2.1,2.8-1.4,6.9-1.4,10.5
	c11.9,3.4,23.9,6.7,36,9.9c5.8,1.6,9.8,3.1,11.8,4.7c3.7,2.8,6,6.6,7,11.5c0.6,3.2,0.3,7.2,0.4,10.8c-0.1,5.5-0.4,9.9-3.9,14.5
	c-4.9,6.3-12.2,13.5-20.6,13.8c-3.5,0.1-11.8,0.2-25,0.2c-10,0-18.7-7.4-23.8-15.8c-1.4-2.4-2.8-5.2-4.2-8.6
	c-0.4-0.7-0.7-1.3-0.7-1.7c0-0.5,0.3-0.8,1.1-1c5.7-1.8,11.3-3.5,16.7-5.3c0.6-0.2,1.3,0.1,1.5,0.7c1.4,3.8,5.9,12.2,10.7,12.2
	c6.2,0,12.4,0,18.5,0c4.5,0,6.7-1.6,8.8-5.2l0.3-9c0-0.7-0.5-1.4-1.2-1.6c-12.7-3.3-25.3-7.1-38-10.1c-9.6-2.3-14.8-8.7-15.7-19.1
	c-0.2-5.6-0.1-10.4,0.4-14.3c0.8-5.3,6.9-10.9,10.8-14.4c5.7-5,10.8-5.9,19-5.9c5.9,0,11.8,0,17.7,0c11.2,0,20.6,10.4,25,19.7
	C696.3,1191.3,697.1,1192.9,697.9,1194.4z"/>
<path class="st68" d="M225.8,1233c-0.3,2.6-0.2,4.7,0.3,6.3c-0.5,1.7-0.7,3.5-0.4,5.3c-0.9,6.7-3.4,10.6-8.1,15
	c-4.7,4.4-9.7,8.2-15.8,8.5c-10.3,0.6-25.2,0.8-44.7,0.8l-2.8-0.2c-0.3,0-0.5-0.2-0.5-0.6l-0.2-5.6c0.1,0,0.2-0.1,0.3-0.1
	c0.1,0,0.1-0.1,0.1-0.2l-0.2-69.9l0-20.9c0-0.5,0.4-1,1-1c15,0,30.1,0,45.2,0c5.1,0,9.6,1.6,13.6,5.1c4.4,3.8,7.9,7.7,10.3,11.7
	c1.4,2.3,1.8,6.2,1.8,9.3C225.8,1208.8,225.8,1220.9,225.8,1233z M174,1222.8l0,25.3c0,0.5,0.4,0.8,0.8,0.8
	c7.2,0.1,14.3,0.2,21.4,0.2c1.8,0,3.3-0.4,4.4-1.1c3.2-2,4.6-4.3,4.6-8.3c-0.1-10.5-0.1-20.9-0.1-31.3c0.3-5.7,1.7-13.3-3.8-17
	c-1.4-0.9-3.5-1.4-6.3-1.4c-6.9-0.1-13.7,0-20.5,0.1c-0.3,0-0.5,0.2-0.5,0.5L174,1222.8z"/>
<path class="st68" d="M308.5,1178.1l-0.3,11.1c0,0.4-0.2,0.6-0.6,0.6c-13.3,1-27.6,0.2-42.8,0.2c-0.7,0-1,0.3-1,1l0.1,15.2
	c-0.2,0.9-0.2,1.6-0.1,2c0.1,0.8,0.6,1.2,1.4,1.2l40.3,0.1c0.4,0,0.7,0.3,0.7,0.7l0.5,18.4c0,0.1,0,0.2-0.1,0.3
	c0,0.1-0.1,0.2-0.3,0.2l-42.1-0.3c-0.4,0-0.6,0.2-0.6,0.6l0.1,13.4l-0.1,5.5c0,0.3,0.3,0.6,0.6,0.6c0,0,0,0,0,0l42.9,0.1
	c0.4,0,0.7,0.3,0.7,0.6l1.1,18.6c-2.1,0.7-4.4,1-6.7,0.9c-17-0.4-34-0.4-51.1-0.1c-2.3,0-4.5-0.3-6.8-0.6c-0.4-0.1-0.7-0.3-0.7-0.8
	l-0.1-94.5l0.1-2.1c0-0.4,0.2-0.6,0.6-0.6l62.3,0c0.8,0,1.2,0.4,1.2,1.1L308.5,1178.1z"/>
<path class="st68" d="M435.5,1190c-0.1,0.1-0.1,0.1-0.1,0.2c0,0.1-0.1,0.1-0.1,0.1l-25.7-0.2c-0.3,0-0.5,0.2-0.5,0.5l0,32.2l0.3,46
	c0,0.3-0.1,0.5-0.5,0.5l-15,0.2l-5.2-0.5c-0.4,0-0.6-0.3-0.6-0.7l0-77c0-0.7-0.6-1.3-1.3-1.3c0,0,0,0,0,0l-24.3,0.3
	c-0.3,0-0.5-0.2-0.5-0.5l0-12.8l0.3-5.7c0-0.4,0.4-0.7,0.8-0.7l70.5,0c0.8,0,1.5,0.6,1.5,1.5L435.5,1190z"/>
<path class="st68" d="M522.1,1192.9c0,5.2,0,10.3-0.1,15.4c-0.2,8.6-6.6,16.4-13.8,20.4c-0.3,0.2-0.3,0.4-0.2,0.6l4,6.2
	c4,6.1,8.3,12,9.6,19.4c0.3,1.7,0.5,6,0.7,12.9c0.2,0.5,0,0.7-0.5,0.7c-8.2,0.1-14.9,0-20.2-0.2c-0.3,0-0.5-0.2-0.5-0.5l0-10.3
	c0-0.9-0.2-1.7-0.7-2.5l-14.6-23.1c-0.4-0.7-1.1-1.1-1.9-1l-12.6,0.1c-0.8,0-1.1,0.4-1.1,1.2l0.1,33.9l0.3,2.2
	c0.1,0.4-0.1,0.7-0.6,0.7l-19.3-0.1c-0.4,0-0.6-0.2-0.6-0.6l0-96.7c0-0.7,0.4-1.1,1.1-1.1c14.6-0.1,29.1-0.1,43.7,0
	c11,0,15.8,2.8,22.8,11.3C520.3,1185,521.8,1188.7,522.1,1192.9z M470.5,1209.7c-0.3,0.7-0.3,1.3,0,1.8c0.1,0.2,0.4,0.4,0.7,0.4
	c7.8,0,15.5,0,23.3,0c3.6,0,6-1.2,7.1-4.6c0.3-6.9,0.4-11.3,0.1-13.2c-0.4-2.6-3.7-4.1-6.4-4.1c-8.2,0-16.3-0.1-24.5-0.1
	c-0.2,0-0.4,0.1-0.4,0.4L470.5,1209.7z"/>
<path class="st68" d="M604.6,1176.4l-0.1,12.9c0,0.3-0.2,0.5-0.5,0.5c-14.3,0.7-28.7,0.1-43.1,0.2c-0.2,0-0.4,0.1-0.3,0.3l0,13.5
	l0,4.9c0,0.4,0.3,0.7,0.7,0.7l41.2,0.2c0.4,0,0.6,0.2,0.6,0.6l0.1,1.9l-0.1,16.1c0,0.5-0.4,0.8-0.8,0.8l-40.9-0.1
	c-0.4,0-0.7,0.3-0.7,0.7c0,0,0,0,0,0l0,12.7l0,5.7c0,0.5,0.4,0.9,0.9,0.9l42,0c0.4,0,0.8,0.4,0.8,0.8l0.2,7.5l-0.1,10.9
	c0,0.3-0.2,0.5-0.5,0.5c-3.2,0.2-5.6,0.4-6.9,0.4c-17.3-0.1-34.7-0.2-52-0.3c-1.5,0-3,0-4.5,0c-0.3,0-0.5-0.2-0.5-0.5l0-3.9l0.1-3.4
	l0-65.1l0.1-24.3c0-0.5,0.4-0.8,0.8-0.8l62.8,0c0.4,0,0.5,0.2,0.6,0.5L604.6,1176.4z"/>
<path class="st68" d="M920.8,1267.7l0.1,0.5c0.1,0.5-0.1,0.7-0.6,0.7l-20.7-0.2c-0.3,0-0.6-0.3-0.6-0.6c0-2.2,0-4.5,0-6.7
	c0-3.7-1.3-6.8-2.2-10.3c-0.2-0.7-0.8-1.2-1.5-1.2h-30.1c-0.4,0-0.7,0.2-0.8,0.6l-2.3,8.1l-0.2,8.9c0.2,0.3,0.2,0.5,0.2,0.6
	c-0.1,0.4-0.5,0.7-0.8,0.7l-20.2-0.3c-0.5,0-0.8-0.3-0.8-0.8l-0.3-9.8c0-1.9,0.4-3.7,1-5.6c9.3-26.8,18.6-53.8,28-80.8
	c0.2-0.6,0.7-0.9,1.3-0.9h20.3c0.6,0,1.2,0.4,1.4,1l28,81.3c0.3,0.9,0.5,1.8,0.5,2.7L920.8,1267.7z M874.4,1229.9l11.4,0l4.5,0
	c0.3,0,0.5-0.2,0.5-0.5c0-0.1,0-0.1,0-0.2l-9.9-27.8c-0.5-1.3-0.9-1.3-1.2,0.1c-0.2,0.8-0.3,1.7-0.6,2.5c-3,8.4-5.7,16.9-8.9,25.2
	c-0.1,0.3,0,0.5,0.3,0.6c0.1,0,0.1,0,0.2,0L874.4,1229.9z"/>
<path class="st68" d="M1009.5,1269.1l-19.9-0.8c-0.7,0-1.2-0.3-1.5-0.9l-30-54.5c-0.1-0.1-0.2-0.2-0.3-0.1c-0.1,0-0.1,0.1-0.1,0.2
	l-0.1,55.3c0,0.4-0.2,0.7-0.7,0.7l-19.3,0c-0.4,0-0.6-0.2-0.6-0.6l0.2-52.6c-0.2-20-0.8-33.9,0.3-44.7c0-0.3,0.2-0.5,0.5-0.5l19.4,0
	c0.5,0,0.9,0.3,1.1,0.7l29.1,54c0.9,1.7,1.4,1.7,1.3-0.2c0-1-0.3-2.5-0.3-3.8c0.1-15.8,0.1-32.2,0.1-49.4c0-0.9,0.4-1.3,1.3-1.3
	l18.5,0c0.4,0,0.8,0.4,0.8,0.8L1009.5,1269.1z"/>
<path class="st68" d="M1098.5,1174.9l-0.1,14.3c0,0.3-0.2,0.5-0.5,0.5c-6.8,0.7-13.5,0.8-20.2,0.3c-0.9-0.1-2.5,0-4.8,0.3
	c-0.3,0-0.5,0.2-0.5,0.5c-0.5,4.4-0.5,8.9,0,13.5l0.2,64.4c0,0.5-0.4,0.8-0.8,0.8c0,0,0,0,0,0l-20.3-0.2c-0.4,0-0.6-0.2-0.6-0.6
	l0.2-65.6l0.1-11.7c0-1.1-0.5-1.6-1.6-1.6l-24.8,0.3l0.5-19c0-0.2,0.2-0.4,0.4-0.5c1-0.2,2-0.3,3.1-0.3c22.9,0,45.7,0,68.5,0.1
	c0.5,0,1,0.4,1,1c0,0,0,0.1,0,0.1C1098,1173.1,1098.1,1174.2,1098.5,1174.9z"/>
<path class="st69" d="M153.7,1192.4l0.2,69.9c0,0.1,0,0.1-0.1,0.2c-0.1,0-0.2,0.1-0.3,0.1L153.7,1192.4z"/>
<path class="st69" d="M153.1,1194L153.1,1194c0.1,0,0.3,0.1,0.3,0.2l0.1,73.2c0,0.1-0.1,0.3-0.2,0.3l0,0c-0.1,0-0.3-0.1-0.3-0.2
	l-0.1-73.2C152.8,1194.1,152.9,1194,153.1,1194z"/>
<path class="st69" d="M540.1,1195.7l0,65.1c0-3.4-0.2-10.9-0.6-22.3C539,1226.5,539.2,1212.2,540.1,1195.7z"/>
</svg>
