<svg width="1448" height="1448" xmlns="http://www.w3.org/2000/svg" xml:space="preserve" version="1.1">

 <g>
  <title>Layer 1</title>
  <path id="svg_233" fill-opacity="0.196" d="m983.3,1092.7c0.4,6.7 0.4,13.4 0.2,20.1c0,1.1 -0.2,2.1 -0.5,3.1l0.3,-23.2z" class="st69"/>
  <g stroke="null" id="svg_249">
   <path stroke="null" id="svg_180" fill="#FFF677" d="m969.37149,78.42241c0.29801,0.29802 0.44701,0.44702 0.29801,0.74504c-69.1376,-9.53652 -140.95727,-4.61925 -210.39288,10.57957c-14.45334,3.12917 -25.47959,5.96032 -32.92976,8.34445l-59.75039,1.7881c0.29801,-0.14901 0.29801,-0.44702 0.29801,-0.59603c-0.149,-0.44702 -0.29801,-0.74504 -0.89402,-0.89405c-3.87409,-0.44702 -9.68522,-1.34107 -17.2844,-2.83115c-13.70832,-2.53314 -33.07877,-4.91727 -58.11135,-6.85437c-45.74406,-3.7252 -91.33912,-1.93711 -136.78517,5.5133c-3.72509,0.59603 -7.15217,2.08611 -10.28124,4.61925c-26.96963,21.01014 -51.5552,43.65937 -73.60771,68.39471c-0.29801,0.29802 -0.44701,0.14901 -0.74502,-0.14901c-0.149,-0.14901 -0.149,-0.29802 -0.29801,-0.59603c-2.98007,-15.49684 -8.94021,-29.65261 -17.73141,-42.61631c-0.29801,-0.29802 -0.74502,-0.44702 -1.63904,-0.59603c0.29801,-0.14901 0.59601,-0.59603 0.89402,-1.34107c19.07244,-7.3014 35.76083,-12.9637 49.76715,-16.98692c12.21828,-3.42719 27.41664,-7.00338 45.59506,-10.43057c1.49003,-0.29802 3.72509,-1.19206 4.91711,-1.93711c7.00316,-5.21528 14.30433,-10.13255 21.4565,-15.04982c33.07877,-22.0532 68.54159,-39.93417 106.09046,-53.19589c6.10914,-2.23512 12.36729,-4.32123 18.62543,-6.10933c31.88674,-9.83453 64.6675,-15.49684 98.04427,-17.28494c8.34419,-0.44702 16.53938,-0.59603 24.88358,-0.59603c9.38722,0 18.62543,0.14901 28.01265,0.14901c4.02309,0 8.7912,1.04306 13.70832,1.49008c30.2477,2.83115 62.13444,9.53652 91.63713,19.52006c41.42296,13.85775 80.16386,32.78178 116.2227,56.92109z" class="st49"/>
   <path stroke="null" id="svg_181" fill="#CCE494" d="m350.56013,122.08178c-0.29801,0.59603 -0.59601,1.04306 -0.89402,1.34107c-30.39671,12.21866 -58.11135,27.41749 -83.59094,45.29846c-6.55615,4.61925 -11.62227,8.04644 -15.34736,10.43057c-2.23505,1.34107 -3.72509,3.27818 -5.81113,4.91727c-25.7776,20.86113 -47.3831,42.3183 -69.43561,69.88479c-2.98007,3.7252 -5.81113,7.59941 -8.34419,11.62263c-0.44701,0.44702 -1.04302,0.74504 -1.63904,0.59603c-41.72097,-49.02366 -37.39987,-122.33564 11.17526,-164.95195c53.19423,-46.34152 132.61308,-36.20897 173.88703,20.86113z" class="st50"/>
   <path stroke="null" id="svg_182" fill="#61CCB3" d="m969.8185,79.16745c0.149,0.29802 0.44701,0.44702 0.89402,0.44702c46.63808,31.88773 87.91204,69.88479 124.11988,113.99119c-0.74502,1.93711 -1.63904,4.32123 -2.83107,7.15239c-2.68206,7.00338 -4.4701,14.15577 -6.25815,21.45716c-91.33912,-68.54372 -193.8535,-108.92491 -307.39413,-121.29258c-12.06928,-1.34107 -29.50268,-2.23512 -52.00221,-2.83115c7.59918,-2.38413 18.47643,-5.06628 32.92976,-8.34445c69.43561,-15.19883 141.25528,-20.11609 210.54188,-10.57957z" class="st51"/>
   <path stroke="null" id="svg_183" fill="#7BD7EF" d="m969.37149,78.42241c52.59822,6.70536 102.66338,21.30816 150.19548,43.65937c4.02309,1.93711 13.41031,7.00338 28.31066,15.34783c-0.149,0.14901 -0.29801,0.44702 -0.29801,0.59603c-1.63904,0.89405 -3.42708,1.93711 -5.51313,3.12917c-20.41347,11.92065 -36.20784,29.35459 -47.2341,52.15283c-36.35684,-43.95739 -77.6308,-81.95445 -124.26888,-113.69317c-0.44701,0 -0.74502,-0.14901 -0.89402,-0.44702c0.149,-0.29802 0,-0.59603 -0.29801,-0.74504z" class="st52"/>
   <path stroke="null" id="svg_184" fill="#FFF102" d="m666.59646,99.87958c-107.43149,9.08949 -205.77377,43.51036 -295.02684,103.41161c-0.149,0 -0.29801,0 -0.44701,-0.14901c-0.149,0 -0.29801,-0.14901 -0.149,-0.29802c1.63904,-11.17561 1.19203,-22.20221 -1.34103,-33.2288c-0.149,-0.44702 0,-0.89405 0.149,-1.34107l0.44701,-1.04306c22.05251,-24.58633 46.48908,-47.38457 73.60771,-68.39471c3.27808,-2.53314 6.70516,-4.02322 10.28124,-4.61925c45.29705,-7.4504 90.89211,-9.2385 136.78517,-5.5133c25.03258,2.08611 44.40303,4.32123 58.11135,6.85437c7.59918,1.49008 13.41031,2.38413 17.2844,2.83115c0.44701,0 0.74502,0.29802 0.89402,0.89405c-0.29801,0.14901 -0.44701,0.44702 -0.59601,0.59603z" class="st53"/>
   <path stroke="null" id="svg_185" fill="#FFFFFF" d="m726.34685,98.09148c22.49952,0.59603 39.78392,1.49008 52.00221,2.83115c113.54063,12.51668 216.05501,52.89787 307.24513,121.14358l0.149,2.53314c-1.19203,11.0266 -1.49003,19.66907 -0.89402,25.7784c3.27808,35.91095 19.37045,64.37149 47.97911,85.67965c11.77127,8.64247 23.39354,14.7518 35.16482,18.02998c10.43024,2.98016 17.88041,4.61925 22.35052,5.06628c5.96014,0.59603 14.60234,0.44702 26.0756,-0.44702c0.59601,0.74504 1.04302,1.34107 1.49003,1.93711c60.1974,87.02072 95.80922,183.27995 106.68648,288.77768c2.08605,20.56312 3.12907,35.91095 2.83107,45.74548c-0.44701,16.5399 0.29801,33.52682 -0.74502,49.7687c-0.44701,6.85437 -0.89402,13.70874 -1.34103,20.56312c-1.49003,13.26172 -2.83107,24.43733 -4.02309,33.2288c-12.36729,84.48759 -41.57196,162.86584 -85.82599,235.7308c0.149,0.29802 -0.149,0.59603 -1.04302,1.04306c-28.75767,-4.91727 -55.28028,-0.44702 -79.56785,13.11271c-48.57513,27.26848 -70.32963,84.7856 -53.49224,137.53447c-0.149,0.44702 -0.29801,0.89405 -0.89402,1.34107c-0.29801,0.14901 -0.44701,0.14901 -0.59601,0.29802c-93.27616,74.65305 -205.47577,121.73961 -324.97654,132.6172c-4.1721,0.29802 -10.13224,1.49008 -15.19835,1.63909c-8.7912,0.29802 -16.53938,1.49008 -24.28756,1.34107c-16.39038,-0.29802 -29.65169,-0.29802 -39.93293,-0.14901c-5.66213,0.14901 -11.32426,-0.14901 -16.98639,-0.89405c-4.3211,-0.59603 -9.08921,0 -12.66529,-0.44702c-7.30117,-0.89405 -12.21828,-1.63909 -14.60234,-1.7881c-99.0873,-10.43057 -190.27741,-42.76532 -273.42134,-97.15327l-0.149,-0.74504c5.96014,-13.55974 9.53622,-26.67245 11.02626,-39.04012c3.42708,-29.80162 -8.94021,-62.88141 -28.01265,-85.23263c-20.26447,-23.84129 -46.04207,-37.55004 -77.4818,-40.97722c-22.20152,-2.53314 -44.25403,1.7881 -66.15753,12.9637c-5.81113,-8.34445 -11.17526,-16.24188 -15.94337,-23.69229c-53.34324,-82.25246 -85.37898,-172.25335 -96.10723,-270.00266c-0.74502,-7.4504 -1.63904,-14.7518 -1.49003,-22.64923c0,-4.17223 -0.59601,-8.49346 -1.78804,-12.9637l0.29801,-10.13255c0.149,-13.41073 0.149,-26.97046 0.149,-40.38119c0,-8.34445 1.34103,-18.17899 1.04302,-27.5665c0,-3.12917 1.19203,-5.96032 1.19203,-9.38751c0,-3.42719 0.29801,-6.85437 1.04302,-10.13255c0.44701,-2.23512 0.29801,-4.47024 0.44701,-6.40735c10.57925,-85.53064 37.84688,-165.39898 81.65389,-239.456c17.58241,-29.65261 38.5919,-59.0072 63.02846,-87.61676c1.78804,-2.08611 3.57608,-3.12917 5.51313,-3.42719c3.87409,0.29802 7.30117,0.29802 10.13224,-0.14901c54.83327,-9.2385 93.12716,-44.40441 103.70641,-99.98443c0,-0.29802 0.149,-0.74504 0.44701,-1.04306c0.59601,-0.59603 0.89402,-1.19206 0.89402,-1.63909c89.40207,-59.90125 187.74436,-94.32212 295.02684,-103.41161l60.04839,-1.7881z" class="st54"/>
   <path stroke="null" id="svg_186" fill="#CFDE31" d="m349.66611,123.42286c0.89402,0 1.34103,0.14901 1.63904,0.59603c8.7912,12.9637 14.75134,27.26848 17.73141,42.61631c0,0.29802 0.149,0.44702 0.29801,0.59603c0.29801,0.29802 0.44701,0.29802 0.74502,0.14901l-0.44701,1.04306c-0.149,0.44702 -0.29801,0.89405 -0.149,1.34107c2.53306,11.0266 2.98007,22.0532 1.34103,33.2288c0,0.14901 0,0.29802 0.149,0.29802c0.149,0 0.29801,0.14901 0.44701,0.14901c0,0.44702 -0.29801,1.04306 -0.89402,1.63909c0,-0.14901 -0.149,-0.29802 -0.29801,-0.29802c-0.29801,-0.14901 -0.44701,-0.29802 -0.74502,-0.14901c-2.08605,1.04306 -5.51313,3.42719 -10.13224,6.85437c-16.68839,12.06966 -29.35368,21.90419 -38.14488,29.20559c-3.72509,3.12917 -6.70516,5.36429 -10.13224,8.64247c-2.68206,2.68215 -6.10914,4.61925 -8.4932,7.00338c-3.42708,3.42719 -6.85416,6.85437 -10.28124,10.28156c-1.63904,1.63909 -3.87409,2.83115 -5.36412,4.17223c-6.70516,6.40735 -17.1354,16.09287 -24.58557,25.33138c-2.38406,2.98016 -4.76811,5.81132 -7.30117,8.49346l-4.91711,2.53314c-32.48275,-3.87421 -59.75039,-14.60279 -82.24991,-38.89111c-0.44701,-0.59603 -0.74502,-1.49008 -0.59601,-2.68215c2.53306,-4.02322 5.21512,-7.89743 8.34419,-11.62263c22.20152,-27.5665 43.80702,-49.02366 69.43561,-69.88479c2.08605,-1.7881 3.57608,-3.57619 5.81113,-4.91727c3.72509,-2.23512 8.7912,-5.81132 15.34736,-10.43057c25.18158,-18.02998 53.04523,-33.0798 83.44194,-45.29846z" class="st55"/>
   <path stroke="null" id="svg_187" fill="#FF86C2" d="m1305.07627,297.16629c0,0.29802 -0.149,0.29802 -0.74502,0.14901c-0.29801,-0.14901 -0.44701,-0.29802 -0.44701,-0.59603c0,-0.29802 -0.149,-0.74504 -0.29801,-0.89405c-10.13224,-18.17899 -21.6055,-35.61293 -34.5688,-51.85481c-20.41347,-25.92741 -42.913,-48.42763 -68.39259,-69.43777c-16.68839,-13.70874 -34.4198,-25.7784 -53.04523,-36.35797c0.149,-0.14901 0.29801,-0.44702 0.29801,-0.59603c5.06612,-1.93711 10.57925,-4.76826 15.34736,-6.25834c63.92248,-20.11609 128.73899,11.92065 149.89748,75.69611c3.72509,11.17561 6.40715,25.33138 5.81113,39.93417c-0.74502,17.73196 -6.40715,34.27186 -13.85732,50.21573z" class="st56"/>
   <path stroke="null" id="svg_188" fill="#C377BF" d="m1147.57962,138.17466c18.62543,10.57957 36.35684,22.64923 53.04523,36.35797c25.47959,21.01014 47.97911,43.51036 68.39259,69.43777c12.9633,16.39089 24.43657,33.67583 34.5688,51.85481c0.149,0.29802 0.29801,0.59603 0.29801,0.89405c0,0.29802 0.29801,0.44702 0.44701,0.59603c0.44701,0.14901 0.74502,0.14901 0.74502,-0.14901c0.29801,0.14901 0.44701,0.44702 0.59601,0.74504c-0.44701,-0.14901 -0.74502,-0.14901 -1.19203,0c-0.29801,0.14901 -0.59601,0.29802 -0.74502,0.74504c-12.06928,21.45716 -29.05567,37.55004 -50.95918,48.72564c-0.44701,0.14901 -0.59601,0.74504 -0.44701,1.19206c0,0.14901 0.149,0.14901 0.29801,0.29802c32.33375,26.07642 61.68743,55.43101 88.35905,87.91477c5.96014,7.15239 11.47327,14.60279 16.98639,22.35121c0.59601,0.89405 1.34103,2.08611 1.49003,3.27818c12.8143,83.74255 5.21512,171.06129 -16.53938,252.56871c-1.78804,6.55636 -3.42708,12.8147 -5.06612,18.92403l-9.68522,29.80162c-0.149,0.44702 -0.44701,0.74504 -0.74502,0.89405l-2.08605,1.04306c0.44701,-6.85437 0.89402,-13.70874 1.34103,-20.56312c1.04302,-16.24188 0.29801,-33.2288 0.74502,-49.7687c0.29801,-9.83453 -0.74502,-25.18237 -2.83107,-45.74548c-11.02626,-105.49773 -46.48908,-201.75695 -106.68648,-288.77768c-0.44701,-0.59603 -0.89402,-1.19206 -1.49003,-1.93711c11.62227,-2.53314 22.64853,-4.91727 33.37677,-9.98354c0.59601,-0.29802 0.89402,-1.04306 0.59601,-1.63909c-0.149,-0.14901 -0.149,-0.29802 -0.29801,-0.44702c-23.69155,-18.92403 -48.42612,-36.20897 -74.20372,-51.70581c-9.23821,-5.66231 -16.39038,-9.68553 -21.15849,-12.06966c-13.55931,-14.15577 -28.01265,-27.7155 -43.36001,-40.67921c-8.7912,-7.4504 -16.68839,-13.41073 -23.84055,-17.88097c-0.74502,-0.44702 -1.34103,-0.29802 -1.78804,0.44702l-0.149,-2.53314c1.78804,-7.3014 3.57608,-14.45378 6.25815,-21.45716c1.04302,-2.83115 2.08605,-5.21528 2.83107,-7.15239c11.02626,-22.79824 26.82062,-40.23218 47.2341,-52.15283c2.23505,-1.49008 4.02309,-2.53314 5.66213,-3.42719z" class="st57"/>
   <path stroke="null" id="svg_189" fill="#7C8F5D" d="m370.52659,204.93028c-0.149,0.29802 -0.29801,0.74504 -0.44701,1.04306c-10.57925,55.58002 -48.72413,90.74593 -103.70641,99.98443c-2.83107,0.44702 -6.25815,0.59603 -10.13224,0.14901c-0.89402,0 -1.34103,-0.44702 -1.34103,-1.49008c2.53306,-2.68215 4.91711,-5.5133 7.30117,-8.49346c7.45017,-9.2385 17.88041,-19.07304 24.58557,-25.33138c1.49003,-1.34107 3.72509,-2.53314 5.36412,-4.17223c3.42708,-3.42719 6.85416,-6.85437 10.28124,-10.28156c2.53306,-2.53314 5.81113,-4.47024 8.4932,-7.00338c3.42708,-3.27818 6.40715,-5.66231 10.13224,-8.64247c8.7912,-7.4504 21.6055,-17.13593 38.14488,-29.20559c4.76811,-3.42719 8.04619,-5.66231 10.13224,-6.85437c0.29801,-0.14901 0.59601,-0.14901 0.74502,0.14901c0.29801,-0.14901 0.44701,0 0.44701,0.14901z" class="st58"/>
   <path stroke="null" id="svg_190" fill="#AC627D" d="m1154.73179,282.86151c5.66213,5.36429 10.87725,10.87759 15.34736,16.5399c15.34736,18.92403 31.14172,37.55004 46.19107,56.92109c0.29801,0.44702 0.44701,0.89405 0.29801,1.34107l-0.149,1.04306c-11.47327,0.89405 -20.11547,1.04306 -26.0756,0.44702c-4.4701,-0.44702 -11.92028,-2.23512 -22.35052,-5.06628c-11.62227,-3.27818 -23.39354,-9.2385 -35.16482,-18.02998c-28.60866,-21.30816 -44.70104,-49.7687 -47.97911,-85.67965c-0.59601,-6.10933 -0.29801,-14.7518 0.89402,-25.7784c0.44701,-0.74504 1.04302,-0.89405 1.78804,-0.44702c7.15217,4.47024 15.04935,10.57957 23.84055,17.88097c15.34736,13.11271 29.80069,26.67245 43.36001,40.82822z" class="st59"/>
   <path stroke="null" id="svg_191" fill="#FFF677" d="m167.28588,265.57657c-0.149,1.19206 0,2.08611 0.59601,2.68215c22.49952,24.28832 49.91616,35.0169 82.24991,38.89111c-63.47547,41.27524 -119.94778,93.42807 -163.9038,155.11742c-0.44701,0.59603 -0.74502,0.59603 -1.34103,0.44702c9.08921,-52.89787 26.37361,-103.1136 51.40619,-150.64718c4.61911,-8.79148 14.45334,-24.13931 29.35368,-45.74548c0.59601,-0.14901 1.04302,-0.29802 1.63904,-0.74504z" class="st49"/>
   <path stroke="null" id="svg_192" fill="#FF369C" d="m1154.73179,282.86151c4.91711,2.38413 11.92028,6.40735 21.15849,12.06966c25.62859,15.64585 50.36317,32.78178 74.20372,51.70581c0.59601,0.44702 0.59601,1.19206 0.149,1.63909c-0.149,0.14901 -0.29801,0.29802 -0.44701,0.29802c-10.72825,4.91727 -21.90351,7.4504 -33.37677,9.98354l0.149,-1.04306c0.149,-0.44702 0,-0.89405 -0.29801,-1.34107c-14.90035,-19.37105 -30.69471,-37.84805 -46.19107,-56.92109c-4.4701,-5.5133 -9.68522,-11.0266 -15.34736,-16.39089z" class="st60"/>
   <path stroke="null" id="svg_193" fill="#7BD7EF" d="m1305.82129,297.91133c22.64853,41.57326 37.54887,82.8485 47.97911,128.29596c1.19203,5.36429 3.27808,16.39089 5.96014,33.2288c-0.44701,-0.29802 -1.04302,-0.29802 -1.78804,-0.29802c-5.36412,-7.59941 -11.02626,-15.04982 -16.98639,-22.35121c-26.52262,-32.48376 -56.0253,-61.83836 -88.35905,-87.91477c-0.44701,-0.29802 -0.44701,-0.89405 -0.149,-1.19206c0.149,-0.14901 0.149,-0.14901 0.29801,-0.29802c21.90351,-11.0266 38.8899,-27.26848 50.95918,-48.72564c0.149,-0.44702 0.44701,-0.59603 0.74502,-0.74504c0.44701,-0.14901 0.89402,-0.14901 1.34103,0z" class="st52"/>
   <path stroke="null" id="svg_194" fill="#7FD2A5" d="m255.04891,304.61669c0.149,1.04306 0.59601,1.49008 1.34103,1.49008c-1.93704,0.29802 -3.87409,1.34107 -5.51313,3.42719c-24.43657,28.75856 -45.44605,57.96415 -63.02846,87.61676c-43.95602,74.05702 -71.07465,153.77635 -81.65389,239.456c-0.29801,1.93711 0,4.17223 -0.44701,6.40735c-0.74502,3.42719 -1.04302,6.70536 -1.04302,10.13255c0,3.42719 -1.34103,6.10933 -1.19203,9.38751c0.149,9.2385 -1.19203,19.22204 -1.04302,27.5665c0,13.55974 0,26.97046 -0.149,40.38119c-0.44701,0.14901 -0.74502,0.14901 -1.04302,0.14901c-0.44701,0 -0.74502,-0.29802 -0.89402,-0.74504c-22.79753,-85.97767 -29.35368,-175.53153 -15.34736,-263.59531c0.149,-1.04306 -0.149,-1.34107 -1.04302,-1.19206c0.149,-0.89405 0.59601,-1.7881 1.19203,-2.53314c0.44701,0.29802 0.89402,0.14901 1.34103,-0.44702c43.95602,-61.54034 100.42833,-113.69317 163.9038,-155.11742l4.61911,-2.38413z" class="st61"/>
   <path stroke="null" id="svg_195" fill="#707274" d="m727.83688,667.89841l0.149,39.63615c0,0.74504 -0.59601,1.49008 -1.34103,1.49008c-11.77127,1.49008 -22.49952,0 -33.97279,-0.29802c-15.04935,-0.44702 -29.65169,-0.59603 -44.10502,-0.74504c-1.04302,0 -1.49003,-0.59603 -1.49003,-1.49008c0.29801,-15.49684 2.23505,-31.44071 -2.83107,-46.19251c-2.53306,-7.3014 -5.06612,-14.45378 -7.59918,-21.45716c-0.149,-0.59603 -0.74502,-0.89405 -1.34103,-0.89405c-27.26763,0.14901 -53.49224,2.38413 -81.35589,0.74504c-12.21828,-0.74504 -24.58557,-0.59603 -36.80385,-1.04306c-0.89402,0 -1.63904,0.44702 -1.93704,1.34107c-3.27808,9.2385 -6.25815,18.62601 -8.94021,27.86451c-1.04302,3.27818 -1.49003,6.85437 -1.49003,10.43057c0,9.98354 0,19.81808 0,29.65261c0,0.59603 -0.44701,1.04306 -1.04302,1.04306l-80.01486,1.49008c-0.44701,0 -0.74502,-0.14901 -0.74502,-0.59603l-0.149,-2.53314c0,-16.09287 0.44701,-30.24864 1.34103,-42.46731c1.04302,-13.70874 7.30117,-26.67245 11.77127,-39.93417c31.58873,-91.19295 63.17747,-182.23689 94.6172,-273.42984c1.04302,-2.83115 2.08605,-5.81132 3.27808,-8.64247c0.29801,-0.74504 1.19203,-1.34107 1.93704,-1.34107l80.75987,-0.14901c0.59601,0 1.04302,0.29802 1.19203,0.89405c0.74502,2.08611 1.63904,4.17223 2.38406,6.55636c31.88674,92.38501 63.77348,184.91904 95.66022,277.30405c3.57608,10.28156 10.13224,23.9903 10.87725,36.35797c0.59601,2.38413 0.89402,4.32123 1.19203,6.40735zm-121.28881,-102.21955c0.29801,0.14901 0.74502,0.14901 1.49003,0l7.00316,-0.14901c0.89402,0 1.63904,-0.74504 1.49003,-1.63909c0,-0.14901 0,-0.29802 -0.149,-0.44702l-19.51945,-56.32506c-0.149,-0.44702 -0.29801,-0.89405 -0.29801,-1.34107c-0.149,-1.34107 -1.34103,-2.53314 -1.63904,-3.7252c-2.38406,-8.19544 -5.21512,-16.39089 -8.4932,-24.43733c-3.72509,-9.2385 -7.00316,-18.02998 -9.68522,-26.22542c-0.74502,-2.08611 -1.34103,-2.08611 -2.08605,0l-38.5919,111.75607c-0.59601,1.63909 0,2.53314 1.78804,2.53314l68.69059,0z" class="st62"/>
   <path stroke="null" id="svg_196" fill="#707274" d="m981.44077,633.17953c-5.06612,21.45716 -21.90351,39.33814 -37.69787,53.94093c-8.6422,8.04644 -16.68839,13.85775 -24.13856,17.28494c-9.68522,4.61925 -19.81746,7.00338 -30.39671,7.3014c-11.02626,0.44702 -27.11863,0.29802 -48.42612,-0.14901c-19.81746,-0.44702 -36.20784,-9.53652 -51.5552,-21.30816c-5.81113,-4.47024 -11.17526,-9.53652 -16.09237,-15.04982c-0.149,-0.29802 -0.29801,-0.44702 -0.29801,-0.89405c0,-0.14901 0,-0.44702 0,-0.59603c0,-0.29802 -0.29801,-0.59603 -0.44701,-0.74504c-1.04302,-0.89405 -1.78804,-1.93711 -2.53306,-3.12917c-0.29801,-0.44702 -0.59601,-0.74504 -1.04302,-0.89405c-0.44701,-0.14901 -0.74502,-0.44702 -0.89402,-0.89405c-0.149,-0.29802 -0.29801,-0.74504 -0.59601,-1.04306c-3.42708,-3.7252 -6.55615,-7.74842 -9.23821,-12.06966c-0.149,-0.29802 -0.44701,-0.59603 -0.89402,-0.59603c-0.29801,0 -0.29801,-0.29802 -0.29801,-0.44702c0.149,-0.44702 0.149,-0.74504 -0.149,-1.19206c-6.55615,-11.62263 -12.21828,-23.84129 -17.1354,-36.65599l-1.19203,-2.68215c-0.44701,-0.89405 0,-1.93711 0.89402,-2.38413c0.149,0 0.149,0 0.29801,-0.14901l68.8396,-17.73196c1.04302,-0.29802 2.23505,0.29802 2.68206,1.34107c7.00316,16.5399 17.1354,30.99368 30.2477,43.21235c0.89402,0.89405 1.93704,1.19206 3.12907,1.34107c11.92028,0.14901 23.98956,0.14901 36.20784,0c3.12907,0 5.36412,-0.44702 7.00316,-1.49008c6.25815,-3.87421 19.37045,-13.85775 19.37045,-21.30816c-0.89402,-60.34828 -1.19203,-120.69655 -0.74502,-181.04483l0.74502,-19.52006c0,-1.19206 -0.89402,-2.08611 -1.93704,-2.23512c0,0 0,0 -0.149,0l-93.87218,0.14901c-0.59601,0 -0.74502,-0.29802 -0.89402,-0.74504l-0.44701,-7.59941c0,-16.5399 0.149,-33.0798 0.29801,-49.61969c0,-5.06628 0.59601,-9.98354 1.93704,-14.90081c0.149,-0.29802 0.44701,-0.59603 0.74502,-0.59603l169.56593,0c0.29801,0 0.59601,0.14901 0.59601,0.44702c0.74502,4.91727 1.04302,9.83453 1.04302,15.04982c0.149,76.59016 0.149,153.18032 0.29801,229.77047c-0.149,16.09287 0.149,34.56988 -2.83107,47.8316z" class="st62"/>
   <path stroke="null" id="svg_197" fill="#FF86C2" d="m1357.9725,458.98907c0.74502,0 1.34103,0.14901 1.78804,0.29802c6.40715,10.43057 13.1123,20.86113 19.66846,31.58971c27.26763,43.65937 46.93609,90.44791 58.70736,140.66364c1.78804,7.74842 4.4701,23.39427 7.74818,46.93755c1.34103,9.38751 0.74502,20.71212 0.89402,31.14269c0.29801,21.60617 1.63904,43.21235 -0.89402,63.17943c-1.93704,15.79486 -5.81113,35.31492 -11.77127,58.56018c-7.00316,27.5665 -16.53938,53.79192 -28.45966,78.67627c-4.3211,9.08949 -9.83423,19.81808 -16.53938,32.48376c-5.96014,11.32461 -15.94337,26.52344 -29.80069,45.89449c-1.04302,1.49008 -1.78804,4.02322 -2.08605,6.10933c-5.81113,42.02028 -16.68839,82.55048 -32.63176,121.73961c0,0.14901 -0.29801,0.14901 -0.74502,0c-6.10914,-19.52006 -16.53938,-36.50698 -31.29073,-50.96077c0,0 -0.29801,-0.14901 -0.74502,-0.29802c-0.149,0 -0.29801,-0.14901 -0.29801,-0.44702c0.149,0.14901 0.44701,0.14901 0.59601,0.14901c0.149,0 0.29801,-0.14901 0.59601,-0.29802c22.20152,-21.45716 42.61499,-44.40441 61.24042,-69.13975c2.23505,-2.98016 3.57608,-6.10933 3.87409,-9.53652c9.83423,-81.0604 2.38406,-162.1208 -18.02942,-240.94608c-0.29801,-1.19206 -0.59601,-3.12917 -1.04302,-5.5133c-0.29801,-1.7881 -0.59601,-3.57619 -1.19203,-5.5133c1.63904,-6.10933 3.27808,-12.36767 5.06612,-18.92403c21.7545,-81.50742 29.35368,-168.97517 16.53938,-252.56871c0.149,-1.19206 -0.59601,-2.38413 -1.19203,-3.27818z" class="st56"/>
   <path stroke="null" id="svg_198" fill="#7BD7EF" d="m83.69494,465.0984c0.89402,-0.14901 1.19203,0.29802 1.04302,1.19206c-14.00632,88.06378 -7.45017,177.46863 15.34736,263.59531c0.149,0.44702 0.44701,0.74504 0.89402,0.74504c0.29801,0 0.74502,0 1.04302,-0.14901l-0.29801,10.13255c-4.61911,19.66907 -8.34419,39.04012 -11.17526,57.96415c-9.68522,63.92447 -9.23821,127.69993 1.49003,191.47539c0.149,0.59603 0,1.04306 -0.44701,1.19206c-0.29801,-0.29802 -0.44701,-0.74504 -0.44701,-1.04306c-0.149,-0.44702 -0.29801,-0.74504 -0.44701,-1.04306c-6.25815,-8.79148 -12.21828,-17.73196 -18.02942,-26.82146c-21.4565,-33.67583 -38.5919,-69.43777 -51.10819,-107.28582c-2.38406,-7.15239 -4.4701,-14.30478 -6.55615,-21.45716c-8.7912,-31.2917 -12.21828,-58.8582 -14.45334,-87.46775c-0.89402,-11.77164 -0.44701,-22.94725 -0.44701,-34.42087c0,-6.55636 0.74502,-16.98692 2.08605,-31.58971c1.34103,-13.70874 2.38406,-22.94725 3.27808,-28.01352c11.62227,-67.79868 39.03891,-130.8291 78.22681,-187.00515z" class="st52"/>
   <path stroke="null" id="svg_199" fill="#CFCFCF" d="m797.5705,708.87564c0.29801,0.29802 0.59601,0.59603 0.89402,0.74504c0.149,0.14901 0.29801,0.14901 0.44701,0.14901c0.149,0 0.149,0 0,-0.14901c-1.04302,-1.19206 -2.23505,-2.08611 -3.57608,-2.68215c-2.23505,-1.19206 -2.98007,-3.12917 -5.36412,-4.47024c-1.63904,-0.89405 -3.27808,-2.08611 -4.76811,-3.42719c-0.149,-0.14901 -0.29801,-0.14901 -0.59601,-0.14901c-0.29801,0 -0.29801,0 -0.149,0.14901c3.87409,3.27818 7.89718,6.25834 12.06928,8.94049c0.44701,0.29802 0.74502,0.44702 1.04302,0.89405z" class="st63"/>
   <path stroke="null" id="svg_200" fill="#FFFFFF" d="m796.67648,707.98159c-4.3211,-2.68215 -8.34419,-5.66231 -12.06928,-8.94049c-0.149,-0.14901 -0.149,-0.14901 0.149,-0.14901c0.29801,0 0.44701,0.14901 0.59601,0.14901c1.49003,1.34107 3.12907,2.38413 4.76811,3.42719c2.38406,1.34107 3.27808,3.42719 5.36412,4.47024c1.34103,0.74504 2.38406,1.63909 3.57608,2.68215c0.149,0.14901 0.149,0.14901 0,0.14901c-0.149,0 -0.29801,-0.14901 -0.44701,-0.14901c-0.29801,-0.14901 -0.59601,-0.44702 -0.89402,-0.74504c-0.44701,-0.44702 -0.74502,-0.59603 -1.04302,-0.89405z" class="st54"/>
   <path stroke="null" id="svg_201" fill="#707274" d="m923.47842,714.83596c43.062,13.70874 70.03162,56.62307 85.82599,96.40823l-72.11767,20.2651c-0.59601,0.14901 -1.34103,-0.14901 -1.63904,-0.74504c-1.93704,-4.47024 -3.87409,-8.94049 -6.10914,-13.41073c0,-0.14901 -0.29801,-0.29802 -0.59601,-0.44702c-0.44701,-0.29802 -0.59601,-0.59603 -0.89402,-0.89405c-2.68206,-5.66231 -5.96014,-11.0266 -9.68522,-16.09287c-0.59601,-0.89405 -1.34103,-1.19206 -1.93704,-1.93711c-4.76811,-6.25834 -11.92028,-13.55974 -20.71148,-13.41073c-20.86048,0.44702 -41.72097,0.44702 -62.58145,0c-3.12907,0 -6.10914,0.29802 -8.34419,2.08611c-5.21512,4.02322 -21.30749,18.17899 -21.00949,25.92741c0.59601,12.66569 0.29801,25.48038 0.74502,37.69905c0.29801,7.74842 0.44701,15.64585 0.44701,23.39427c0.149,46.49052 0.149,84.7856 -0.149,115.03424c-0.149,8.04644 15.64536,20.41411 21.6055,23.9903c1.49003,0.89405 3.42708,1.34107 5.81113,1.34107c22.94653,-0.14901 45.74406,-0.29802 68.39259,-0.44702c1.04302,0 1.93704,-0.29802 2.68206,-1.04306c14.30433,-12.06966 25.03258,-26.82146 31.88674,-44.10639c0.44701,-0.89405 1.49003,-1.49008 2.38406,-1.19206l69.88262,18.32799c0.89402,0.29802 1.34103,1.04306 1.19203,1.93711c0,0 0,0.14901 0,0.14901l-2.68206,6.70536c-6.70516,14.7518 -11.32426,24.43733 -13.85732,29.05658c-14.30433,24.88435 -33.97279,45.14945 -60.04839,56.47407c-8.34419,3.57619 -15.49636,5.36429 -21.4565,5.36429c-28.31066,0.14901 -52.30021,1.49008 -84.63396,0.14901c-9.38722,-0.44702 -16.68839,-1.34107 -21.90351,-2.83115c-7.30117,-2.08611 -14.00632,-5.06628 -20.41347,-9.08949c-4.76811,-2.98016 -11.32426,-8.64247 -19.51945,-16.68891c-7.89718,-7.89743 -14.00632,-14.00676 -18.02942,-18.32799c-11.77127,-12.8147 -16.09237,-27.11947 -17.73141,-44.40441c-0.149,-5.66231 -0.29801,-11.47362 -0.29801,-17.13593c-0.149,-45.29846 -0.29801,-90.44791 -0.44701,-135.74637c0,-15.94387 0.29801,-31.73872 1.34103,-45.74548c1.19203,-14.7518 7.30117,-25.03336 17.73141,-36.805c9.68522,-11.0266 19.22145,-20.41411 28.90667,-28.46054c8.04619,-6.85437 18.77444,-12.06966 32.03574,-15.79486c5.21512,-1.34107 10.87725,-1.93711 17.1354,-1.7881c21.6055,0.29802 43.95602,-0.74504 57.96234,-0.29802c11.47327,0.44702 20.11547,0.44702 25.62859,0.14901c2.68206,-0.14901 7.89718,0.74504 15.19835,2.38413z" class="st62"/>
   <path stroke="null" id="svg_202" fill="#707274" d="m695.35413,869.50636c-4.02309,9.68553 -9.83423,18.477 -17.1354,26.37443c-0.44701,0.59603 -0.44701,1.04306 0,1.63909l6.55615,8.64247c7.00316,10.13255 12.36729,19.52006 13.70832,31.73872c1.19203,10.28156 1.63904,20.56312 1.34103,30.99368l-1.19203,38.14607l-2.23505,10.72858c-5.06612,16.68891 -14.00632,26.67245 -26.82062,39.63615c-12.21828,12.36767 -24.88358,21.90419 -41.86997,25.92741c-5.06612,1.19206 -13.1123,1.93711 -24.28756,2.08611c-20.71148,0.44702 -36.05884,1.04306 -62.13444,0.14901c-8.4932,-0.29802 -14.75134,-0.89405 -18.62543,-1.7881c-14.00632,-3.27818 -27.86365,-11.92065 -38.5919,-20.41411c-0.29801,-0.29802 -0.44701,-0.44702 -0.44701,-0.89405c0,-0.29802 0,-0.44702 -0.149,-0.59603c-2.23505,-2.23512 -5.36412,-4.91727 -9.38722,-8.04644c-0.74502,-0.59603 -1.78804,-1.7881 -3.27808,-3.42719c-0.74502,-1.04306 -1.93704,-2.08611 -3.27808,-3.57619c-9.98323,-9.83453 -17.88041,-22.20221 -23.84055,-37.10301c-0.89402,-1.04306 -1.49003,-2.23512 -1.63904,-3.42719c-0.149,-0.59603 0.149,-0.89405 0.74502,-1.04306l71.22365,-19.22204c0.59601,-0.14901 1.04302,0 1.19203,0.59603c6.70516,12.06966 12.21828,19.52006 23.98956,26.37443c0.59601,0.44702 1.49003,0.59603 2.23505,0.59603c21.30749,0.14901 42.913,0.14901 64.5185,0c4.1721,0 10.28124,-6.55636 12.66529,-9.53652c3.12907,-2.98016 4.61911,-5.96032 4.61911,-8.94049c0.149,-12.9637 0.29801,-25.92741 0.59601,-38.89111c0.149,-9.08949 -3.87409,-15.64585 -11.02626,-20.71212c-5.51313,-3.87421 -12.8143,-2.68215 -19.66846,-2.53314c-11.02626,0.29802 -22.05251,0.74504 -33.07877,1.04306c-4.3211,0.14901 -8.94021,1.19206 -13.41031,1.04306c-7.30117,-0.29802 -14.30433,-0.89405 -21.6055,0c-0.59601,0.14901 -1.19203,-0.29802 -1.19203,-0.89405c0,0 0,-0.14901 0,-0.14901l0,-7.3014c0,-16.39089 0.149,-32.78178 0.149,-49.17267c0,-5.36429 0.44701,-10.72858 1.34103,-15.94387c0.149,-0.44702 0.44701,-0.74504 0.89402,-0.74504c26.0756,0 52.15121,0 78.37582,0c5.96014,0 9.08921,-2.53314 12.36729,-6.85437c4.02309,-3.42719 6.10914,-7.00338 6.40715,-11.0266c0.29801,-4.76826 0.59601,-16.09287 0.59601,-34.12285c0,-8.64247 -3.27808,-13.26172 -9.53622,-19.22204c-3.42708,-3.27818 -7.00316,-4.91727 -10.72825,-4.91727c-19.96646,-0.14901 -39.93293,-0.29802 -60.04839,-0.59603c-9.53622,-0.14901 -24.43657,18.92403 -28.75767,26.22542c-0.29801,0.59603 -0.89402,0.74504 -1.49003,0.59603l-71.81967,-19.07304c4.61911,-12.36767 11.92028,-24.58633 21.7545,-36.65599c15.04935,-18.477 37.39987,-37.10301 60.4954,-41.42425c4.3211,-0.74504 11.17526,-1.19206 20.11547,-1.19206c17.58241,0 35.16482,0 52.89623,0c13.70832,0 23.69155,0.74504 29.65169,2.08611c11.92028,2.68215 22.20152,7.89743 30.99272,15.49684c22.64853,19.66907 39.93293,37.40103 41.42296,67.64967c0.74502,15.79486 1.04302,31.58971 0.74502,47.38457c-0.149,8.04644 -1.63904,16.09287 -4.3211,24.28832z" class="st62"/>
   <path stroke="null" id="svg_203" fill="#FF369C" d="m1338.00604,733.75999c0.44701,1.93711 0.89402,3.7252 1.19203,5.5133c0.29801,2.38413 0.74502,4.32123 1.04302,5.5133c20.41347,78.82528 27.71464,159.88568 18.02942,240.94608c-0.44701,3.42719 -1.63904,6.55636 -3.87409,9.53652c-18.62543,24.58633 -39.03891,47.68259 -61.24042,69.13975c-0.149,0.14901 -0.44701,0.29802 -0.59601,0.29802c-0.29801,0 -0.44701,0 -0.59601,-0.14901c-13.41031,-14.7518 -35.46282,-24.73534 -54.53527,-28.60955c-0.74502,-0.14901 -1.34103,-0.59603 -1.63904,-1.34107c44.40303,-72.86496 73.4587,-151.24321 85.82599,-235.7308c1.34103,-8.79148 2.68206,-19.96708 4.02309,-33.2288l2.08605,-1.04306c0.44701,-0.14901 0.74502,-0.59603 0.74502,-0.89405l9.53622,-29.95063z" class="st60"/>
   <path stroke="null" id="svg_204" fill="#A48CC9" d="m101.87336,740.61436c1.19203,4.47024 1.78804,8.79148 1.78804,12.9637c0,7.74842 0.74502,15.19883 1.49003,22.64923c10.72825,97.6003 42.76399,187.60118 96.10723,270.00266c4.76811,7.4504 10.13224,15.34783 15.94337,23.69229c-10.43024,5.21528 -19.66846,11.92065 -27.86365,20.11609c-0.29801,0.29802 -0.74502,0.44702 -1.19203,0.44702l-0.59601,0c-0.44701,0 -0.89402,-0.29802 -1.34103,-0.59603c-32.92976,-27.86451 -62.58145,-59.0072 -88.95506,-93.13006c0,-0.14901 -0.44701,-0.59603 -1.19203,-1.7881c-1.19203,-1.7881 -2.38406,-2.53314 -3.57608,-2.23512c-0.29801,-0.29802 -0.44701,-0.74504 -0.59601,-1.49008c0.44701,-0.14901 0.59601,-0.44702 0.44701,-1.19206c-10.57925,-63.77546 -11.17526,-127.55092 -1.49003,-191.47539c2.68206,-18.92403 6.40715,-38.29508 11.02626,-57.96415z" class="st64"/>
   <path stroke="null" id="svg_205" fill="#FF86C2" d="m187.55035,1090.48535c0.29801,0 0.44701,0.14901 0.44701,0.29802c0.149,0.14901 0.149,0.29802 0,0.44702c-0.149,0.29802 -0.149,0.44702 -0.29801,0.44702c-15.79437,16.5399 -25.9266,35.91095 -30.39671,57.81514c-0.59601,3.12917 -1.19203,5.36429 -1.63904,6.70536c-0.149,0.29802 -0.149,0.44702 -0.29801,0.59603c-0.29801,0.29802 -0.59601,0.44702 -0.74502,0.14901c-1.19203,-1.63909 -3.72509,-5.81132 -7.45017,-12.36767c-14.45334,-25.7784 -25.7776,-50.51374 -34.12179,-74.05702c-2.23505,-6.10933 -5.51313,-16.09287 -9.83423,-29.80162c-3.12907,-9.53652 -6.70516,-25.48038 -10.72825,-47.9806c1.19203,-0.29802 2.38406,0.44702 3.57608,2.23512c0.74502,1.04306 1.19203,1.63909 1.19203,1.7881c26.37361,34.12285 56.0253,65.26554 88.95506,93.13006c0.29801,0.44702 0.74502,0.59603 1.34103,0.59603z" class="st56"/>
   <path stroke="null" id="svg_206" fill="#60889C" d="m1234.59764,1035.50137c0.44701,0 0.74502,0.29802 0.74502,0.74504c0,0.14901 0,0.44702 -0.29801,0.74504c-12.8143,21.90419 -26.82062,39.93417 -43.95602,60.7953c-2.83107,3.42719 -6.10914,6.85437 -8.6422,10.43057c-3.12907,4.47024 -7.15217,7.59941 -10.43024,11.77164c-2.68206,3.42719 -4.91711,5.81132 -6.40715,7.4504c-14.30433,14.30478 -28.31066,29.20559 -43.65801,42.46731c-3.87409,3.27818 -7.45017,6.85437 -11.02626,10.57957c-2.08605,2.23512 -4.91711,4.17223 -7.45017,6.40735c-0.59601,0.59603 -1.34103,0.29802 -1.93704,-0.59603c-16.83739,-52.74886 4.91711,-110.26599 53.49224,-137.53447c24.13856,-13.85775 50.66118,-18.17899 79.56785,-13.26172z" class="st65"/>
   <path stroke="null" id="svg_207" fill="#C377BF" d="m1235.49166,1034.45831c0.29801,0.74504 0.74502,1.19206 1.63904,1.34107c18.92344,3.87421 40.97595,13.85775 54.53527,28.60955c-1.34103,1.93711 -3.57608,4.32123 -6.85416,7.15239c-27.41664,25.18237 -55.72729,47.08656 -84.63396,65.86158c-11.62227,7.59941 -23.24454,15.04982 -34.71781,22.20221c-0.89402,0.59603 -1.49003,1.19206 -1.93704,2.08611c-9.53622,16.39089 -19.37045,32.18575 -29.80069,47.53358c-3.57608,5.21528 -7.15217,10.57957 -10.72825,16.09287c0.29801,-0.89405 -0.149,-1.19206 -1.19203,-1.04306c-8.7912,-10.72858 -15.49636,-22.64923 -19.96646,-35.76194c-0.149,-0.29802 -0.44701,-0.59603 -1.19203,-1.04306c0.44701,-0.44702 0.74502,-0.89405 0.89402,-1.34107c0.59601,1.04306 1.34103,1.19206 1.93704,0.59603c2.53306,-2.23512 5.36412,-4.17223 7.45017,-6.40735c3.57608,-3.7252 7.15217,-7.15239 11.02626,-10.57957c15.19835,-13.26172 29.35368,-28.16253 43.65801,-42.46731c1.49003,-1.49008 3.72509,-4.02322 6.40715,-7.4504c3.27808,-4.17223 7.30117,-7.3014 10.43024,-11.77164c2.38406,-3.42719 5.81113,-7.00338 8.6422,-10.43057c17.1354,-20.86113 31.29073,-38.89111 43.95602,-60.7953c0.149,-0.29802 0.29801,-0.59603 0.29801,-0.74504c0,-0.44702 -0.29801,-0.59603 -0.74502,-0.74504c0.89402,-0.44702 1.19203,-0.74504 0.89402,-0.89405z" class="st57"/>
   <path stroke="null" id="svg_208" fill="#A99D5E" d="m377.67876,1222.2085c-0.59601,0.59603 -1.19203,0.74504 -1.93704,0.29802c-17.4334,-11.62263 -34.4198,-23.9903 -50.66118,-37.25202c-4.3211,-3.57619 -9.08921,-8.79148 -13.41031,-11.92065c-0.44701,-0.29802 -1.34103,-0.44702 -2.38406,-0.44702c-0.44701,0 -0.89402,-0.14901 -1.34103,-0.29802c-5.06612,-3.27818 -10.28124,-6.40735 -15.49636,-9.38751c-0.29801,-0.14901 -0.59601,-0.59603 -0.89402,-1.04306c-0.29801,-0.44702 -0.59601,-0.74504 -1.19203,-0.74504c-1.63904,-0.29802 -2.98007,-1.04306 -4.02309,-2.08611c-0.29801,-0.29802 -0.74502,-0.59603 -1.19203,-0.59603c-0.89402,-0.14901 -1.78804,-0.59603 -2.53306,-1.04306c-31.88674,-18.62601 -62.13444,-39.63615 -90.74311,-63.03042c-0.149,-0.14901 -0.74502,-0.74504 -1.78804,-1.7881c-0.74502,-0.89405 -1.63904,-1.19206 -2.53306,-1.04306c0.149,0 0.29801,-0.14901 0.29801,-0.44702c0.149,-0.14901 0,-0.29802 0,-0.44702c-0.149,-0.14901 -0.29801,-0.29802 -0.44701,-0.29802l0.59601,0c0.44701,0 0.74502,-0.14901 1.19203,-0.44702c8.19519,-8.19544 17.4334,-14.90081 27.86365,-20.11609c21.90351,-11.17561 43.95602,-15.49684 66.15753,-12.9637c31.29073,3.42719 57.06832,17.13593 77.4818,40.97722c18.92344,22.35121 31.43973,55.43101 28.01265,85.23263c-1.49003,12.21866 -5.06612,25.33138 -11.02626,38.89111z" class="st66"/>
   <path stroke="null" id="svg_209" fill="#A48CC9" d="m1291.66596,1064.40894c0.149,0.29802 0.149,0.44702 0.29801,0.44702c0.44701,0.14901 0.74502,0.29802 0.74502,0.29802c14.75134,14.30478 25.18158,31.2917 31.29073,50.96077c-0.149,1.04306 -0.29801,2.08611 -0.74502,2.98016c-16.68839,37.40103 -36.20784,71.8219 -61.68743,104.00765c-9.38722,11.77164 -16.09237,19.52006 -20.41347,23.24526c-7.74818,6.70536 -15.34736,13.70874 -22.79753,21.15915c-4.4701,0.44702 -7.45017,0.59603 -9.08921,0.29802c-34.12179,-3.42719 -63.77348,-15.79486 -86.273,-42.3183c3.57608,-5.5133 7.15217,-10.87759 10.72825,-16.09287c10.43024,-15.34783 20.41347,-31.2917 29.80069,-47.53358c0.44701,-0.89405 1.19203,-1.49008 1.93704,-2.08611c11.47327,-7.15239 22.94653,-14.60279 34.71781,-22.20221c28.90667,-18.77502 57.06832,-40.67921 84.63396,-65.86158c3.12907,-2.98016 5.51313,-5.36429 6.85416,-7.3014z" class="st64"/>
   <path stroke="null" id="svg_210" fill="#FFA863" d="m187.55035,1091.67742c0.89402,-0.14901 1.78804,0.14901 2.53306,1.04306c1.04302,1.04306 1.63904,1.63909 1.78804,1.7881c28.60866,23.39427 58.85637,44.40441 90.74311,63.03042c0.74502,0.44702 1.63904,0.74504 2.53306,1.04306c0.44701,0.14901 0.89402,0.29802 1.19203,0.59603c1.19203,1.04306 2.53306,1.7881 4.02309,2.08611c0.44701,0.14901 0.89402,0.29802 1.19203,0.74504c0.29801,0.44702 0.59601,0.89405 0.89402,1.04306c5.21512,2.98016 10.43024,6.10933 15.49636,9.38751c0.44701,0.29802 0.89402,0.29802 1.34103,0.29802c1.04302,0 1.93704,0.14901 2.38406,0.44702c4.3211,3.12917 9.08921,8.49346 13.41031,11.92065c16.24138,13.26172 33.07877,25.62939 50.66118,37.25202c0.74502,0.44702 1.34103,0.44702 1.93704,-0.29802l0.149,0.74504c-6.10914,12.36767 -14.15533,23.54328 -23.98956,33.67583c-18.02942,17.43395 -40.08193,28.31154 -66.15753,32.63277c-0.74502,0.14901 -1.19203,0.59603 -1.19203,1.63909l-1.78804,-0.44702c0.44701,-0.74504 0.44701,-1.19206 0,-1.49008c-12.8143,-8.04644 -25.03258,-16.68891 -36.65485,-26.22542c-8.19519,-6.55636 -15.94337,-15.04982 -23.69155,-22.64923c-2.83107,-2.68215 -6.55615,-4.61925 -9.53622,-7.4504c-9.98323,-9.83453 -20.26447,-19.22204 -28.60866,-30.69567c-9.98323,-13.85775 -19.37045,-26.07642 -30.2477,-42.61631c-0.149,-0.29802 -0.59601,-0.44702 -1.04302,-0.44702c-0.44701,-0.44702 -0.59601,-1.04306 -0.59601,-1.63909c0.149,0.29802 0.44701,0.29802 0.74502,-0.14901c0.149,-0.14901 0.29801,-0.29802 0.29801,-0.59603c0.44701,-1.34107 1.04302,-3.57619 1.63904,-6.70536c4.61911,-22.0532 14.75134,-41.27524 30.54571,-57.96415z" class="st67"/>
   <path stroke="null" id="svg_211" fill="#7BD7EF" d="m1323.99971,1115.96573c0.59601,0.29802 0.74502,0.29802 0.74502,0c1.78804,8.34445 4.3211,16.68891 4.76811,25.03336c3.87409,57.81514 -34.4198,109.22293 -90.5941,123.08068c-3.87409,0.89405 -10.28124,2.23512 -19.51945,3.87421l-1.19203,-0.74504c7.45017,-7.3014 15.04935,-14.30478 22.79753,-21.15915c4.3211,-3.7252 11.02626,-11.47362 20.41347,-23.24526c25.47959,-32.18575 44.99904,-66.60662 61.68743,-104.00765c0.44701,-0.74504 0.74502,-1.63909 0.89402,-2.83115z" class="st52"/>
   <path stroke="null" id="svg_212" fill="#FFF677" d="m155.06759,1158.58205c0.44701,0 0.89402,0.14901 1.04302,0.44702c10.87725,16.5399 20.26447,28.90757 30.2477,42.61631c8.34419,11.47362 18.62543,21.01014 28.60866,30.69567c2.98007,2.98016 6.70516,4.76826 9.53622,7.4504c7.89718,7.59941 15.64536,16.09287 23.69155,22.64923c11.62227,9.53652 23.84055,18.17899 36.65485,26.22542c0.44701,0.29802 0.44701,0.74504 0,1.49008c-19.81746,1.34107 -34.12179,-0.59603 -52.89623,-7.00338c-18.77444,-6.40735 -35.16482,-17.88097 -49.32014,-34.71888c-17.88041,-21.15915 -26.96963,-45.74548 -27.41664,-73.61c-0.149,-5.36429 -0.149,-10.87759 -0.149,-16.24188z" class="st49"/>
   <path stroke="null" id="svg_213" fill="#FF369C" d="m1100.64353,1187.48962c0.74502,0.44702 1.19203,0.74504 1.19203,1.04306c4.4701,13.11271 11.17526,25.03336 19.96646,35.76194c0.89402,0.59603 0.89402,1.49008 -0.149,2.68215c-44.10502,61.09332 -99.53431,115.03424 -163.9038,154.52139c-1.93704,1.19206 -5.66213,2.53314 -8.04619,2.68215c-86.86902,7.4504 -171.80099,-3.27818 -254.94491,-29.65261c-8.04619,-2.53314 -14.60234,-4.91727 -22.94653,-3.27818c-70.77664,13.70874 -141.10627,15.19883 -210.83989,4.61925c-2.53306,-0.44702 -5.36412,-1.7881 -7.45017,-3.27818c-36.80385,-28.01352 -70.03162,-60.05026 -99.68331,-95.8122c9.83423,-10.13255 17.88041,-21.30816 23.98956,-33.67583c83.14393,54.38795 174.33404,86.72271 273.42134,97.15327c2.53306,0.29802 7.45017,0.89405 14.60234,1.7881c3.57608,0.44702 8.34419,0 12.66529,0.44702c5.66213,0.74504 11.32426,1.04306 16.98639,0.89405c10.13224,-0.14901 23.54255,-0.14901 39.93293,0.14901c7.74818,0.14901 15.64536,-1.04306 24.28756,-1.34107c5.21512,-0.14901 11.02626,-1.19206 15.19835,-1.63909c119.50077,-10.87759 231.70038,-58.11315 324.97654,-132.6172c0.29801,-0.29802 0.44701,-0.44702 0.74502,-0.44702z" class="st60"/>
   <path stroke="null" id="svg_214" fill="#FF86C2" d="m1121.80202,1224.29462c1.19203,-0.14901 1.49003,0.29802 1.19203,1.04306c22.49952,26.52344 52.15121,38.89111 86.273,42.3183c1.63904,0.14901 4.61911,0 9.08921,-0.29802l1.19203,0.74504c-7.74818,7.15239 -15.49636,14.15577 -23.39354,21.01014c-10.72825,9.38751 -23.98956,17.58295 -36.35684,25.33138c-15.79437,9.83453 -25.9266,15.94387 -30.69471,18.17899c-16.98639,8.19544 -27.56564,13.26172 -32.03574,15.04982c-23.09554,9.83453 -46.93609,17.88097 -71.22365,23.84129c-0.149,0 -2.68206,0.74504 -7.59918,2.23512c-3.42708,1.04306 -7.45017,1.49008 -10.43024,2.08611c-17.73141,3.87421 -35.31382,6.25834 -52.74722,8.64247c-1.34103,0.14901 -2.68206,0.59603 -4.02309,1.34107c-39.03891,22.20221 -79.71685,39.93417 -122.03383,50.36473c-4.1721,1.04306 -13.85732,2.98016 -28.60866,5.96032c-15.94337,3.12917 -28.16165,4.61925 -36.65485,4.61925c-14.00632,0 -22.79753,0 -26.67162,0c-0.89402,0 -1.93704,0.89405 -2.98007,0.89405c-8.7912,0 -17.58241,0 -26.22461,0c-9.38722,0 -18.17842,-0.59603 -26.22461,-1.49008c-18.47643,-2.38413 -36.95286,-5.66231 -55.13128,-9.83453c-4.91711,-1.04306 -15.94337,-4.32123 -33.22777,-9.68553c-26.22461,-8.04644 -53.79025,-21.15915 -78.97183,-34.56988c-16.68839,-8.94049 -35.01581,-20.71212 -54.98228,-35.0169c-1.19203,-0.89405 -2.23505,-1.19206 -3.57608,-1.34107c-12.21828,-2.68215 -24.28756,-5.5133 -36.35684,-8.49346c-25.9266,-6.55636 -51.10819,-15.19883 -75.54475,-26.07642c-9.98323,-4.47024 -19.66846,-9.08949 -29.35368,-14.15577c-9.53622,-4.91727 -18.77444,-10.43057 -27.86365,-16.24188c0,-0.89405 0.44701,-1.49008 1.19203,-1.63909c26.0756,-4.32123 47.97911,-15.19883 66.15753,-32.63277c29.65169,35.91095 62.87946,67.79868 99.68331,95.8122c1.93704,1.49008 4.91711,2.98016 7.45017,3.27818c69.73362,10.72858 139.91425,9.08949 210.83989,-4.61925c8.34419,-1.63909 14.90035,0.74504 22.94653,3.27818c83.14393,26.37443 168.0759,37.25202 254.94491,29.65261c2.23505,-0.14901 5.96014,-1.49008 8.04619,-2.68215c64.36949,-39.48714 119.79878,-93.27906 163.9038,-154.52139c0.89402,-0.89405 0.89402,-1.93711 0,-2.38413z" class="st56"/>
  </g>
 </g>
</svg>